<?xml version="1.0" encoding="UTF-8" standalone="no"?>
<svg width="39px" height="39px" viewBox="0 0 39 39" version="1.1" xmlns="http://www.w3.org/2000/svg" xmlns:xlink="http://www.w3.org/1999/xlink">
    <!-- Generator: Sketch 42 (36781) - http://www.bohemiancoding.com/sketch -->
    <title>datastorage</title>
    <desc>Created with Sketch.</desc>
    <defs>
        <circle id="path-1" cx="18.5" cy="18.5" r="18.5"></circle>
        <filter x="-50%" y="-50%" width="200%" height="200%" filterUnits="objectBoundingBox" id="filter-2">
            <feMorphology radius="0.5" operator="dilate" in="SourceAlpha" result="shadowSpreadOuter1"></feMorphology>
            <feOffset dx="0" dy="0" in="shadowSpreadOuter1" result="shadowOffsetOuter1"></feOffset>
            <feComposite in="shadowOffsetOuter1" in2="SourceAlpha" operator="out" result="shadowOffsetOuter1"></feComposite>
            <feColorMatrix values="0 0 0 0 0.235294118   0 0 0 0 0.745098039   0 0 0 0 0.694117647  0 0 0 1 0" type="matrix" in="shadowOffsetOuter1"></feColorMatrix>
        </filter>
    </defs>
    <g id="Page-1" stroke="none" stroke-width="1" fill="none" fill-rule="evenodd">
        <g id="take-two" transform="translate(-631.000000, -1705.000000)">
            <g id="experience-and-skills" transform="translate(132.000000, 786.000000)">
                <g id="technical-skills" transform="translate(37.000000, 601.000000)">
                    <g id="skills-list" transform="translate(0.000000, 284.000000)">
                        <g id="datastorage" transform="translate(463.000000, 0.000000)">
                            <g transform="translate(0.000000, 35.000000)">
                                <g id="Oval-2">
                                    <use fill="black" fill-opacity="1" filter="url(#filter-2)" xlink:href="#path-1"></use>
                                    <use stroke-opacity="0.167855525" stroke="#979797" stroke-width="1" fill="#FFFFFF" fill-rule="evenodd" xlink:href="#path-1"></use>
                                </g>
                                <g id="elasticsearch" transform="translate(7.000000, 7.000000)">
                                    <g id="Group">
                                        <path d="M23.99625,12.5993438 C23.99625,10.58175 22.7425313,8.838375 20.8815938,8.15278125 C20.9604112,7.72633985 20.9997339,7.29353846 20.9990625,6.859875 C20.9990625,3.11840625 17.962875,0.08221875 14.2214062,0.08221875 C12.0470625,0.08221875 10.009875,1.12040625 8.7365625,2.90296875 C8.10975,2.41321875 7.34578125,2.15859375 6.542625,2.15859375 C4.564125,2.15859375 2.9383125,3.7648125 2.9383125,5.76290625 C2.9383125,6.193875 3.0166875,6.62484375 3.15375,7.016625 C1.2733125,7.66303125 0,9.4651875 0,11.4631875 C0,13.480875 1.25371875,15.2438438 3.13415625,15.9294375 C3.055875,16.3408125 3.0166875,16.7717813 3.0166875,17.22225 C3.0166875,20.944125 6.052875,23.9804063 9.77475,23.9804063 C11.9686875,23.9804063 13.986375,22.922625 15.2595938,21.1596563 C15.8864063,21.6493125 16.6699688,21.923625 17.473125,21.923625 C19.451625,21.923625 21.0774375,20.3173125 21.0774375,18.3193125 C21.0774375,17.8883438 20.9990625,17.457375 20.862,17.0655938 C22.70325,16.3995938 23.9961563,14.5974375 23.9961563,12.5993438 L23.99625,12.5993438 Z" id="Shape" fill="#FFFFFF"></path>
                                        <path d="M9.38296875,10.346625 L14.73075,12.7952813 L20.1372187,8.0548125 C20.2160373,7.66140082 20.2553886,7.26110389 20.2546875,6.859875 C20.2546875,3.529875 17.5515,0.82659375 14.2214062,0.82659375 C12.2233125,0.82659375 10.3624687,1.806 9.24590625,3.45140625 L8.34478125,8.11359375 L9.38296875,10.3467188 L9.38296875,10.346625 Z" id="Shape" fill="#F4BD19"></path>
                                        <path d="M3.83934375,16.0078125 C3.7610625,16.3995938 3.721875,16.8109688 3.721875,17.2223438 C3.721875,20.5523438 6.44465625,23.2752188 9.77475,23.2752188 C11.7924375,23.2752188 13.653375,22.2762188 14.7894375,20.6307188 L15.6709688,15.968625 L14.4760313,13.6963125 L9.10875,11.24775 L3.83934375,16.0078125 L3.83934375,16.0078125 Z" id="Shape" fill="#3CBEB1"></path>
                                        <path d="M3.80025,6.7423125 L7.46334375,7.60425 L8.286,3.4318125 C7.77675,3.04003125 7.1694375,2.8441875 6.52303125,2.8441875 C4.9363125,2.8441875 3.62390625,4.137 3.62390625,5.7433125 C3.62390625,6.0763125 3.6826875,6.42890625 3.80015625,6.7423125 L3.80025,6.7423125 Z" id="Shape" fill="#E9478C"></path>
                                        <path d="M3.48675,7.62375 C1.84134375,8.1526875 0.7051875,9.73940625 0.7051875,11.4631875 C0.7051875,13.147875 1.743375,14.6562187 3.3105,15.2438437 L8.46234375,10.5816562 L7.52203125,8.56415625 L3.48675,7.62384375 L3.48675,7.62375 Z" id="Shape" fill="#2C458F"></path>
                                        <path d="M15.72975,20.611125 C16.239,21.003 16.8463125,21.2184375 17.473125,21.2184375 C19.0598438,21.2184375 20.37225,19.925625 20.37225,18.3193125 C20.37225,17.9667188 20.3134688,17.633625 20.196,17.3202188 L16.5329063,16.458375 L15.72975,20.611125 L15.72975,20.611125 Z" id="Shape" fill="#95C63D"></path>
                                        <path d="M16.474125,15.4984688 L20.5094062,16.4387813 C22.1548125,15.8903438 23.2909687,14.3232188 23.2909687,12.5993438 C23.2909687,10.9146563 22.2527812,9.426 20.6856562,8.81878125 L15.39675,13.4416875 L16.474125,15.4985625 L16.474125,15.4984688 Z" id="Shape" fill="#176655"></path>
                                    </g>
                                </g>
                            </g>
                        </g>
                    </g>
                </g>
            </g>
        </g>
    </g>
</svg>