<?xml version="1.0" encoding="UTF-8" standalone="no"?>
<svg viewBox="0 0 737 296" version="1.1" xmlns="http://www.w3.org/2000/svg" xmlns:xlink="http://www.w3.org/1999/xlink">
    <!-- Generator: Sketch 43.2 (39069) - http://www.bohemiancoding.com/sketch -->
    <title>es335</title>
    <desc>Created with Sketch.</desc>
    <defs></defs>
    <g id="Page-1" stroke="none" stroke-width="1" fill="none" fill-rule="evenodd">
        <g id="take-two" transform="translate(-437.000000, -8421.000000)">
            <g id="contact-me" transform="translate(108.000000, 8174.000000)">
                <g id="es335" transform="translate(697.557874, 353.325583) rotate(80.000000) translate(-697.557874, -353.325583) translate(549.861006, -20.260613)">
                    <g id="body" transform="translate(0.000000, 382.186047)">
                        <path d="M146.515878,16.2995979 C142.218921,15.2969572 134.622542,17.1706771 122.741126,31.6671313 C102.174677,56.7601485 89.9633473,-23.0227854 59.7563708,7.86093587 C21.8369857,42.6051214 68.1114981,91.5043425 59.7563716,114.667133 C51.4012451,137.829924 -20.5813135,185.442326 5.76944811,267.798914 C29.0091071,340.432072 107.249253,359.90852 141.712658,363.495048 C141.756618,363.506528 141.800719,363.517224 141.844961,363.527132 C170.574452,369.96124 262.687714,349.512092 289.038475,267.155503 C315.389237,184.798915 243.406678,137.186513 235.051552,114.023722 C226.696425,90.8609317 272.970938,41.9617106 235.051553,7.21752501 C204.844576,-23.6661963 192.633246,56.1167376 172.066798,31.0237205 C158.329073,14.2623941 150.319939,14.3761784 146.515878,16.2995979 Z" id="Combined-Shape" stroke="#979797" fill="#C32836"></path>
                        <path d="M226.552288,252.217054 C231.699124,252.217054 235.87146,248.040114 235.87146,242.887597 C235.87146,237.73508 231.699124,233.55814 226.552288,233.55814 C221.405451,233.55814 217.233115,237.73508 217.233115,242.887597 C217.233115,248.040114 221.405451,252.217054 226.552288,252.217054 Z" id="Oval-3" fill="#FBC56D"></path>
                        <ellipse id="Oval-4" fill="#EBDED0" cx="217.233115" cy="211.682171" rx="6.42701525" ry="6.43410853"></ellipse>
                        <path d="M276.683007,249 C281.829843,249 286.002179,244.82306 286.002179,239.670543 C286.002179,234.518026 281.829843,230.341085 276.683007,230.341085 C271.53617,230.341085 267.363834,234.518026 267.363834,239.670543 C267.363834,244.82306 271.53617,249 276.683007,249 Z" id="Oval-3-Copy" fill="#FBC56D"></path>
                        <path d="M259.972767,207.178295 C265.119604,207.178295 269.291939,203.001354 269.291939,197.848837 C269.291939,192.69632 265.119604,188.51938 259.972767,188.51938 C254.82593,188.51938 250.653595,192.69632 250.653595,197.848837 C250.653595,203.001354 254.82593,207.178295 259.972767,207.178295 Z" id="Oval-3-Copy-2" fill="#FBC56D"></path>
                        <path d="M247.118736,287.604651 C252.265573,287.604651 256.437908,283.427711 256.437908,278.275194 C256.437908,273.122677 252.265573,268.945736 247.118736,268.945736 C241.9719,268.945736 237.799564,273.122677 237.799564,278.275194 C237.799564,283.427711 241.9719,287.604651 247.118736,287.604651 Z" id="Oval-3-Copy-3" fill="#FBC56D"></path>
                        <path d="M212.669932,229.688159 C210.846372,229.256334 209.075084,229.054264 207.913943,229.054264 C204.541878,229.054264 201.808279,232.367009 201.808279,236.453488 C201.808279,240.539967 204.541878,243.852713 207.913943,243.852713 C211.07221,243.852713 218.744486,239.535703 219.70468,235.630846 C219.737642,235.583946 219.770722,235.536456 219.803922,235.488369 C222.72521,231.25716 225.588235,221.976736 228.801742,215.542632 C232.01525,209.108529 238.442265,202.031009 241.013071,198.170544 C243.583877,194.310079 240.370367,182.728681 244.86928,171.147286 C248.731572,161.204724 251.605139,154.882125 257.256374,149.777028 C258.721793,150.700211 260.633358,151.20155 261.900871,151.20155 C264.208074,151.20155 266.078431,148.897032 266.078431,146.054264 C266.078431,143.211496 264.208074,140.906977 261.900871,140.906977 C261.755641,140.906977 261.601956,140.918657 261.441455,140.941257 C260.149519,140.771574 258.1023,141.26225 255.152507,142.837209 C247.440089,147.984496 244.443573,158.088902 239.084967,167.286821 C234.254032,175.579007 228.159042,181.441862 227.516339,181.441862 C226.891065,181.441861 226.874111,213.718263 212.669932,229.688159 Z" id="Combined-Shape-Copy" fill="#000000" transform="translate(233.943355, 192.379845) scale(-1, 1) translate(-233.943355, -192.379845) "></path>
                        <path d="M44.2821327,221.323818 C42.4585725,220.891993 40.6872845,220.689922 39.5261438,220.689922 C36.1540784,220.689922 33.4204793,224.002668 33.4204793,228.089147 C33.4204793,232.175626 36.1540784,235.488372 39.5261438,235.488372 C42.6844103,235.488372 50.3566866,231.171362 51.3168803,227.266505 C51.3498421,227.219605 51.3829226,227.172115 51.4161225,227.124028 C54.3374105,222.892819 57.200435,213.612395 60.4139426,207.178291 C63.6274502,200.744188 70.0544655,193.666668 72.6252716,189.806203 C75.1960777,185.945738 71.9825676,174.36434 76.4814807,162.782945 C80.3437722,152.840382 83.2173397,146.517784 88.8685746,141.412687 C90.3339939,142.33587 92.2455583,142.837209 93.5130719,142.837209 C95.8202745,142.837209 97.6906318,140.53269 97.6906318,137.689922 C97.6906318,134.847154 95.8202745,132.542636 93.5130719,132.542636 C93.3678419,132.542636 93.2141566,132.554316 93.0536559,132.576915 C91.7617199,132.407233 89.7145003,132.897909 86.7647076,134.472868 C79.0522893,139.620155 76.0557731,149.724561 70.6971678,158.92248 C65.8662322,167.214666 59.7712424,173.077521 59.1285398,173.077521 C58.5032655,173.07752 58.4863119,205.353922 44.2821327,221.323818 Z" id="Combined-Shape" fill="#000000"></path>
                    </g>
                    <g id="pickguard" transform="translate(165.816993, 420.790698)">
                        <path d="M20.5664488,9.00775194 C35.3485839,9.00775194 36.6339869,4.50387597 45.6318083,10.2945736 C54.6296296,16.0852713 39.8474946,41.8217054 39.8474946,58.5503876 C39.8474946,75.2790698 73.2679739,117.100775 60.4139434,138.333333 C51.157555,154.046271 35.9912854,146.697674 25.0653595,136.403101 C16.7102397,124.178295 8.35511983,123.534884 8.35511983,123.534884 L9.64052288,93.9379845 L0,93.2945736 L1.28540305,48.8992248 L11.5686275,48.8992248 L11.5686275,14.7984496 L0.642701525,14.7984496 L0.642701525,0 C0.642701525,0 5.78431373,9.00775194 20.5664488,9.00775194 Z" id="Path" fill="#000000"></path>
                        <ellipse id="Oval-7" fill="#FFFFFF" cx="47.2385621" cy="91.6860465" rx="1.60675381" ry="1.60852713"></ellipse>
                        <path d="M51.4412442,113.749912 C51.4412442,113.749912 42.109511,110.87544 37.0847316,118.780237 C32.0599521,126.685033 35.6490803,130.996741 35.6490803,130.996741 L32.7777778,132.433976 L34.213429,136.027067 L37.0847316,133.871212 C37.0847316,133.871212 39.2382085,139.620155 47.852116,139.620155 C56.4660236,139.620155 60.0551518,130.278123 60.0551518,130.278123 L55.748198,128.122269 C55.748198,128.122269 55.0303724,133.152594 49.2877673,134.58983 C43.5451623,136.027066 41.3916854,132.433976 41.3916854,132.433976 L51.4412442,125.966415 L49.2877673,123.091944 L38.5203828,129.559505 C38.5203828,129.559505 37.0847316,121.654708 41.3916854,118.780237 C45.6986391,115.905765 50.0055929,116.624383 50.0055929,116.624383 L51.4412442,113.749912 Z" id="Path-3" stroke="#000000" fill="#FFFFFF"></path>
                        <ellipse id="Oval-7" fill="#FFFFFF" cx="5.46296296" cy="9.97286822" rx="1.60675381" ry="1.60852713"></ellipse>
                        <polygon id="Path-26" fill="#979797" points="49.4880174 85.5736434 68.7690632 75.9224806 73.9106754 84.2868217 53.3442266 93.9379845"></polygon>
                    </g>
                    <g id="pickups" transform="translate(114.400871, 435.589147)">
                        <g id="pickup-1" transform="translate(0.000000, 77.852713)">
                            <rect id="Rectangle" fill="#2C2E2B" x="0" y="0" width="62.9847495" height="34.1007752" rx="3"></rect>
                            <rect id="Rectangle-5" fill="#EBDED0" x="7.06971678" y="3.21705426" width="47.5599129" height="27.6666667" rx="5"></rect>
                            <path d="M15.1034858,25.7364341 C13.861146,25.7364341 12.8540305,24.7282071 12.8540305,23.4844961 C12.8540305,22.2407851 13.861146,21.2325581 15.1034858,21.2325581 C16.3458257,21.2325581 17.3529412,22.2407851 17.3529412,23.4844961 C17.3529412,24.7282071 16.3458257,25.7364341 15.1034858,25.7364341 Z M21.5305011,25.7364341 C20.2881612,25.7364341 19.2810458,24.7282071 19.2810458,23.4844961 C19.2810458,22.2407851 20.2881612,21.2325581 21.5305011,21.2325581 C22.772841,21.2325581 23.7799564,22.2407851 23.7799564,23.4844961 C23.7799564,24.7282071 22.772841,25.7364341 21.5305011,25.7364341 Z M27.9575163,25.7364341 C26.7151765,25.7364341 25.708061,24.7282071 25.708061,23.4844961 C25.708061,22.2407851 26.7151765,21.2325581 27.9575163,21.2325581 C29.1998562,21.2325581 30.2069717,22.2407851 30.2069717,23.4844961 C30.2069717,24.7282071 29.1998562,25.7364341 27.9575163,25.7364341 Z M34.3845316,25.7364341 C33.1421917,25.7364341 32.1350763,24.7282071 32.1350763,23.4844961 C32.1350763,22.2407851 33.1421917,21.2325581 34.3845316,21.2325581 C35.6268715,21.2325581 36.6339869,22.2407851 36.6339869,23.4844961 C36.6339869,24.7282071 35.6268715,25.7364341 34.3845316,25.7364341 Z M40.8115468,25.7364341 C39.569207,25.7364341 38.5620915,24.7282071 38.5620915,23.4844961 C38.5620915,22.2407851 39.569207,21.2325581 40.8115468,21.2325581 C42.0538867,21.2325581 43.0610022,22.2407851 43.0610022,23.4844961 C43.0610022,24.7282071 42.0538867,25.7364341 40.8115468,25.7364341 Z M47.2385621,25.7364341 C45.9962222,25.7364341 44.9891068,24.7282071 44.9891068,23.4844961 C44.9891068,22.2407851 45.9962222,21.2325581 47.2385621,21.2325581 C48.480902,21.2325581 49.4880174,22.2407851 49.4880174,23.4844961 C49.4880174,24.7282071 48.480902,25.7364341 47.2385621,25.7364341 Z" id="Combined-Shape" fill="#8B8B8B"></path>
                            <path d="M58.8071895,5.79069767 C57.9198039,5.79069767 57.2004357,5.07053555 57.2004357,4.18217054 C57.2004357,3.29380554 57.9198039,2.57364341 58.8071895,2.57364341 C59.6945752,2.57364341 60.4139434,3.29380554 60.4139434,4.18217054 C60.4139434,5.07053555 59.6945752,5.79069767 58.8071895,5.79069767 Z M3.53485839,5.79069767 C2.64747276,5.79069767 1.92810458,5.07053555 1.92810458,4.18217054 C1.92810458,3.29380554 2.64747276,2.57364341 3.53485839,2.57364341 C4.42224402,2.57364341 5.1416122,3.29380554 5.1416122,4.18217054 C5.1416122,5.07053555 4.42224402,5.79069767 3.53485839,5.79069767 Z M58.8071895,30.8837209 C57.9198039,30.8837209 57.2004357,30.1635588 57.2004357,29.2751938 C57.2004357,28.3868288 57.9198039,27.6666667 58.8071895,27.6666667 C59.6945752,27.6666667 60.4139434,28.3868288 60.4139434,29.2751938 C60.4139434,30.1635588 59.6945752,30.8837209 58.8071895,30.8837209 Z M3.53485839,30.8837209 C2.64747276,30.8837209 1.92810458,30.1635588 1.92810458,29.2751938 C1.92810458,28.3868288 2.64747276,27.6666667 3.53485839,27.6666667 C4.42224402,27.6666667 5.1416122,28.3868288 5.1416122,29.2751938 C5.1416122,30.1635588 4.42224402,30.8837209 3.53485839,30.8837209 Z M58.8071895,18.0155039 C57.9198039,18.0155039 57.2004357,17.2953417 57.2004357,16.4069767 C57.2004357,15.5186117 57.9198039,14.7984496 58.8071895,14.7984496 C59.6945752,14.7984496 60.4139434,15.5186117 60.4139434,16.4069767 C60.4139434,17.2953417 59.6945752,18.0155039 58.8071895,18.0155039 Z M3.53485839,18.0155039 C2.64747276,18.0155039 1.92810458,17.2953417 1.92810458,16.4069767 C1.92810458,15.5186117 2.64747276,14.7984496 3.53485839,14.7984496 C4.42224402,14.7984496 5.1416122,15.5186117 5.1416122,16.4069767 C5.1416122,17.2953417 4.42224402,18.0155039 3.53485839,18.0155039 Z" id="Combined-Shape" fill="#D7D7D7"></path>
                        </g>
                        <g id="pickup-2" transform="translate(32.135076, 17.050388) scale(1, -1) translate(-32.135076, -17.050388) translate(0.642702, 0.000000)">
                            <rect id="Rectangle" fill="#2C2E2B" x="0" y="0" width="62.9847495" height="34.1007752" rx="3"></rect>
                            <rect id="Rectangle-5" fill="#EBDED0" x="7.06971678" y="3.21705426" width="47.5599129" height="27.6666667" rx="5"></rect>
                            <path d="M15.1034858,25.7364341 C13.861146,25.7364341 12.8540305,24.7282071 12.8540305,23.4844961 C12.8540305,22.2407851 13.861146,21.2325581 15.1034858,21.2325581 C16.3458257,21.2325581 17.3529412,22.2407851 17.3529412,23.4844961 C17.3529412,24.7282071 16.3458257,25.7364341 15.1034858,25.7364341 Z M21.5305011,25.7364341 C20.2881612,25.7364341 19.2810458,24.7282071 19.2810458,23.4844961 C19.2810458,22.2407851 20.2881612,21.2325581 21.5305011,21.2325581 C22.772841,21.2325581 23.7799564,22.2407851 23.7799564,23.4844961 C23.7799564,24.7282071 22.772841,25.7364341 21.5305011,25.7364341 Z M27.9575163,25.7364341 C26.7151765,25.7364341 25.708061,24.7282071 25.708061,23.4844961 C25.708061,22.2407851 26.7151765,21.2325581 27.9575163,21.2325581 C29.1998562,21.2325581 30.2069717,22.2407851 30.2069717,23.4844961 C30.2069717,24.7282071 29.1998562,25.7364341 27.9575163,25.7364341 Z M34.3845316,25.7364341 C33.1421917,25.7364341 32.1350763,24.7282071 32.1350763,23.4844961 C32.1350763,22.2407851 33.1421917,21.2325581 34.3845316,21.2325581 C35.6268715,21.2325581 36.6339869,22.2407851 36.6339869,23.4844961 C36.6339869,24.7282071 35.6268715,25.7364341 34.3845316,25.7364341 Z M40.8115468,25.7364341 C39.569207,25.7364341 38.5620915,24.7282071 38.5620915,23.4844961 C38.5620915,22.2407851 39.569207,21.2325581 40.8115468,21.2325581 C42.0538867,21.2325581 43.0610022,22.2407851 43.0610022,23.4844961 C43.0610022,24.7282071 42.0538867,25.7364341 40.8115468,25.7364341 Z M47.2385621,25.7364341 C45.9962222,25.7364341 44.9891068,24.7282071 44.9891068,23.4844961 C44.9891068,22.2407851 45.9962222,21.2325581 47.2385621,21.2325581 C48.480902,21.2325581 49.4880174,22.2407851 49.4880174,23.4844961 C49.4880174,24.7282071 48.480902,25.7364341 47.2385621,25.7364341 Z" id="Combined-Shape" fill="#8B8B8B"></path>
                            <path d="M58.8071895,5.79069767 C57.9198039,5.79069767 57.2004357,5.07053555 57.2004357,4.18217054 C57.2004357,3.29380554 57.9198039,2.57364341 58.8071895,2.57364341 C59.6945752,2.57364341 60.4139434,3.29380554 60.4139434,4.18217054 C60.4139434,5.07053555 59.6945752,5.79069767 58.8071895,5.79069767 Z M3.53485839,5.79069767 C2.64747276,5.79069767 1.92810458,5.07053555 1.92810458,4.18217054 C1.92810458,3.29380554 2.64747276,2.57364341 3.53485839,2.57364341 C4.42224402,2.57364341 5.1416122,3.29380554 5.1416122,4.18217054 C5.1416122,5.07053555 4.42224402,5.79069767 3.53485839,5.79069767 Z M58.8071895,30.8837209 C57.9198039,30.8837209 57.2004357,30.1635588 57.2004357,29.2751938 C57.2004357,28.3868288 57.9198039,27.6666667 58.8071895,27.6666667 C59.6945752,27.6666667 60.4139434,28.3868288 60.4139434,29.2751938 C60.4139434,30.1635588 59.6945752,30.8837209 58.8071895,30.8837209 Z M3.53485839,30.8837209 C2.64747276,30.8837209 1.92810458,30.1635588 1.92810458,29.2751938 C1.92810458,28.3868288 2.64747276,27.6666667 3.53485839,27.6666667 C4.42224402,27.6666667 5.1416122,28.3868288 5.1416122,29.2751938 C5.1416122,30.1635588 4.42224402,30.8837209 3.53485839,30.8837209 Z M58.8071895,18.0155039 C57.9198039,18.0155039 57.2004357,17.2953417 57.2004357,16.4069767 C57.2004357,15.5186117 57.9198039,14.7984496 58.8071895,14.7984496 C59.6945752,14.7984496 60.4139434,15.5186117 60.4139434,16.4069767 C60.4139434,17.2953417 59.6945752,18.0155039 58.8071895,18.0155039 Z M3.53485839,18.0155039 C2.64747276,18.0155039 1.92810458,17.2953417 1.92810458,16.4069767 C1.92810458,15.5186117 2.64747276,14.7984496 3.53485839,14.7984496 C4.42224402,14.7984496 5.1416122,15.5186117 5.1416122,16.4069767 C5.1416122,17.2953417 4.42224402,18.0155039 3.53485839,18.0155039 Z" id="Combined-Shape" fill="#D7D7D7"></path>
                        </g>
                    </g>
                    <g id="neck" transform="translate(126.612200, 113.240310)">
                        <polygon id="Rectangle-7" fill="#4D3933" points="7.06971678 0 33.4204793 0 39.8474946 322.348837 0 322.348837"></polygon>
                        <ellipse id="Oval-5-Copy" fill="#FFF9F0" cx="19.2810458" cy="178.868217" rx="1.92810458" ry="1.93023256"></ellipse>
                        <ellipse id="Oval-5-Copy" fill="#FFF9F0" cx="11.5686275" cy="222.620155" rx="1.92810458" ry="1.93023256"></ellipse>
                        <ellipse id="Oval-5-Copy" fill="#FFF9F0" cx="19.2810458" cy="259.937984" rx="1.92810458" ry="1.93023256"></ellipse>
                        <ellipse id="Oval-5-Copy" fill="#FFF9F0" cx="19.2810458" cy="281.170543" rx="1.92810458" ry="1.93023256"></ellipse>
                        <ellipse id="Oval-5-Copy" fill="#FFF9F0" cx="19.2810458" cy="301.116279" rx="1.92810458" ry="1.93023256"></ellipse>
                        <ellipse id="Oval-5-Copy" fill="#FFF9F0" cx="28.9215686" cy="222.620155" rx="1.92810458" ry="1.93023256"></ellipse>
                        <rect id="Rectangle-14" fill="#FFF9F0" x="7.06971678" y="0" width="26.3507625" height="3.21705426"></rect>
                        <rect id="Rectangle-12" fill="#FFF9F0" x="6.42701525" y="28.9534884" width="27.6361656" height="1.28682171"></rect>
                        <rect id="Rectangle-12-Copy-2" fill="#FFF9F0" x="5.78431373" y="74.6356589" width="28.2788671" height="1.28682171"></rect>
                        <rect id="Rectangle-12-Copy-3" fill="#FFF9F0" x="5.1416122" y="96.5116279" width="30.2069717" height="1.28682171"></rect>
                        <rect id="Rectangle-12-Copy-4" fill="#FFF9F0" x="4.49891068" y="116.457364" width="30.8496732" height="1.28682171"></rect>
                        <rect id="Rectangle-12-Copy-5" fill="#FFF9F0" x="4.49891068" y="135.116279" width="31.4923747" height="1.28682171"></rect>
                        <rect id="Rectangle-12-Copy-6" fill="#FFF9F0" x="3.85620915" y="153.131783" width="32.7777778" height="1.28682171"></rect>
                        <rect id="Rectangle-12-Copy-7" fill="#FFF9F0" x="3.21350763" y="170.503876" width="33.4204793" height="1.28682171"></rect>
                        <rect id="Rectangle-12-Copy-8" fill="#FFF9F0" x="3.21350763" y="185.945736" width="34.0631808" height="1.28682171"></rect>
                        <rect id="Rectangle-12-Copy-9" fill="#FFF9F0" x="2.5708061" y="201.387597" width="34.7058824" height="1.28682171"></rect>
                        <rect id="Rectangle-12-Copy-10" fill="#FFF9F0" x="2.5708061" y="215.542636" width="35.3485839" height="1.28682171"></rect>
                        <rect id="Rectangle-12-Copy-11" fill="#FFF9F0" x="1.92810458" y="229.054264" width="35.9912854" height="1.28682171"></rect>
                        <rect id="Rectangle-12-Copy-12" fill="#FFF9F0" x="1.92810458" y="241.922481" width="35.9912854" height="1.28682171"></rect>
                        <rect id="Rectangle-12-Copy-13" fill="#FFF9F0" x="1.92810458" y="254.147287" width="36.6339869" height="1.28682171"></rect>
                        <rect id="Rectangle-12-Copy-14" fill="#FFF9F0" x="1.28540305" y="265.085271" width="37.2766885" height="1.28682171"></rect>
                        <rect id="Rectangle-12-Copy-15" fill="#FFF9F0" x="0.642701525" y="276.023256" width="38.5620915" height="1.28682171"></rect>
                        <rect id="Rectangle-12-Copy-16" fill="#FFF9F0" x="0.642701525" y="286.317829" width="39.8474946" height="1.28682171"></rect>
                        <rect id="Rectangle-12-Copy-17" fill="#FFF9F0" x="0.642701525" y="295.968992" width="38.5620915" height="1.28682171"></rect>
                        <rect id="Rectangle-12-Copy-18" fill="#FFF9F0" x="0.642701525" y="304.976744" width="38.5620915" height="1.28682171"></rect>
                        <rect id="Rectangle-12-Copy-19" fill="#FFF9F0" x="0" y="314.627907" width="39.8474946" height="1.28682171"></rect>
                        <ellipse id="Oval-5" fill="#FFF9F0" cx="19.2810458" cy="63.6976744" rx="1.92810458" ry="1.93023256"></ellipse>
                        <ellipse id="Oval-5-Copy" fill="#FFF9F0" cx="19.2810458" cy="108.093023" rx="1.92810458" ry="1.93023256"></ellipse>
                        <ellipse id="Oval-5-Copy" fill="#FFF9F0" cx="19.2810458" cy="145.410853" rx="1.92810458" ry="1.93023256"></ellipse>
                        <rect id="Rectangle-12-Copy" fill="#FFF9F0" x="6.42701525" y="52.1162791" width="27.6361656" height="1.28682171"></rect>
                    </g>
                    <g id="headstock" transform="translate(116.971678, 0.000000)">
                        <path d="M7.0844069,30.2403101 C7.09909703,30.2403101 7.7124183,34.0125372 7.7124183,34.0125372 L9.64052288,34.012537 L9.64052288,37.2295913 C9.64052288,37.2295913 7.7124183,37.2295915 7.7124183,37.2295914 C7.7124183,37.2295913 7.7124183,41.7334675 7.06971678,41.7334674 C6.42701525,41.7334673 1.92810458,41.7334675 1.28540305,41.0900566 C0.642701525,40.4466458 0,35.2993589 0,35.2993589 C0,35.2993589 0.642701525,30.2403101 1.28540305,30.2403101 C1.92810458,30.2403101 7.06971678,30.2403101 7.0844069,30.2403101 Z M9.01251148,50.8294574 C9.0272016,50.8294574 9.64052288,54.6016844 9.64052288,54.6016844 L11.5686275,54.6016843 L11.5686275,57.8187386 C11.5686275,57.8187386 9.64052288,57.8187388 9.64052288,57.8187387 C9.64052288,57.8187386 9.64052288,62.3226148 8.99782135,62.3226147 C8.35511983,62.3226146 3.85620915,62.3226148 3.21350763,61.6792039 C2.5708061,61.0357931 1.92810458,55.8885061 1.92810458,55.8885061 C1.92810458,55.8885061 2.5708061,50.8294574 3.21350763,50.8294574 C3.85620915,50.8294574 8.99782135,50.8294574 9.01251148,50.8294574 Z M8.36980995,72.7054264 C8.38450008,72.7054264 8.99782135,76.4776534 8.99782135,76.4776534 L10.9259259,76.4776533 L10.9259259,79.6947076 C10.9259259,79.6947076 8.99782135,79.6947078 8.99782135,79.6947077 C8.99782135,79.6947076 8.99782135,84.1985838 8.35511983,84.1985837 C7.7124183,84.1985836 3.21350763,84.1985838 2.5708061,83.5551729 C1.92810458,82.9117621 1.28540305,77.7644751 1.28540305,77.7644751 C1.28540305,77.7644751 1.92810458,72.7054264 2.5708061,72.7054264 C3.21350763,72.7054264 8.35511983,72.7054264 8.36980995,72.7054264 Z M53.6508872,31.5271318 C53.6655773,31.5271318 58.8071895,31.5271318 59.4498911,31.5271318 C60.0925926,31.5271318 60.7352941,36.5861806 60.7352941,36.5861806 C60.7352941,36.5861806 60.0925926,41.7334675 59.4498911,42.3768784 C58.8071895,43.0202892 54.3082789,43.020289 53.6655773,43.0202891 C53.0228758,43.0202892 53.0228758,38.516413 53.0228758,38.5164131 C53.0228758,38.5164132 51.0947712,38.516413 51.0947712,38.516413 L51.0947712,35.2993587 L53.0228758,35.2993589 C53.0228758,35.2993589 53.6361971,31.5271318 53.6508872,31.5271318 Z M52.3654842,52.1162791 C52.3801743,52.1162791 57.5217865,52.1162791 58.164488,52.1162791 C58.8071895,52.1162791 59.4498911,57.1753279 59.4498911,57.1753279 C59.4498911,57.1753279 58.8071895,62.3226148 58.164488,62.9660256 C57.5217865,63.6094365 53.0228758,63.6094363 52.3801743,63.6094364 C51.7374728,63.6094365 51.7374728,59.1055603 51.7374728,59.1055604 C51.7374728,59.1055605 49.8093682,59.1055603 49.8093682,59.1055603 L49.8093682,55.888506 L51.7374728,55.8885061 C51.7374728,55.8885061 52.350794,52.1162791 52.3654842,52.1162791 Z M53.0081857,73.9922481 C53.0228758,73.9922481 58.164488,73.9922481 58.8071895,73.9922481 C59.4498911,73.9922481 60.0925926,79.0512968 60.0925926,79.0512968 C60.0925926,79.0512968 59.4498911,84.1985838 58.8071895,84.8419946 C58.164488,85.4854055 53.6655773,85.4854053 53.0228758,85.4854054 C52.3801743,85.4854055 52.3801743,80.9815293 52.3801743,80.9815294 C52.3801743,80.9815295 50.4520697,80.9815293 50.4520697,80.9815293 L50.4520697,77.764475 L52.3801743,77.7644751 C52.3801743,77.7644751 52.9934956,73.9922481 53.0081857,73.9922481 Z" id="Combined-Shape" fill="#929294"></path>
                        <path d="M5.1416122,15.4418605 C6.42701525,19.9457364 10.1304941,35.9939104 10.9259259,54.1497723 C11.7213578,72.3056342 8.99782133,90.1807829 8.99782133,90.1807829 C8.99782133,90.1807829 13.5007061,95.037851 15.4248366,100.372093 C17.3489671,105.706335 16.7102397,113.343576 16.7102397,113.343576 L43.0610022,113.343576 C43.0610022,113.343576 41.907088,106.395719 44.3464052,100.372096 C46.7857224,94.3484734 52.7015251,90.1807849 52.7015251,90.1807849 C52.7015251,90.1807849 50.7734205,79.8862064 50.7734205,54.1497723 C50.7734205,28.4133382 56.5577342,17.4753565 56.5577342,14.9017131 C46.2745098,10.3978371 42.4183007,0.746674319 37.91939,0.746674319 C33.4204793,0.746674319 33.4204793,1.93023251 30.8496732,1.93023249 C28.2788671,1.93023248 26.3507625,0.103263471 23.1372549,0.746674323 C19.9237472,1.39008518 15.4248366,9.65116279 5.1416122,15.4418605 Z" id="Path-25" fill="#1B1D1A"></path>
                        <path d="M16.7102397,39.248062 C14.9354684,39.248062 13.496732,37.8077378 13.496732,36.0310078 C13.496732,34.2542777 14.9354684,32.8139535 16.7102397,32.8139535 C18.4850109,32.8139535 19.9237473,34.2542777 19.9237473,36.0310078 C19.9237473,37.8077378 18.4850109,39.248062 16.7102397,39.248062 Z M42.4183007,39.248062 C40.6435294,39.248062 39.204793,37.8077378 39.204793,36.0310078 C39.204793,34.2542777 40.6435294,32.8139535 42.4183007,32.8139535 C44.1930719,32.8139535 45.6318083,34.2542777 45.6318083,36.0310078 C45.6318083,37.8077378 44.1930719,39.248062 42.4183007,39.248062 Z M17.9956427,59.8372093 C16.2208714,59.8372093 14.7821351,58.396885 14.7821351,56.620155 C14.7821351,54.843425 16.2208714,53.4031008 17.9956427,53.4031008 C19.770414,53.4031008 21.2091503,54.843425 21.2091503,56.620155 C21.2091503,58.396885 19.770414,59.8372093 17.9956427,59.8372093 Z M43.7037037,59.8372093 C41.9289324,59.8372093 40.4901961,58.396885 40.4901961,56.620155 C40.4901961,54.843425 41.9289324,53.4031008 43.7037037,53.4031008 C45.478475,53.4031008 46.9172113,54.843425 46.9172113,56.620155 C46.9172113,58.396885 45.478475,59.8372093 43.7037037,59.8372093 Z M17.9956427,83 C16.2208714,83 14.7821351,81.5596757 14.7821351,79.7829457 C14.7821351,78.0062157 16.2208714,76.5658915 17.9956427,76.5658915 C19.770414,76.5658915 21.2091503,78.0062157 21.2091503,79.7829457 C21.2091503,81.5596757 19.770414,83 17.9956427,83 Z M44.3464052,83 C42.571634,83 41.1328976,81.5596757 41.1328976,79.7829457 C41.1328976,78.0062157 42.571634,76.5658915 44.3464052,76.5658915 C46.1211765,76.5658915 47.5599129,78.0062157 47.5599129,79.7829457 C47.5599129,81.5596757 46.1211765,83 44.3464052,83 Z" id="Combined-Shape" fill="#929294"></path>
                        <path d="M16.7102397,37.9612403 C15.6453769,37.9612403 14.7821351,37.0970458 14.7821351,36.0310078 C14.7821351,34.9649697 15.6453769,34.1007752 16.7102397,34.1007752 C17.7751024,34.1007752 18.6383442,34.9649697 18.6383442,36.0310078 C18.6383442,37.0970458 17.7751024,37.9612403 16.7102397,37.9612403 Z M42.4183007,37.9612403 C41.3534379,37.9612403 40.4901961,37.0970458 40.4901961,36.0310078 C40.4901961,34.9649697 41.3534379,34.1007752 42.4183007,34.1007752 C43.4831634,34.1007752 44.3464052,34.9649697 44.3464052,36.0310078 C44.3464052,37.0970458 43.4831634,37.9612403 42.4183007,37.9612403 Z M17.9956427,58.5503876 C16.9307799,58.5503876 16.0675381,57.686193 16.0675381,56.620155 C16.0675381,55.554117 16.9307799,54.6899225 17.9956427,54.6899225 C19.0605055,54.6899225 19.9237473,55.554117 19.9237473,56.620155 C19.9237473,57.686193 19.0605055,58.5503876 17.9956427,58.5503876 Z M43.7037037,58.5503876 C42.638841,58.5503876 41.7755991,57.686193 41.7755991,56.620155 C41.7755991,55.554117 42.638841,54.6899225 43.7037037,54.6899225 C44.7685665,54.6899225 45.6318083,55.554117 45.6318083,56.620155 C45.6318083,57.686193 44.7685665,58.5503876 43.7037037,58.5503876 Z M17.9956427,81.7131783 C16.9307799,81.7131783 16.0675381,80.8489837 16.0675381,79.7829457 C16.0675381,78.7169077 16.9307799,77.8527132 17.9956427,77.8527132 C19.0605055,77.8527132 19.9237473,78.7169077 19.9237473,79.7829457 C19.9237473,80.8489837 19.0605055,81.7131783 17.9956427,81.7131783 Z M44.3464052,81.7131783 C43.2815425,81.7131783 42.4183007,80.8489837 42.4183007,79.7829457 C42.4183007,78.7169077 43.2815425,77.8527132 44.3464052,77.8527132 C45.411268,77.8527132 46.2745098,78.7169077 46.2745098,79.7829457 C46.2745098,80.8489837 45.411268,81.7131783 44.3464052,81.7131783 Z" id="Combined-Shape" fill="#595959"></path>
                        <g id="Epiphone" transform="translate(29.978843, 19.069793) rotate(-10.000000) translate(-29.978843, -19.069793) translate(12.304551, 13.279096)" fill="#FFF8E7">
                            <path d="M14.2913912,3.79561377 L13.9138272,5.56881415 C13.9138272,5.56881415 13.8685195,5.76579211 14.0497502,5.64457491 C14.1920322,5.54927585 14.8744294,4.98705131 15.1611792,4.74980053 L15.4546855,3.78026225 L16.7690054,3.78026225 L15.8465571,6.82664204 L16.31573,6.82664204 L17.1012617,3.87117515 C17.1012617,3.87117515 16.9049285,3.81076592 17.0408515,3.64389289 C17.1767745,3.47721923 17.8867934,3.49237138 17.8867934,3.49237138 C18.4155816,3.59843644 18.2643574,4.06835248 18.2643574,4.06835248 C18.2643574,4.06835248 18.0477549,5.07796422 17.8615562,5.90036714 C18.0747805,5.96735559 18.5381906,6.02616986 18.7327354,5.37163682 C18.9894788,4.50776486 20.3944141,0.12779643 20.3944141,0.12779643 L21.4821957,0.12779643 L20.3755359,4.04701985 C20.6537409,3.96467987 21.6606443,3.67001042 21.9201698,3.64389289 C22.2210287,3.61378796 22.4316696,4.06396634 22.3295286,4.47167881 C22.3752337,4.44596003 22.434253,4.40130106 22.5093683,4.32593905 C22.7510092,4.08350463 23.1287719,3.55297999 23.8538934,3.55297999 C24.5790148,3.55297999 24.5639123,3.856023 24.5639123,3.91683098 C24.5639123,3.97743958 24.5639123,4.14411324 24.1257394,4.20472184 C24.1257394,4.20472184 23.9747138,4.17441754 23.8387908,4.62918143 C23.7028678,5.08374596 23.3704128,6.37187814 23.3704128,6.37187814 C23.3704128,6.37187814 23.2193872,6.78118558 23.5820473,6.78118558 C23.9445087,6.78118558 24.0049189,6.72057698 24.1257394,6.35672599 C24.2465598,5.99307437 24.7300404,4.00774388 24.7300404,4.00774388 C24.7300404,4.00774388 24.6092199,3.8257187 24.6092199,3.7348058 C24.6092199,3.64389289 25.016989,3.61358859 25.1833158,3.61358859 C25.349444,3.61358859 25.893136,3.71965365 25.8025207,4.25017829 C25.7476746,4.5721615 25.5664439,5.32677848 25.390976,5.96017826 C25.5582965,5.9679537 25.9110207,5.94243429 26.4910781,5.55804815 L27.0451035,3.6249527 L28.1100325,3.6249527 L27.9858338,4.06835248 C28.3141158,4.0797166 28.8464809,3.6249527 29.4470063,3.6249527 C30.0475317,3.6249527 29.8889548,4.38654765 29.8547753,4.48882467 C29.8529869,4.49440704 29.8466279,4.5155403 29.8358971,4.55062949 C29.9205509,4.55082886 30.0580637,4.52052456 30.2323393,4.37518354 C30.3054674,4.11480579 30.3533584,3.94334724 30.3533584,3.94334724 C30.3533584,3.94334724 30.4666276,3.55676802 31.1237876,3.55676802 L33.1292483,3.55676802 C33.1292483,3.55676802 33.6051775,3.54540391 33.537216,4.04562426 C33.4692545,4.54564523 33.1858828,5.7847323 33.1858828,5.7847323 L31.2370568,5.7847323 C31.2370568,5.7847323 30.6367301,6.87588653 31.1579671,6.87588653 C31.6790053,6.87588653 31.996159,6.61451193 32.1096269,6.45541434 C32.1096269,6.45541434 32.6535177,6.37566618 32.9819983,6.45541434 C32.9819983,6.45541434 32.9366906,6.92194109 32.6535177,7.34261265 L30.0928393,7.34261265 C30.0928393,7.34261265 29.3790448,7.30792219 29.628237,6.47814257 C29.7403138,6.10551928 29.8976984,5.55685193 30.037397,5.06520451 C29.923333,5.11624333 29.7520382,5.19738709 29.6163139,5.28132203 C29.1578718,6.80989492 28.2008466,10.0131792 28.2008466,10.0131792 L28.3367696,10.0131792 L28.6425964,9.54725058 L29.0392372,9.54725058 C29.2317948,9.54725058 29.1411795,9.74044051 29.1411795,9.74044051 C29.1411795,9.74044051 28.8125001,10.3883943 28.6086156,10.7179536 C28.4047311,11.0477123 28.0873787,11.0590764 28.0873787,11.0590764 L26.9431612,11.0590764 C26.6599883,11.0590764 26.7732575,10.7406818 26.7732575,10.7406818 C26.7732575,10.7406818 28.1213594,6.08019924 28.280135,5.54588656 C28.4387119,5.01177324 28.4273849,4.94358856 28.4273849,4.94358856 C28.4273849,4.94358856 28.3820773,4.85267566 28.1668658,4.93222445 C28.0400838,4.97907649 27.8314301,5.0807554 27.6808019,5.15671553 L27.0904112,7.34261265 L26.0026296,7.34261265 L26.2677192,6.3377858 C26.0994052,6.41514152 25.6254631,6.61231885 25.1992133,6.6025497 C25.1588736,6.72436502 25.1225082,6.822854 25.0925018,6.88725064 C24.881066,7.34201453 24.636643,7.34879313 23.6573614,7.34261265 C22.7208041,7.33663153 22.5206952,7.34261265 22.5206952,7.34261265 C22.5206952,7.34261265 21.9805801,7.0842286 22.2375223,6.12944373 L22.4640606,5.28072392 C22.4640606,5.28072392 22.475785,5.01655813 22.072189,5.30205655 C21.7965673,6.15277007 21.4064842,7.34261265 21.4064842,7.34261265 L20.1527732,7.34261265 L20.7872793,5.02313735 C20.7872793,5.02313735 21.039651,4.34747105 20.0973309,5.03151091 L19.4578568,7.34261265 L18.2945625,7.34261265 L18.4306842,6.44783827 C18.4306842,6.44783827 18.0376203,6.59098622 17.6852935,6.65498412 C17.6701909,6.71559272 17.6525051,6.76742903 17.6451525,6.81148989 C17.5507615,7.37231884 17.1767745,7.34261265 17.1767745,7.34261265 L15.6903649,7.34261265 L14.593641,11.0401362 L13.2793211,11.0401362 L14.7959358,5.95579211 C14.3732629,6.29631676 13.245539,7.19846784 13.0376802,7.29655808 C12.780738,7.41777529 12.4369561,7.59142691 12.267251,7.29655808 C12.1615331,7.11273857 12.2823536,6.61451193 12.2823536,6.61451193 L11.5308026,6.7696221 C11.5121231,6.84598097 11.4942385,6.91117509 11.4817193,6.96301139 C11.3730206,7.41019921 11.0133413,7.34261265 11.0133413,7.34261265 L9.52693171,7.34261265 L8.43020783,11.0401362 L7.1158879,11.0401362 L8.2974643,7.21342062 C8.04469518,7.28738704 6.24272161,7.86675744 4.97072858,7.85718766 C3.83068421,7.8488141 1.70420438,7.63847833 1.61994801,4.4623084 L0.151820446,4.4623084 L0.287743463,3.91423916 L1.67737747,3.91423916 C1.76719794,3.53762847 2.0314927,2.81969564 2.55372324,2.14343122 C3.30368444,1.17249735 4.21540199,0.559632727 6.07361271,0.559632727 C6.07361271,0.559632727 7.89386832,0.597513104 9.13267547,1.72654771 L8.45286167,2.24949628 C8.45286167,2.24949628 7.05547767,1.34016786 5.99790121,1.34016786 C4.98583114,1.34016786 3.80167141,1.93548789 3.40721645,3.91423916 L8.50572062,3.91423916 L8.21857331,4.4623084 L3.29772291,4.4623084 C3.09860761,6.31346261 5.25370282,7.15081832 6.49648432,6.94785924 C6.49648432,6.94785924 7.59976589,6.89103868 8.55738726,6.35552977 L9.29125232,3.93198313 L10.6053735,3.93198313 L9.68292523,6.97816354 L10.1522968,6.97816354 L10.9378285,4.02289603 C10.9378285,4.02289603 10.7414953,3.96228743 10.8774183,3.79561377 C11.0133413,3.62874074 11.7233602,3.64389289 11.7233602,3.64389289 C12.2521485,3.74995795 12.1009242,4.21987399 12.1009242,4.21987399 C12.1009242,4.21987399 11.8863089,5.22111217 11.7007064,6.04132201 C11.7577384,6.07162631 11.8429884,6.09913943 11.9650011,6.09913943 C11.9650011,6.09913943 12.7533149,6.21098623 13.0980904,3.79561377 L14.2913912,3.79561377 Z M31.6261463,4.32593905 L31.3769541,5.24304291 C31.3769541,5.24304291 31.399608,5.31122759 31.4675695,5.31122759 L31.7998258,5.31122759 C31.7998258,5.31122759 31.8526847,5.29607544 31.867986,5.25041962 C31.8830885,5.20496316 32.09055,4.38654765 32.09055,4.38654765 C32.09055,4.38654765 32.1096269,4.30699886 32.056768,4.30699886 L31.6865566,4.30699886 C31.6865566,4.30699886 31.6450245,4.30699886 31.6261463,4.32593905 Z" id="Combined-Shape"></path>
                            <path d="M14.1177117,2.64484779 C14.6043718,2.64484779 14.9990255,2.24909754 14.9990255,1.76083942 C14.9990255,1.27238192 14.6043718,0.876631671 14.1177117,0.876631671 C13.6310517,0.876631671 13.236398,1.27238192 13.236398,1.76083942 C13.236398,2.24909754 13.6310517,2.64484779 14.1177117,2.64484779" id="Fill-3"></path>
                            <path d="M33.6008057,6.91914991 C33.6008057,6.49987394 33.9398184,6.19065045 34.3404336,6.19065045 C34.7370745,6.19065045 35.0760871,6.49987394 35.0760871,6.91914991 C35.0760871,7.34241327 34.7370745,7.6514374 34.3404336,7.6514374 C33.9398184,7.6514374 33.6008057,7.34241327 33.6008057,6.91914991" id="Fill-5"></path>
                            <path d="M34.1862286,7.34241327 L34.0592478,7.34241327 L34.0592478,6.49987394 L34.3787862,6.49987394 C34.5771066,6.49987394 34.6754719,6.57324225 34.6754719,6.73951717 C34.6754719,6.8902412 34.5810809,6.95583406 34.4578759,6.97138495 L34.696536,7.34241327 L34.5540553,7.34241327 L34.3326836,6.97716669 L34.1862286,6.97716669 L34.1862286,7.34241327" id="Fill-7"></path>
                        </g>
                        <path d="M23.1372549,101.015504 C21.8518519,110.023255 21.8518519,113.240309 21.8518519,113.240309 L39.2171481,113.24031 C39.2171481,113.24031 38.5836436,106.070205 37.2766884,99.0852713 C36.1550125,93.0905503 34.3600159,87.1576278 34.0631808,86.8604651 C33.4204793,86.2170543 32.7777778,88.7906976 30.2069717,88.7906977 C27.6361656,88.7906977 27.6361656,86.8604651 26.9934641,86.8604651 C26.3507625,86.8604651 23.1372549,98.4418605 23.1372549,101.015504 Z" id="Path-27" stroke="#FFF8E7"></path>
                        <path d="M30.2069667,50.8477291 C28.942279,51.0086073 27.3148846,52.205854 27.912848,53.4031008 C27.912848,53.4031008 27.0958508,53.1086662 26.627445,54.0465116 C26.3001754,54.7017731 26.743969,55.0695692 26.602703,55.4511728 C26.5417815,55.6157408 26.3720507,55.7828767 25.9847435,55.9767439 C24.6993405,56.6201545 25.0469581,59.7946882 25.3420419,61.124031 C25.6371258,62.4533739 26.627445,61.7674422 26.627445,62.4108531 C26.627445,64.3410856 27.9128481,64.3410856 27.912848,64.3410853 C26.627445,64.9844965 27.7873965,66.0201382 27.9128481,66.2713182 C27.9706229,66.3869954 29.198251,66.9147287 29.198251,66.9147287 L30.2069717,66.9147287 L30.4519859,66.9147287 C30.7987822,66.9147287 31.4923747,66.9147287 31.4923747,66.9147287 C31.4923747,66.9147287 32.7200029,66.3869954 32.7777777,66.2713182 C32.9032292,66.0201382 34.0631807,64.9844965 32.7777777,64.3410853 C32.7777777,64.3410856 34.0631807,64.3410856 34.0631807,62.4108531 C34.0631807,61.7674422 35.0535,62.4533739 35.3485838,61.124031 C35.6436677,59.7946882 35.9912853,56.6201545 34.7058823,55.9767439 C34.3185751,55.7828767 34.1488443,55.6157408 34.0879228,55.4511728 C33.9466568,55.0695692 34.3904503,54.7017731 34.0631808,54.0465116 C33.594775,53.1086662 32.7777778,53.4031008 32.7777777,53.4031008 C33.3757439,52.2058486 31.7483321,51.0085966 30.483642,50.847727 C30.4836501,50.8413964 30.4836541,50.8353059 30.4836541,50.8294574 C30.4382936,50.8294574 30.3921328,50.8310599 30.3453129,50.8342083 C30.2984929,50.8310599 30.2523321,50.8294574 30.2069717,50.8294574 C30.2069717,50.8353065 30.20697,50.8413978 30.2069667,50.8477291 Z" id="Combined-Shape" fill="#929294"></path>
                    </g>
                    <g id="strings" transform="translate(129.825708, 34.100775)" stroke="#979797">
                        <path d="M4.49891068,22.5193798 L10.2832244,79.1395349" id="Line" stroke-linecap="square"></path>
                        <path d="M24.422658,22.5193798 L28.2788671,79.1395349" id="Line-Copy-7" stroke-linecap="square" transform="translate(26.350763, 50.829457) scale(-1, 1) translate(-26.350763, -50.829457) "></path>
                        <path d="M6.42701525,0.643410853 L15.1034858,78.8178295" id="Line-Copy-6" stroke-linecap="square"></path>
                        <path d="M19.2810458,0 L26.9934641,78.8178295" id="Line-Copy-8" stroke-linecap="square" transform="translate(23.137255, 39.408915) scale(-1, 1) translate(-23.137255, -39.408915) "></path>
                        <path d="M28.9215686,45.0387597 L28.9215686,79.1395349" id="Path-34"></path>
                        <path d="M2.5708061,45.6821705 L5.1416122,79.1395349" id="Path-35" stroke-width="2"></path>
                        <path d="M5.46296296,79.1395349 L0,564.914729" id="Line" stroke-width="2" stroke-linecap="square"></path>
                        <path d="M10.6045752,79.1395349 L6.42701525,565.55814" id="Line-Copy" stroke-linecap="square"></path>
                        <path d="M19.6023965,79.1395349 L22.4945534,564.914729" id="Line-Copy-2" stroke-linecap="square"></path>
                        <path d="M15.1034858,79.1395349 L14.7821351,564.914729" id="Line-Copy-5" stroke-linecap="square"></path>
                        <path d="M24.7440087,79.1395349 L28.9215686,565.55814" id="Line-Copy-3" stroke-linecap="square"></path>
                        <path d="M29.2429194,79.1395349 L35.9912854,564.914729" id="Line-Copy-4" stroke-linecap="square"></path>
                    </g>
                    <g id="hardware" transform="translate(114.400871, 553.976744)" fill="#EBDED0">
                        <path d="M1.92810458,10.2318861 C1.92810458,6.91770717 4.61062066,4.03315707 7.92156821,3.78892326 L56.9912858,0.169269368 C60.3013844,-0.0749018172 62.9847495,2.40909459 62.9847495,5.72801016 L62.9847495,6.59452355 C62.9847495,9.9087025 60.3022334,12.7932526 56.9912858,13.0374864 L7.92156821,16.6571403 C4.61146964,16.9013115 1.92810458,14.4173151 1.92810458,11.0983995 L1.92810458,10.2318861 Z" id="Rectangle-2"></path>
                        <path d="M3.88002542e-16,48.4018344 C1.73714655e-16,46.1891135 4.09111094e-16,42.6065275 3.88002542e-16,40.3888632 L4.09111094e-16,42.6065275 C1.83165276e-16,40.3963522 1.78719721,38.6046512 4.00727355,38.6046512 L64.1190881,38.6046512 C66.3322442,38.6046512 68.1263617,40.3888632 68.1263617,42.6065275 L68.1263617,46.1841702 C68.1263617,48.3943454 66.3391644,50.1860465 64.1190881,50.1860465 L4.00727355,50.1860465 C1.79411748,50.1860465 3.88002542e-16,48.4018344 4.09111094e-16,46.1841702 L3.88002542e-16,48.4018344 Z" id="Rectangle-3"></path>
                    </g>
                </g>
            </g>
        </g>
    </g>
</svg>
