<?xml version="1.0" encoding="UTF-8" standalone="no"?>
<svg viewBox="0 0 204 208" version="1.1" xmlns="http://www.w3.org/2000/svg" xmlns:xlink="http://www.w3.org/1999/xlink">
    <!-- Generator: Sketch 42 (36781) - http://www.bohemiancoding.com/sketch -->
    <title>example</title>
    <desc>Created with Sketch.</desc>
    <defs>
        <linearGradient x1="50%" y1="0%" x2="50%" y2="100%" id="linearGradient-1">
            <stop stop-color="#44B4E4" offset="0%"></stop>
            <stop stop-color="#56C1EA" offset="53.5674426%"></stop>
            <stop stop-color="#44B4E4" offset="100%"></stop>
        </linearGradient>
        <rect id="path-2" x="0" y="0" width="204" height="204" rx="14"></rect>
        <filter x="-50%" y="-50%" width="200%" height="200%" filterUnits="objectBoundingBox" id="filter-3">
            <feOffset dx="0" dy="4" in="SourceAlpha" result="shadowOffsetOuter1"></feOffset>
            <feColorMatrix values="0 0 0 0 0.0799399655   0 0 0 0 0.480462561   0 0 0 0 0.657684949  0 0 0 1 0" type="matrix" in="shadowOffsetOuter1"></feColorMatrix>
        </filter>
        <text id="text-4" font-family="NunitoSans-Bold, Nunito Sans" font-size="22" font-weight="bold" fill="#FFFFFF">
            <tspan x="36" y="170">Search </tspan>
            <tspan x="111.372" y="170" font-family="NunitoSans-Light, Nunito Sans" font-weight="300" fill-opacity="0.927507926">plugin</tspan>
        </text>
        <filter x="-50%" y="-50%" width="200%" height="200%" filterUnits="objectBoundingBox" id="filter-5">
            <feOffset dx="0" dy="1" in="SourceAlpha" result="shadowOffsetOuter1"></feOffset>
            <feColorMatrix values="0 0 0 0 0   0 0 0 0 0   0 0 0 0 0  0 0 0 0.247707201 0" type="matrix" in="shadowOffsetOuter1"></feColorMatrix>
        </filter>
        <path d="M126.878508,21.4241837 C122.620936,13.8520359 115.486148,10.4428999 104.937536,9.98249083 C95.7039698,10.0861707 87.5100846,15.5847204 81.8562685,20.2696465 C73.6359058,8.74360379 61.1667966,1.81813738 42.2530783,0.588036776 C19.2759556,-0.90389953 4.44152829,11.4902427 1.04535527,25.0758253 C-1.2175833,34.143424 1.12831792,51.1873465 40.5232189,67.758559 C58.0053902,75.1145606 66.5293608,88.7897648 68.7958297,92.9562912 C71.0552379,97.1228177 71.4982938,104.08343 73.1398951,103.969206 C74.7814964,103.858497 75.9888677,98.0559369 77.6604767,95.5588327 C81.6091457,89.6508352 89.9460091,79.924254 96.7471809,75.5046782 C106.11843,69.4139229 115.113699,61.1089866 121.754241,52.6827974 C128.456564,44.1757731 131.762713,30.1297815 126.878508,21.4241837" id="path-6"></path>
        <filter x="-50%" y="-50%" width="200%" height="200%" filterUnits="objectBoundingBox" id="filter-7">
            <feOffset dx="0" dy="1" in="SourceAlpha" result="shadowOffsetOuter1"></feOffset>
            <feGaussianBlur stdDeviation="2" in="shadowOffsetOuter1" result="shadowBlurOuter1"></feGaussianBlur>
            <feColorMatrix values="0 0 0 0 0   0 0 0 0 0   0 0 0 0 0  0 0 0 0.318727355 0" type="matrix" in="shadowBlurOuter1"></feColorMatrix>
        </filter>
    </defs>
    <g id="Page-1" stroke="none" stroke-width="1" fill="none" fill-rule="evenodd">
        <g id="take-two" transform="translate(-804.000000, -3550.000000)">
            <g id="featured-work" transform="translate(130.000000, 2779.000000)">
                <g id="personal-project-2" transform="translate(40.000000, 699.000000)">
                    <g id="example" transform="translate(634.000000, 72.000000)">
                        <g id="Rectangle-4">
                            <use fill="black" fill-opacity="1" filter="url(#filter-3)" xlink:href="#path-2"></use>
                            <use fill="url(#linearGradient-1)" fill-rule="evenodd" xlink:href="#path-2"></use>
                        </g>
                        <g id="Search-plugin" fill-opacity="1" fill="#FFFFFF">
                            <use filter="url(#filter-5)" xlink:href="#text-4"></use>
                            <use xlink:href="#text-4"></use>
                        </g>
                        <g id="gayl-vertical-logo" transform="translate(33.000000, 27.000000)">
                            <g id="Group-5" transform="translate(1.057103, 0.517296)">
                                <path d="M126.422089,21.0123245 C122.173342,13.448963 115.049146,10.0468562 104.51289,9.58468983 C95.2916796,9.69012703 87.1066202,15.1816476 81.4616299,19.8560299 C73.2518583,8.3458028 60.7986355,1.43263739 41.9096295,0.202536787 C18.9642797,-1.28939952 4.14750405,11.0889271 0.758391679,24.6604514 C-1.50278173,33.7139919 0.839589163,50.7350697 40.1833004,67.2851947 C57.6425246,74.6306526 66.1541391,87.4008541 68.420608,91.563866 C70.6747207,95.7233634 71.1177766,99.0007028 72.7576127,98.8847219 C74.3956837,98.7757702 75.5995246,96.6547253 77.2693685,94.1611356 C81.2180375,88.25841 89.5372493,79.4333168 96.3313605,75.0207702 C105.690253,68.9388013 114.674931,60.6479233 121.306647,52.2305205 C128.000144,43.7340399 131.302764,29.7038639 126.422089,21.0123245" id="Fill-1" fill="#FFFFFF"></path>
                                <path d="M81.0326954,61.4264012 C78.847424,61.2875756 76.9781167,62.8410169 76.6462661,64.9532754 C74.7116478,65.0710136 72.2880794,65.1360332 69.3014242,65.0938583 C69.0701878,63.136241 67.4709504,61.5669841 65.4286572,61.4351876 C63.1251199,61.2875756 61.1357815,63.0290466 60.9910382,65.3275774 C60.8462949,67.6173218 62.5973363,69.5942692 64.8902826,69.7418813 C66.8090144,69.8613768 68.4894493,68.6681792 69.0896046,66.9442811 C71.437271,67.0620193 74.1768035,67.0690484 76.7892443,66.8283002 C77.2923157,68.4186445 78.7256278,69.6188712 80.4890253,69.7295803 C82.7996233,69.8771924 84.7871964,68.1357214 84.933705,65.8424624 C85.0819786,63.5439315 83.3291721,61.5669841 81.0326954,61.4264012" id="Fill-3" fill="#4A4D4C"></path>
                                <path d="M88.1816043,71.2355749 C80.2613193,77.245495 75.9101933,83.837077 73.5378146,88.8523728 C66.1841468,67.6999143 44.2166971,61.7725867 27.3858709,46.7530583 C16.4348015,36.9825449 16.081769,16.1797864 38.7482231,12.7811941 C52.8095091,10.6671784 71.4566878,17.7578297 80.8032243,32.0603852 C80.8032243,32.0603852 81.1721433,32.7773581 81.4757512,32.3345219 C105.612586,-1.02229196 132.284194,37.7750811 88.1816043,71.2355749 M103.914499,15.4856582 C89.0006398,14.7458405 83.0308596,26.0135621 81.0326954,31.4101891 C53.2013752,-25.1621377 -42.9894005,24.2439745 43.1346524,63.7671069 C60.1808285,71.5887895 68.4735629,83.0304824 72.457535,91.3547489 C75.9913908,97.916457 75.0999836,93.9362029 74.0832499,90.5305815 C76.2949987,86.8279787 79.6929369,82.1360235 84.4535807,78.1575267 C94.004876,70.1653874 109.134085,59.3457739 116.662504,48.4980438 C124.189158,37.6591002 123.465441,16.4539231 103.914499,15.4856582" id="Fill-4" fill="#3FACD2"></path>
                            </g>
                            <path d="M88.50793,56.0058263 C85.8972544,55.6280097 83.2724575,55.3573876 80.6494257,55.1816589 C80.977746,53.7266256 81.3660818,51.570435 81.9115171,48.3176976 C83.6872707,48.3897463 85.5265702,48.4688242 87.3870517,48.565475 C89.4558224,48.6779413 90.829119,48.7359318 91.8211404,48.7570192 C90.6137691,51.1240842 89.5070121,53.5403533 88.50793,56.0058263 L88.50793,56.0058263 Z M70.2932162,55.0481052 C70.3514666,54.6878614 70.4026563,54.3065302 70.4573763,53.8812669 C70.7292114,51.9377079 70.8969019,50.0029354 70.9604477,48.1156096 C73.0309836,48.112095 75.3151041,48.1296679 77.6768918,48.1876583 C77.4933148,49.9449449 77.3874051,51.7988823 77.3697534,53.7072955 C77.3662231,54.1835202 77.3662231,54.6122981 77.3679883,55.0217459 C75.0097309,54.9461825 72.6532387,54.9567262 70.2932162,55.0481052 L70.2932162,55.0481052 Z M65.8909005,34.2892788 L66.005636,34.5475999 C66.5140029,35.7179528 66.8493838,38.8582239 67.0170743,43.8524324 C62.7965703,43.8805489 59.5416103,44.1037243 57.2698459,44.5149294 C56.0307017,40.3202863 54.2673041,35.7214674 51.7184092,31.5725137 C55.2081359,32.4072249 60.254736,33.4123928 65.8909005,34.2892788 L65.8909005,34.2892788 Z M81.0359964,36.0518372 C80.3634694,37.2186755 79.1278555,39.7878285 78.2717516,44.1669867 C75.7387431,44.0246464 73.2728108,43.9244811 70.9145535,43.8840635 C70.6744914,39.545323 69.9066456,36.4595277 69.3823923,34.7988919 C73.1845527,35.3243206 77.1561688,35.7706714 81.0359964,36.0518372 L81.0359964,36.0518372 Z M59.3333211,53.4595181 C59.1056151,52.097621 58.7914161,50.47916 58.378368,48.713087 C60.1911901,48.5057272 63.010155,48.2790372 67.1106279,48.1700855 C67.1318098,49.1137484 67.1353402,50.0240228 67.1406357,50.8675204 C67.1618176,52.7794482 67.1829996,54.176491 67.2235983,55.2168047 C64.702946,55.3872615 62.1981801,55.6561263 59.6916491,56.0233992 L59.3333211,53.4595181 L59.3333211,53.4595181 Z M89.26695,36.3769352 C92.3383331,36.3734207 97.1325149,35.7320111 100.207428,35.2276698 C97.718549,38.577058 95.4467846,42.0810875 93.4239081,45.7274571 C91.5863738,45.2652908 87.9748509,44.8347556 82.5540363,44.4358515 L82.5593318,44.4007058 C83.0518122,41.3904739 83.7967108,36.8496453 84.0173561,36.2398669 C85.8125266,36.3312458 87.5706286,36.3769352 89.26695,36.3769352 L89.26695,36.3769352 Z M107.209829,29.3794201 C107.195707,29.3618472 107.163935,29.3548181 107.139222,29.3337306 C107.135692,29.3196723 107.144518,29.2968276 107.133927,29.2757402 C106.985653,29.0736522 106.703227,28.9910598 106.291944,28.9910598 C106.276058,28.9875452 106.261936,28.9910598 106.251345,28.9910598 C105.997162,28.9664577 105.758865,28.9875452 105.520568,29.0631085 C105.229316,29.1105552 105.003375,29.1667884 104.987489,29.170303 L104.902761,29.2036914 C104.848041,29.231808 99.3672109,31.9907479 85.3271069,32.0012917 L85.3253417,32.0012917 C76.9884783,32.0048062 67.361281,31.0505996 56.7085241,29.1492155 C53.1217136,28.5183497 50.7157968,28.1317466 49.1748098,27.9349305 C47.1660546,25.4430982 44.9313587,23.4520925 42.5360329,22.026933 L42.2536069,21.8564762 L42.2430159,21.8617481 C41.8846879,21.677233 41.4769353,21.5331355 41.0321143,21.4470285 C39.1839889,21.0938139 37.470016,21.8968938 37.1928854,23.2500045 C36.91752,24.6013579 38.2007933,25.9773133 40.0365625,26.337557 C40.952682,26.5132857 41.8352633,26.3990621 42.5307374,26.0774786 C43.4892207,26.7979661 44.7354256,27.9191149 46.1104873,29.6359839 L46.1475558,29.7396638 L46.2111016,29.808198 C46.2358139,29.8222563 46.2534655,29.8398292 46.2834733,29.8556448 C49.1500975,33.5143154 53.1358349,40.55752 55.9883378,53.4665472 C56.1524979,54.1729764 56.3184232,54.8249298 56.5002349,55.3872615 C56.7261758,56.0884188 56.71735,56.7737606 56.6573344,57.3677234 C56.5478943,57.647132 56.4878788,57.9458707 56.5390685,58.260425 C56.7032287,59.1953015 57.5699235,59.8121091 58.4719217,59.6680116 C68.8246009,57.9687154 79.3749783,57.9564144 89.7258923,59.6469241 C90.6367162,59.7892643 91.4875247,59.1706995 91.6534499,58.2323084 C91.697579,57.9862883 93.2262099,48.7868931 107.441065,31.7095821 C108.012978,31.0172112 107.933545,29.9962277 107.209829,29.3794201 L107.209829,29.3794201 Z" id="Fill-6" fill="#4A4D4C"></path>
                            <g id="Group-11" transform="translate(0.019945, 0.000000)">
                                <g id="Fill-7">
                                    <use fill="black" fill-opacity="1" filter="url(#filter-7)" xlink:href="#path-6"></use>
                                    <use fill="#FFFFFF" fill-rule="evenodd" xlink:href="#path-6"></use>
                                </g>
                                <path d="M81.4255688,61.8909791 C79.2385322,61.7539107 77.3674597,63.3073521 77.0373743,65.4213678 C75.0956953,65.5426206 72.6703618,65.6093975 69.678411,65.563708 C69.4489399,63.6060908 67.8479373,62.0368339 65.8038789,61.8997655 C63.4968113,61.7539107 61.5039426,63.497139 61.3574341,65.7974272 C61.2144559,68.0924434 62.9672625,70.0711481 65.2637392,70.2222748 C67.1860013,70.3364984 68.8664362,69.1450581 69.4665915,67.4176454 C71.8195534,67.5388982 74.5626162,67.5406554 77.1768222,67.3034218 C77.6816587,68.8955234 79.116736,70.0992647 80.8836638,70.2047019 C83.1960269,70.3540713 85.1853653,68.6090857 85.333639,66.3123121 C85.4819126,64.0155386 83.7255757,62.0368339 81.4255688,61.8909791" id="Fill-9" fill="#4A4D4C"></path>
                                <path d="M88.5850686,71.7124538 C80.6541927,77.7329176 76.2977711,84.333286 73.9236273,89.355611 C66.5611337,68.1750359 44.5636763,62.2424364 27.7081377,47.1965487 C16.7429471,37.4154916 16.3934449,16.5828592 39.0863764,13.1825097 C53.1653141,11.0667366 71.8389702,18.1661744 81.1978628,32.48806 C81.1978628,32.48806 81.5650166,33.2067903 81.8739201,32.7621968 C106.038997,-0.638549256 132.745909,38.2080279 88.5850686,71.7124538 M104.340911,15.8904883 C89.4041041,15.1506707 83.4272633,26.4306932 81.4255688,31.8361067 C53.5589453,-24.8082689 -42.7589221,24.6593483 43.4781012,64.238714 C60.5472244,72.0674257 68.8487846,83.5231769 72.8398174,91.8597444 C76.3772035,98.4302389 75.4857963,94.444713 74.4655323,91.035577 C76.6808114,87.3277023 80.0875754,82.628718 84.8499844,78.6484639 C94.415401,70.6422663 109.564027,59.8103518 117.103037,48.9468061 C124.642047,38.0955615 123.91833,16.8622678 104.340911,15.8904883" id="Fill-10" fill="#2BADD8"></path>
                            </g>
                            <path d="M87.8724715,55.9478359 C85.2600307,55.5700193 82.6317034,55.2976398 80.0033762,55.1219112 C80.3334616,53.6633633 80.7235626,51.5036581 81.2689978,48.2491634 C83.0482818,48.3194548 84.8875814,48.3985327 86.7515932,48.4951835 C88.8238942,48.6111644 90.2007211,48.6673976 91.187447,48.688485 C89.983606,51.0590646 88.8733187,53.4788482 87.8724715,55.9478359 L87.8724715,55.9478359 Z M69.6348105,54.9848428 C69.6912957,54.6281137 69.7442506,54.2467825 69.8007358,53.8197618 C70.0708057,51.8726883 70.2384962,49.9361585 70.302042,48.0488327 C72.3796385,48.0435608 74.663759,48.0611337 77.0273119,48.1156096 C76.8419698,49.878168 76.7395904,51.73562 76.7219387,53.6457905 C76.7166433,54.1237724 76.7166433,54.5525503 76.7201736,54.9602408 C74.3601511,54.8846775 71.9965982,54.8969785 69.6348105,54.9848428 L69.6348105,54.9848428 Z M65.2289645,34.1996572 L65.3401697,34.4614929 C65.8520669,35.6318457 66.1856826,38.7738741 66.3569034,43.776869 C62.1275736,43.8049856 58.8673181,44.028161 56.5920234,44.4393661 C55.3528792,40.2412084 53.5877165,35.6353603 51.0352913,31.4793776 C54.5303134,32.3193605 59.582209,33.3227712 65.2289645,34.1996572 L65.2289645,34.1996572 Z M80.391712,35.9657302 C79.7174198,37.1343258 78.4818059,39.7069933 77.6239369,44.0931806 C75.0838678,43.9508404 72.6197006,43.8506751 70.257913,43.8085002 C70.019616,39.4627305 69.2464747,36.3734207 68.7239866,34.7110276 C72.5314425,35.2382135 76.5101192,35.6863216 80.391712,35.9657302 L80.391712,35.9657302 Z M58.6607941,53.3980131 C58.4330881,52.0343587 58.1188891,50.4141404 57.7058411,48.6445529 C59.516898,48.4336785 62.3429235,48.2087458 66.4469267,48.099794 C66.4681087,49.0452142 66.4751693,49.9572459 66.4786996,50.8007435 C66.4998816,52.7126713 66.5210635,54.1167433 66.5616623,55.1570569 C64.0392448,55.329271 61.5274183,55.5981359 59.0173569,55.9654087 L58.6607941,53.3980131 L58.6607941,53.3980131 Z M88.6332566,36.2943428 C91.70817,36.2873136 96.5076473,35.645904 99.5878562,35.1433201 C97.0954465,38.4944656 94.8236821,42.0020096 92.7972754,45.6554084 C90.9579758,45.193242 87.3429227,44.7591922 81.9132822,44.3620455 L81.9185777,44.3268997 C82.4110581,41.3096387 83.1559568,36.7635383 83.3766021,36.1537599 C85.1753029,36.2451388 86.9351701,36.2943428 88.6332566,36.2943428 L88.6332566,36.2943428 Z M106.599082,29.2827693 C106.584961,29.2669537 106.554953,29.2616819 106.530241,29.2423517 C106.526711,29.2282934 106.533771,29.2001769 106.524946,29.182604 C106.373142,28.980516 106.094246,28.8926517 105.681198,28.8926517 C105.667077,28.8908944 105.652955,28.8926517 105.638834,28.8979236 C105.386416,28.8715643 105.148119,28.8908944 104.908057,28.9664577 C104.61857,29.0191763 104.387334,29.0736522 104.373212,29.0771668 L104.292015,29.108798 C104.23553,29.1369145 98.7476388,31.9011263 84.6898831,31.9116701 L84.688118,31.9116701 C76.3406636,31.9151846 66.6975798,30.960978 56.0307017,29.0560794 C52.4403608,28.4252135 50.0291485,28.0368531 48.4881615,27.840037 C46.475876,25.3446901 44.2411801,23.3484125 41.8405588,21.9232531 L41.5581328,21.7527963 L41.5493069,21.7598255 C41.1856834,21.5735531 40.7832263,21.425941 40.3366402,21.3433486 C38.4867497,20.9883767 36.7674812,21.7932139 36.4885855,23.1498392 C36.2167505,24.5011925 37.5000237,25.8771479 39.3393233,26.239149 C40.2554427,26.4148776 41.138024,26.3024113 41.8352633,25.9790706 C42.797277,26.7013153 44.0417167,27.8224642 45.4220739,29.5393332 L45.455612,29.6465276 L45.5226882,29.7150618 C45.5456353,29.7291201 45.5650521,29.7484503 45.5950598,29.7625086 C48.4634492,33.4229365 52.4544821,40.4784421 55.3122805,53.4050422 C55.4746754,54.1132287 55.644131,54.7669393 55.8241776,55.329271 C56.0501185,56.0304283 56.0412926,56.7157701 55.979512,57.309733 C55.871837,57.5891415 55.8118215,57.8913948 55.8612461,58.2059491 C56.0271713,59.1408256 56.8938662,59.7611478 57.7976295,59.6170503 C68.16443,57.910725 78.7306939,57.9001813 89.093964,59.5942055 C90.004788,59.7365457 90.8591267,59.1144663 91.0232869,58.1760753 C91.0674159,57.9282979 92.597812,48.7201162 106.832084,31.6164459 C107.403997,30.9275896 107.324564,29.9030915 106.599082,29.2827693 L106.599082,29.2827693 Z" id="Fill-12" fill="#4A4D4C"></path>
                        </g>
                    </g>
                </g>
            </g>
        </g>
    </g>
</svg>
