<?xml version="1.0" encoding="UTF-8" standalone="no"?>
<svg viewBox="0 0 204 208" version="1.1" xmlns="http://www.w3.org/2000/svg" xmlns:xlink="http://www.w3.org/1999/xlink">
    <!-- Generator: Sketch 42 (36781) - http://www.bohemiancoding.com/sketch -->
    <title>example</title>
    <desc>Created with Sketch.</desc>
    <defs>
        <rect id="path-1" x="0" y="0" width="204" height="204" rx="14"></rect>
        <filter x="-50%" y="-50%" width="200%" height="200%" filterUnits="objectBoundingBox" id="filter-3">
            <feOffset dx="0" dy="4" in="SourceAlpha" result="shadowOffsetOuter1"></feOffset>
            <feComposite in="shadowOffsetOuter1" in2="SourceAlpha" operator="out" result="shadowOffsetOuter1"></feComposite>
            <feColorMatrix values="0 0 0 0 1   0 0 0 0 0.603921569   0 0 0 0 0.384313725  0 0 0 1 0" type="matrix" in="shadowOffsetOuter1"></feColorMatrix>
        </filter>
    </defs>
    <g id="Page-1" stroke="none" stroke-width="1" fill="none" fill-rule="evenodd">
        <g id="example">
            <mask id="mask-2" fill="white">
                <use xlink:href="#path-1"></use>
            </mask>
            <g id="Rectangle-4">
                <use fill="black" fill-opacity="1" filter="url(#filter-3)" xlink:href="#path-1"></use>
                <use fill-opacity="0.7" fill="#F4B086" fill-rule="evenodd" xlink:href="#path-1"></use>
            </g>
            <g id="danelectro" mask="url(#mask-2)">
                <g transform="translate(153.164333, 31.210369) rotate(40.000000) translate(-153.164333, -31.210369) translate(89.635744, -145.858679)">
                    <path d="M91.8353785,36.7870528 L94.8013356,36.9548985 C94.8013356,36.9548985 95.6397459,38.7655701 95.3018483,40.4926134 C94.9639507,42.2196567 94.4437004,43.292102 94.4437004,43.292102 L91.516924,43.1192504 L90.4469641,41.3059286 L87.8230288,41.1528062 L87.783848,39.3539132 L90.3948212,39.3539132 L91.8353785,36.7870528 Z" id="Path-4-Copy" stroke="none" fill="#C4C4C4" fill-rule="evenodd"></path>
                    <path d="M92.1370412,24.4241908 L95.1029983,24.5920364 C95.1029983,24.5920364 95.9414086,26.4027081 95.603511,28.1297514 C95.2656134,29.8567947 94.7453631,30.92924 94.7453631,30.92924 L91.8185867,30.7563884 L90.7486268,28.9430666 L88.1246915,28.7899442 L88.0855107,26.9910512 L90.6964839,26.9910512 L92.1370412,24.4241908 Z" id="Path-4-Copy-2" stroke="none" fill="#C4C4C4" fill-rule="evenodd"></path>
                    <path d="M61.6691077,23.2180579 L64.6350649,23.3859036 C64.6350649,23.3859036 65.4734751,25.1965752 65.1355775,26.9236185 C64.7976799,28.6506618 64.2774296,29.7231071 64.2774296,29.7231071 L61.3506532,29.5502555 L60.2806933,27.7369337 L57.656758,27.5838114 L57.6175772,25.7849183 L60.2285504,25.7849183 L61.6691077,23.2180579 Z" id="Path-4-Copy-3" stroke="none" fill="#C4C4C4" fill-rule="evenodd" transform="translate(61.416704, 26.470583) scale(-1, 1) translate(-61.416704, -26.470583) "></path>
                    <path d="M63.1774212,11.4582624 L66.1433784,11.626108 C66.1433784,11.626108 66.9817886,13.4367796 66.643891,15.1638229 C66.3059934,16.8908662 65.7857431,17.9633115 65.7857431,17.9633115 L62.8589667,17.79046 L61.7890068,15.9771381 L59.1650715,15.8240158 L59.1258907,14.0251228 L61.736864,14.0251228 L63.1774212,11.4582624 Z" id="Path-4-Copy-5" stroke="none" fill="#C4C4C4" fill-rule="evenodd" transform="translate(62.925018, 14.710787) scale(-1, 1) translate(-62.925018, -14.710787) "></path>
                    <path d="M60.4624569,35.2793867 L63.428414,35.4472324 C63.428414,35.4472324 64.2668242,37.257904 63.9289267,38.9849473 C63.5910291,40.7119906 63.0707787,41.7844359 63.0707787,41.7844359 L60.1440024,41.6115843 L59.0740425,39.7982625 L56.4501072,39.6451401 L56.4109264,37.8462471 L59.0218996,37.8462471 L60.4624569,35.2793867 Z" id="Path-4-Copy-4" stroke="none" fill="#C4C4C4" fill-rule="evenodd" transform="translate(60.210053, 38.531911) scale(-1, 1) translate(-60.210053, -38.531911) "></path>
                    <path d="M90.9303903,12.362862 L93.8963475,12.5307077 C93.8963475,12.5307077 94.7347577,14.3413793 94.3968602,16.0684226 C94.0589626,17.7954659 93.5387122,18.8679112 93.5387122,18.8679112 L90.6119359,18.6950596 L89.541976,16.8817378 L86.9180407,16.7286154 L86.8788599,14.9297224 L89.4898331,14.9297224 L90.9303903,12.362862 Z" id="Path-4" stroke="none" fill="#C4C4C4" fill-rule="evenodd"></path>
                    <rect id="Rectangle" stroke="none" fill="#C4C4C4" fill-rule="evenodd" x="59.7292162" y="350.683135" width="5.12826603" height="2.71379898"></rect>
                    <path d="M67.7026715,200.228543 C50.2905689,196.208981 40.5070713,179.056436 25.3172912,187.983468 C5.27829322,199.760385 30.2586814,226.04749 21.1334889,260.97512 C12.0082964,295.902749 7.92337262,285.074795 0.468415018,319.128035 C-3.11213325,335.483496 13.7103471,347.910921 55.2132068,350.086829 C108.170834,356.360329 119.717661,356.723337 126.039628,337.029333 C130.400776,319.902011 112.64334,299.650284 108.170837,267.949838 C108.170837,234.525592 124.02168,221.447177 112.64334,207.800443 C105.143888,198.805895 90.8933489,205.582082 67.7026715,200.228543 Z" id="Path-2" stroke="none" fill="#FF9862" fill-rule="evenodd"></path>
                    <path d="M39.5319552,266.746768 C39.5319552,266.746767 54.5548751,283.125317 72.1445219,299.207529 C92.8366963,318.126382 112.019329,344.324298 116.909614,341.640084 C125.895678,336.707751 119.344126,314.63696 106.739696,286.311683 C94.2342451,258.683111 115.573339,236.32725 108.035902,227.433787 C100.35647,222.811259 42.076645,252.029946 40.292593,253.183665 C38.508541,254.337383 39.5319552,266.746769 39.5319552,266.746768 Z" id="pickguard" stroke="none" fill="#FFFFFF" fill-rule="evenodd"></path>
                    <rect id="Rectangle-5" stroke="none" fill="#C4C4C4" fill-rule="evenodd" x="50.0760095" y="254.192504" width="33.1828979" height="7.23679727" rx="3.61839864"></rect>
                    <rect id="Rectangle-5-Copy" stroke="none" fill="#C4C4C4" fill-rule="evenodd" x="47.9643705" y="293.994889" width="33.1828979" height="7.23679727" rx="3.61839864"></rect>
                    <ellipse id="Oval" stroke="none" fill="#666666" fill-rule="evenodd" cx="105.88361" cy="317.51448" rx="4.82660333" ry="4.82453152"></ellipse>
                    <ellipse id="Oval-Copy-2" stroke="none" fill="#A7A7A7" fill-rule="evenodd" cx="101.057007" cy="304.247019" rx="3.01662708" ry="3.0153322"></ellipse>
                    <ellipse id="Oval-Copy-3" stroke="none" fill="#666666" fill-rule="evenodd" cx="101.057007" cy="304.247019" rx="1.80997625" ry="1.80919932"></ellipse>
                    <ellipse id="Oval-Copy" stroke="none" fill="#666666" fill-rule="evenodd" cx="113.425178" cy="330.480409" rx="4.82660333" ry="4.82453152"></ellipse>
                    <polygon id="fretboard" stroke="none" fill="#1E1F21" fill-rule="evenodd" transform="translate(72.838558, 147.973044) rotate(3.000000) translate(-72.838558, -147.973044) " points="62.5449679 63.7450382 80.4152385 63.7412575 83.1321476 232.204831 62.6171387 232.204831"></polygon>
                    <ellipse id="Oval-3" stroke="none" fill-opacity="0.8" fill="#FFFFFF" fill-rule="evenodd" cx="74.3598575" cy="97.8475298" rx="1.35748219" ry="1.35689949"></ellipse>
                    <ellipse id="Oval-3-Copy" stroke="none" fill-opacity="0.8" fill="#FFFFFF" fill-rule="evenodd" cx="73.1532067" cy="121.668654" rx="1.35748219" ry="1.35689949"></ellipse>
                    <ellipse id="Oval-3-Copy-2" stroke="none" fill-opacity="0.8" fill="#FFFFFF" fill-rule="evenodd" cx="72.5498812" cy="142.77598" rx="1.35748219" ry="1.35689949"></ellipse>
                    <ellipse id="Oval-3-Copy-3" stroke="none" fill-opacity="0.8" fill="#FFFFFF" fill-rule="evenodd" cx="71.3432304" cy="161.772572" rx="1.35748219" ry="1.35689949"></ellipse>
                    <ellipse id="Oval-3-Copy-5" stroke="none" fill-opacity="0.8" fill="#FFFFFF" fill-rule="evenodd" cx="76.4714964" cy="186.498296" rx="1.35748219" ry="1.35689949"></ellipse>
                    <ellipse id="Oval-3-Copy-6" stroke="none" fill-opacity="0.8" fill="#FFFFFF" fill-rule="evenodd" cx="69.5332542" cy="206.701022" rx="1.35748219" ry="1.35689949"></ellipse>
                    <ellipse id="Oval-3-Copy-7" stroke="none" fill-opacity="0.8" fill="#FFFFFF" fill-rule="evenodd" cx="69.2315914" cy="218.762351" rx="1.35748219" ry="1.35689949"></ellipse>
                    <ellipse id="Oval-3-Copy-8" stroke="none" fill-opacity="0.8" fill="#FFFFFF" fill-rule="evenodd" cx="68.3266033" cy="229.617547" rx="1.35748219" ry="1.35689949"></ellipse>
                    <ellipse id="Oval-3-Copy-4" stroke="none" fill-opacity="0.8" fill="#FFFFFF" fill-rule="evenodd" cx="63.8016627" cy="185.593697" rx="1.35748219" ry="1.35689949"></ellipse>
                    <rect id="Rectangle-2" stroke="none" fill="#C4C4C4" fill-rule="evenodd" transform="translate(75.559391, 64.733252) rotate(3.000000) translate(-75.559391, -64.733252) " x="67.0079403" y="63.7680096" width="17.1029025" height="1.93048482"></rect>
                    <rect id="Rectangle-2-Copy" stroke="none" fill="#C4C4C4" fill-rule="evenodd" transform="translate(75.226925, 78.317794) rotate(3.000000) translate(-75.226925, -78.317794) " x="66.6754737" y="77.9408772" width="17.1029025" height="0.753833049"></rect>
                    <rect id="Rectangle-2-Copy-2" stroke="none" fill="#C4C4C4" fill-rule="evenodd" transform="translate(74.623600, 91.283722) rotate(3.000000) translate(-74.623600, -91.283722) " x="66.0721483" y="90.9068056" width="17.1029025" height="0.753833049"></rect>
                    <rect id="Rectangle-2-Copy-3" stroke="none" fill="#C4C4C4" fill-rule="evenodd" transform="translate(74.020274, 104.249651) rotate(3.000000) translate(-74.020274, -104.249651) " x="65.4688229" y="103.872734" width="17.1029025" height="0.753833049"></rect>
                    <rect id="Rectangle-2-Copy-4" stroke="none" fill="#C4C4C4" fill-rule="evenodd" transform="translate(73.462885, 116.310979) rotate(3.000000) translate(-73.462885, -116.310979) " x="64.5638348" y="115.934063" width="17.7980998" height="0.753833049"></rect>
                    <rect id="Rectangle-2-Copy-5" stroke="none" fill="#C4C4C4" fill-rule="evenodd" transform="translate(72.407065, 138.021371) rotate(3.000000) translate(-72.407065, -138.021371) " x="63.3571839" y="137.644455" width="18.0997625" height="0.753833049"></rect>
                    <rect id="Rectangle-2-Copy-8" stroke="none" fill="#C4C4C4" fill-rule="evenodd" transform="translate(73.161222, 127.327862) rotate(3.000000) translate(-73.161222, -127.327862) " x="63.9605094" y="126.950946" width="18.4014252" height="0.753833049"></rect>
                    <rect id="Rectangle-2-Copy-6" stroke="none" fill="#C4C4C4" fill-rule="evenodd" transform="translate(72.105402, 147.067368) rotate(3.000000) translate(-72.105402, -147.067368) " x="62.7538585" y="146.690451" width="18.7030879" height="0.753833049"></rect>
                    <rect id="Rectangle-2-Copy-7" stroke="none" fill="#C4C4C4" fill-rule="evenodd" transform="translate(71.954571, 157.319497) rotate(3.000000) translate(-71.954571, -157.319497) " x="62.4521958" y="156.942581" width="19.0047506" height="0.753833049"></rect>
                    <rect id="Rectangle-2-Copy-9" stroke="none" fill="#C4C4C4" fill-rule="evenodd" transform="translate(71.351246, 165.762427) rotate(3.000000) translate(-71.351246, -165.762427) " x="61.5472077" y="165.385511" width="19.608076" height="0.753833049"></rect>
                    <rect id="Rectangle-2-Copy-10" stroke="none" fill="#C4C4C4" fill-rule="evenodd" transform="translate(71.200414, 174.506891) rotate(3.000000) translate(-71.200414, -174.506891) " x="61.5472077" y="174.129974" width="19.3064133" height="0.753833049"></rect>
                    <rect id="Rectangle-2-Copy-11" stroke="none" fill="#C4C4C4" fill-rule="evenodd" transform="translate(70.747920, 182.346755) rotate(3.000000) translate(-70.747920, -182.346755) " x="60.9438823" y="181.969838" width="19.608076" height="0.753833049"></rect>
                    <rect id="Rectangle-2-Copy-12" stroke="none" fill="#C4C4C4" fill-rule="evenodd" transform="translate(70.295426, 190.186618) rotate(3.000000) translate(-70.295426, -190.186618) " x="60.6422196" y="189.809702" width="19.3064133" height="0.753833049"></rect>
                    <rect id="Rectangle-2-Copy-13" stroke="none" fill="#C4C4C4" fill-rule="evenodd" transform="translate(70.142878, 197.187409) rotate(3.000000) translate(-70.142878, -197.187409) " x="60.3388402" y="196.810493" width="19.608076" height="0.753833049"></rect>
                    <rect id="Rectangle-2-Copy-14" stroke="none" fill="#C4C4C4" fill-rule="evenodd" transform="translate(69.539553, 203.821140) rotate(3.000000) translate(-69.539553, -203.821140) " x="59.7355148" y="203.444224" width="19.608076" height="0.753833049"></rect>
                    <rect id="Rectangle-2-Copy-15" stroke="none" fill="#C4C4C4" fill-rule="evenodd" transform="translate(69.539553, 210.454871) rotate(3.000000) translate(-69.539553, -210.454871) " x="59.7355148" y="210.077955" width="19.608076" height="0.753833049"></rect>
                    <rect id="Rectangle-2-Copy-16" stroke="none" fill="#C4C4C4" fill-rule="evenodd" transform="translate(69.237890, 215.580936) rotate(3.000000) translate(-69.237890, -215.580936) " x="59.1321894" y="215.204019" width="20.2114014" height="0.753833049"></rect>
                    <rect id="Rectangle-2-Copy-17" stroke="none" fill="#C4C4C4" fill-rule="evenodd" transform="translate(68.936227, 221.008534) rotate(3.000000) translate(-68.936227, -221.008534) " x="58.8305267" y="220.631617" width="20.2114014" height="0.753833049"></rect>
                    <rect id="Rectangle-2-Copy-18" stroke="none" fill="#C4C4C4" fill-rule="evenodd" transform="translate(68.634565, 226.436132) rotate(3.000000) translate(-68.634565, -226.436132) " x="58.528864" y="226.059215" width="20.2114014" height="0.753833049"></rect>
                    <rect id="Rectangle-2-Copy-19" stroke="none" fill="#C4C4C4" fill-rule="evenodd" transform="translate(68.634565, 231.863730) rotate(3.000000) translate(-68.634565, -231.863730) " x="58.2272013" y="231.486813" width="20.8147268" height="0.753833049"></rect>
                    <path d="M65.2531199,25.124431 C63.68795,33.8350308 62.5961902,39.4534438 65.2531199,48.0630417 C67.9100495,56.6726397 67.2123072,63.2720652 67.2123072,63.2720652 L84.7233277,64.2290798 C84.7233277,64.2290798 82.5785904,61.5229489 87.7428484,48.9662481 C90.1998013,37.3862912 90.0581223,33.3189346 88.5562698,27.071146 C85.3307767,13.6529177 88.1149711,12.4002591 88.1149711,6.61782955 C88.1149711,0.835400027 82.2101581,7.1932164 80.4814894,1.8839937 C78.7528206,-3.42522901 66.8182898,5.03419133 66.8182898,5.03419133 C66.8182898,5.03419133 66.8182898,16.4138313 65.2531199,25.124431 Z" id="Line" stroke="none" fill="#292E31" fill-rule="evenodd"></path>
                    <ellipse id="Oval-Copy-7" stroke="none" fill="#C4C4C4" fill-rule="evenodd" cx="67.5724466" cy="243.940375" rx="1.20665083" ry="1.20613288"></ellipse>
                    <ellipse id="Oval-Copy-11" stroke="none" fill="#C4C4C4" fill-rule="evenodd" cx="67.5724466" cy="290.979557" rx="1.20665083" ry="1.20613288"></ellipse>
                    <ellipse id="Oval-Copy-8" stroke="none" fill="#C4C4C4" fill-rule="evenodd" cx="105.581948" cy="230.672913" rx="1.20665083" ry="1.20613288"></ellipse>
                    <ellipse id="Oval-Copy-9" stroke="none" fill="#C4C4C4" fill-rule="evenodd" cx="115.83848" cy="339.224872" rx="1.20665083" ry="1.20613288"></ellipse>
                    <path d="M111.162708,332.591141 C111.579217,332.591141 111.916865,332.253639 111.916865,331.837308 C111.916865,331.420978 111.579217,331.083475 111.162708,331.083475 C110.746199,331.083475 110.408551,331.420978 110.408551,331.837308 C110.408551,332.253639 110.746199,332.591141 111.162708,332.591141 Z" id="Oval-Copy-10" stroke="none" fill="#FFFFFF" fill-rule="evenodd"></path>
                    <path d="M106.93943,315.403748 C107.355939,315.403748 107.693587,315.066245 107.693587,314.649915 C107.693587,314.233584 107.355939,313.896082 106.93943,313.896082 C106.522921,313.896082 106.185273,314.233584 106.185273,314.649915 C106.185273,315.066245 106.522921,315.403748 106.93943,315.403748 Z" id="Oval-Copy-12" stroke="none" fill="#FFFFFF" fill-rule="evenodd"></path>
                    <g id="Group" stroke="none" stroke-width="1" fill="none" fill-rule="evenodd" transform="translate(45.852732, 309.674617)">
                        <path d="M1.40287089,6.85722161 C0.62808669,3.07008269 3.13903119,0.0976996376 7.00358951,0.217980681 L28.0211006,0.87213258 C31.8890763,0.992519986 34.1460809,4.10614859 33.0679992,7.80692044 L32.2213556,10.7132264 C31.140705,14.4228165 27.1339654,17.353009 23.2669451,17.2578687 L10.4285437,16.9420056 C6.56380989,16.8469215 2.80155809,13.6939934 2.02795323,9.91261907 L1.40287089,6.85722161 Z" id="Rectangle-6" fill="#C4C4C4"></path>
                        <polygon id="Path-25" stroke-opacity="0.426432292" stroke="#666666" fill="#9B9B9B" points="3.9216152 6.0306644 8.14489311 6.0306644 8.14489311 12.0613288 3.61995249 12.0613288"></polygon>
                        <polygon id="Path-25-Copy" stroke-opacity="0.426432292" stroke="#666666" fill="#9B9B9B" points="7.8834521 6.0306644 12.6698337 6.0306644 12.6698337 12.0613288 7.5415677 12.0613288"></polygon>
                        <polygon id="Path-25-Copy-2" stroke-opacity="0.426432292" stroke="#666666" fill="#9B9B9B" points="12.4083927 6.0306644 17.1947743 6.0306644 17.1947743 11.4582624 12.0665083 11.4582624"></polygon>
                        <polygon id="Path-25-Copy-3" stroke-opacity="0.426432292" stroke="#666666" fill="#9B9B9B" points="17.234996 5.72913118 22.0213777 5.72913118 22.0213777 11.1567291 16.8931116 11.1567291"></polygon>
                        <polygon id="Path-25-Copy-4" stroke-opacity="0.426432292" stroke="#666666" fill="#9B9B9B" points="21.7599367 5.42759796 26.5463183 5.42759796 26.5463183 10.8551959 21.4180523 10.8551959"></polygon>
                        <polygon id="Path-25-Copy-5" stroke-opacity="0.426432292" stroke="#666666" fill="#9B9B9B" points="26.2446556 5.42759796 30.4679335 5.42759796 30.4679335 10.8551959 25.9429929 10.8551959"></polygon>
                        <ellipse id="Oval-Copy-4" fill="#666666" cx="3.31828979" cy="2.71379898" rx="1.20665083" ry="1.20613288"></ellipse>
                        <ellipse id="Oval-Copy-5" fill="#666666" cx="17.1947743" cy="12.9659284" rx="1.20665083" ry="1.20613288"></ellipse>
                        <ellipse id="Oval-Copy-6" fill="#666666" cx="31.6745843" cy="3.31686542" rx="1.20665083" ry="1.20613288"></ellipse>
                    </g>
                    <polygon id="Path-3" stroke="#FFFFFF" stroke-width="1" fill="none" points="73.6457653 6.13961683 73.6457653 50.7447429 75.3226491 50.9156949 77.6722554 51.1552285 80.9893668 6.52065588"></polygon>
                    <g id="logo" stroke="none" stroke-width="1" fill="none" fill-rule="evenodd" transform="translate(74.209026, 7.236797)">
                        <path d="M0.614740875,1.04881437 C0.88385112,1.43382868 4.24559329,0.179035349 3.9315577,1.79587473 C3.61752211,3.41271411 1.91654508,3.05390725 1.91654508,3.05390725 C1.91654508,3.05390725 3.11109185,1.88252134 2.55784715,1.39878726 C2.00460246,0.915053182 1.06465725,3.72470081 1.06465725,3.72470081 L3.44592198,3.49015862 C3.44592198,3.49015862 4.57263746,2.9970427 4.52442508,2.06906553 C4.47621271,1.14108836 4.57667414,0.916761552 3.44592198,0.442876917 C2.31516982,-0.0310077186 0.345630629,0.663800071 0.614740875,1.04881437 Z" id="Path-5" fill="#D0D0D0"></path>
                        <polygon id="Path-6" fill="#D0D0D0" points="2.52532046 5.01203276 3.45468611 5.05399417 3.93899616 8.13256295 3.30252909 8.09060154 3.26968203 7.3020215 2.03776989 7.3020215 1.95749344 8.02986792 1.19228945 8.04385506 1.26151868 7.23215943 0.806446936 7.20587834 0.764541155 6.59044433 1.52061278 6.66457615"></polygon>
                        <path d="M3.08675362,6.08328461 C3.02522562,5.84731225 2.91226715,5.63962072 2.85983023,5.63976073 C2.79576298,5.6399318 2.58749149,5.91784392 2.49462459,6.19592198 C2.40699617,6.45831406 2.42211993,6.7208539 2.75810375,6.75033938 C3.15872591,6.78549743 3.17133452,6.4076695 3.08675362,6.08328461 Z" id="Path-14" fill="#292E31"></path>
                        <path d="M0.6588561,12.0545561 L1.68860414,9.24409862 L2.44408658,9.28598641 L3.21186825,11.2747364 L3.44555374,9.41047193 L4.17724783,9.41047193 C4.17724783,9.41047193 3.98355327,11.6746949 3.62076262,12.177422 C3.25797197,12.6801492 2.65243711,12.177422 2.65243711,12.177422 L2.04226242,10.0888481 L1.28199286,12.0545561 L0.6588561,12.0545561 Z" id="Path-15" fill="#D0D0D0"></path>
                        <polygon id="Path-16" fill="#D0D0D0" points="1.36094365 13.1527671 3.89245055 13.1527671 3.90644369 13.8289348 2.58328153 13.8588231 2.20318357 14.4465037 3.05138899 14.4465037 2.87345513 15.0756304 2.20318357 15.3114977 2.20318357 15.7244863 3.4708887 15.9383422 3.41498977 16.7408358 0.782364 16.540378 0.754451362 15.9607216 1.36094365 15.7244863 1.8570374 13.9426723 1.36094365 13.9426723"></polygon>
                        <path d="M1.98570067,17.5825669 C1.16226367,18.6795695 0.656573008,20.4862965 0.656573008,20.4862965 C0.656573008,20.4862965 3.60198235,20.8034364 3.60198235,20.290771 C3.60198235,19.7781057 2.31726451,19.8647523 1.84952529,19.8647523 C1.38178607,19.8647523 2.52372342,18.3395555 2.54351154,18.0079231 C2.56329967,17.6762907 2.80913766,16.4855643 1.98570067,17.5825669 Z" id="Path-17" fill="#D0D0D0"></path>
                        <path d="M1.17240445,21.762954 C1.56973607,21.762954 3.22608234,21.5911331 3.62451868,22.0733212 C4.02295502,22.5555093 2.3567399,22.3221648 2.3567399,22.3221648 L2.12909356,22.9070282 C2.12909356,22.9070282 2.60020175,22.8677014 2.68904023,23.2954579 C2.77787871,23.7232144 1.96132314,23.5292349 1.96132314,23.5292349 L1.78383116,24.171907 C1.78383116,24.171907 3.74566984,24.0366735 2.9373817,24.6083793 C2.12909356,25.1800851 0.515168614,24.7830713 0.515168614,24.7830713 L0.562008819,24.2557562 C0.562008819,24.2557562 0.869426262,24.2740762 1.17240445,23.5292349 C1.47538265,22.7843936 0.775072836,21.762954 1.17240445,21.762954 Z" id="Path-18" fill="#D0D0D0"></path>
                        <path d="M0.505078821,27.6841507 C0.505078821,29.1807007 1.57290294,29.5157294 1.57290294,29.5157294 C1.57290294,29.5157294 3.39326357,28.7484245 2.87713754,28.4061078 C2.3610115,28.063791 2.04431381,28.8553622 1.57290294,28.7484245 C1.18592472,28.66064 1.05736609,27.8614928 1.41419124,27.2285381 C1.77101639,26.5955833 3.03695396,26.8959387 3.03695396,26.8959387 C3.03695396,26.8959387 4.05182508,26.2076243 3.03695396,26.0235095 C2.02208284,25.8393946 0.505078821,26.1876007 0.505078821,27.6841507 Z" id="Path-19" fill="#D0D0D0"></path>
                        <path d="M1.44777478,30.9878387 L0.827215707,33.4146069 L1.60575,33.4649606 L2.39754096,30.8942721 C2.39754096,30.8942721 3.1438594,31.0908796 3.34089976,30.9081857 C3.53794012,30.7254917 3.31291347,30.0455474 3.31291347,30.0455474 L0.806078696,30.1014223 C0.806078696,30.1014223 0.376378963,30.5763823 0.562966245,30.8341274 C0.749553526,31.0918725 1.44777478,30.9878387 1.44777478,30.9878387 Z" id="Path-20" fill="#D0D0D0"></path>
                        <path d="M1.44350319,38.7003459 C0.372512173,38.7003459 0.146876544,40.0757549 0.253496836,41.1654682 C0.38842014,42.5444527 1.0118011,43.0202281 1.58682238,43.1085024 C2.16184365,43.1967767 2.77664631,41.7023299 2.80290017,41.6687844 C2.82915402,41.6352388 2.84789367,42.2944201 2.7953844,41.5642774 C2.77484846,41.2787247 2.77797962,40.9017815 2.75526963,40.5318588 C2.7199114,39.9559092 2.55583129,38.8708405 2.20833891,38.7003459 C1.63765804,38.4203455 1.85737209,42.2146587 1.66871909,42.4092928 C1.44619333,42.6388736 0.986765426,41.9188142 1.01958454,41.3448717 C1.05240366,40.7709292 1.33754151,40.2063007 1.44350318,39.9194352 C1.54946486,39.6325697 2.5144942,38.7003459 1.44350319,38.7003459 Z" id="Path-21" fill="#D0D0D0"></path>
                        <path d="M0.803206419,34.5530862 C1.91750251,34.0307035 2.7149645,34.2553811 2.7149645,35.2793867 C2.7149645,36.3033924 1.98408041,36.3010366 1.98408041,36.3010366 C1.98408041,36.3010366 2.71496443,37.7411226 2.41330172,37.9931856 C2.11163901,38.2452485 1.36646726,36.7116695 1.36646726,36.7116695 C1.36646726,36.7116695 0.904988111,38.2947188 0.603325401,37.9931856 C0.301662691,37.6916523 1.20665082,34.6763203 0.904988124,34.9778535 C0.603325431,35.2793868 -0.311089667,35.075469 0.803206419,34.5530862 Z" id="Path-23" fill="#D0D0D0"></path>
                        <path d="M1.68565822,35.0099503 C1.50335771,35.0099503 1.48806227,35.8635379 1.54786258,35.894379 C1.71991463,35.9831124 1.86410758,35.7824819 2.11163894,35.5809199 C2.3591703,35.3793579 1.86795872,35.0099503 1.68565822,35.0099503 Z" id="Path-24" fill="#292E31"></path>
                    </g>
                    <path id="Path-26" stroke="#979797" stroke-width="3" fill="none"></path>
                    <path d="M69.6840855,64.2265758 L53.0926366,320.228279 L69.6840855,64.2265758 Z" id="Path-27" stroke="#979797" stroke-width="2" fill="none"></path>
                    <path d="M72.7007126,63.6235094 L56.7125891,319.926746 L72.7007126,63.6235094 Z" id="Path-27-Copy" stroke="#979797" stroke-width="1" fill="none"></path>
                    <path d="M76.0190024,64.2265758 L60.935867,319.625213 L76.0190024,64.2265758 Z" id="Path-27-Copy-2" stroke="#979797" stroke-width="1" fill="none"></path>
                    <path d="M78.432304,64.2265758 L65.1591449,319.022147 L78.432304,64.2265758 Z" id="Path-27-Copy-3" stroke="#979797" stroke-width="1" fill="none"></path>
                    <path d="M80.8456057,64.2265758 L69.9857482,318.41908 L80.8456057,64.2265758 Z" id="Path-27-Copy-4" stroke="#979797" stroke-width="1" fill="none"></path>
                    <path d="M83.5605701,64.2265758 L73.6057007,319.926746 L83.5605701,64.2265758 Z" id="Path-27-Copy-5" stroke="#979797" stroke-width="1" fill="none"></path>
                    <path d="M69.6840855,64.2265758 L66.9691211,38.2947189 L69.6840855,64.2265758 Z" id="Path-28" stroke="#979797" stroke-width="2" fill="none"></path>
                    <path d="M72.5498812,63.774276 L69.3824228,24.725724 L72.5498812,63.774276 Z" id="Path-28-Copy" stroke="#979797" stroke-width="1" fill="none"></path>
                    <path d="M84.0130641,64.3773424 L80.8456057,25.3287905 L84.0130641,64.3773424 Z" id="Path-28-Copy-3" stroke="#979797" stroke-width="1" fill="none" transform="translate(82.429335, 44.853066) scale(1, -1) translate(-82.429335, -44.853066) "></path>
                    <path d="M85.3705463,64.3773424 L83.5605701,39.1993186 L85.3705463,64.3773424 Z" id="Path-28-Copy-5" stroke="#979797" stroke-width="1" fill="none" transform="translate(84.465558, 51.788330) scale(1, -1) translate(-84.465558, -51.788330) "></path>
                    <path d="M75.868171,64.3773424 L71.4940618,14.4735945 L75.868171,64.3773424 Z" id="Path-28-Copy-2" stroke="#979797" stroke-width="1" fill="none"></path>
                    <path d="M82.8064133,64.3773424 L78.432304,14.4735945 L82.8064133,64.3773424 Z" id="Path-28-Copy-4" stroke="#979797" stroke-width="1" fill="none" transform="translate(80.619359, 39.425468) scale(1, -1) translate(-80.619359, -39.425468) "></path>
                    <ellipse id="Oval-2" stroke="none" fill="#C4C4C4" fill-rule="evenodd" cx="82.9572447" cy="14.4735945" rx="2.41330166" ry="2.41226576"></ellipse>
                    <ellipse id="Oval-2-Copy" stroke="none" fill="#C4C4C4" fill-rule="evenodd" cx="71.4940618" cy="14.4735945" rx="2.41330166" ry="2.41226576"></ellipse>
                    <ellipse id="Oval-2-Copy-2" stroke="none" fill="#C4C4C4" fill-rule="evenodd" cx="69.9857482" cy="25.9318569" rx="2.41330166" ry="2.41226576"></ellipse>
                    <ellipse id="Oval-2-Copy-3" stroke="none" fill="#C4C4C4" fill-rule="evenodd" cx="84.1638955" cy="25.9318569" rx="2.41330166" ry="2.41226576"></ellipse>
                    <ellipse id="Oval-2-Copy-4" stroke="none" fill="#C4C4C4" fill-rule="evenodd" cx="84.1638955" cy="39.1993186" rx="2.41330166" ry="2.41226576"></ellipse>
                    <ellipse id="Oval-2-Copy-5" stroke="none" fill="#C4C4C4" fill-rule="evenodd" cx="68.4774347" cy="37.9931857" rx="2.41330166" ry="2.41226576"></ellipse>
                </g>
            </g>
        </g>
    </g>
</svg>
