<?xml version="1.0" encoding="UTF-8" standalone="no"?>
<svg viewBox="0 0 245 196" version="1.1" xmlns="http://www.w3.org/2000/svg" xmlns:xlink="http://www.w3.org/1999/xlink">
    <!-- Generator: Sketch 42 (36781) - http://www.bohemiancoding.com/sketch -->
    <title>gayl-vertical-logo</title>
    <desc>Created with Sketch.</desc>
    <defs></defs>
    <g id="Page-1" stroke="none" stroke-width="1" fill="none" fill-rule="evenodd">
        <g id="gayl-vertical-logo">
            <g id="Group-5" transform="translate(1.992233, 0.974905)">
                <path d="M238.257014,39.6001499 C230.24976,25.3461226 216.82339,18.9344598 196.966599,18.0634539 C179.588165,18.2621625 164.162477,28.6115666 153.523841,37.4209794 C138.051579,15.7286283 114.582044,2.69997047 78.9835325,0.381703945 C35.7403732,-2.43002217 7.81644993,20.8983627 1.42927663,46.4754661 C-2.83216557,63.5379077 1.58230265,95.6160928 75.7300661,126.806713 C108.633989,140.650076 124.675108,164.716994 128.94653,172.562671 C133.194666,180.401723 134.029656,186.578248 137.120116,186.359668 C140.20725,186.154336 142.476027,182.156982 145.623041,177.457525 C153.064763,166.333157 168.743277,149.701251 181.547564,141.385298 C199.185477,129.923126 216.118139,114.298009 228.616374,98.4344426 C241.231041,82.4218445 247.455209,55.9803588 238.257014,39.6001499" id="Fill-1" fill="#FFFFFF"></path>
                <path d="M152.715464,115.765141 C148.597068,115.503508 145.074143,118.431147 144.448732,122.411942 C140.802721,122.633833 136.235227,122.75637 130.60653,122.676887 C130.170739,118.987531 127.156791,116.030085 123.307854,115.7817 C118.966572,115.503508 115.217434,118.785511 114.944649,123.117357 C114.671863,127.432645 117.971903,131.15843 122.293225,131.436622 C125.909296,131.661825 129.07627,129.413107 130.207332,126.164222 C134.63178,126.386113 139.794745,126.39936 144.718191,125.945643 C145.666287,128.94283 148.367529,131.204796 151.690855,131.41344 C156.045444,131.691632 159.791255,128.409629 160.067367,124.087718 C160.346806,119.755871 157.04344,116.030085 152.715464,115.765141" id="Fill-3" fill="#4A4D4C"></path>
                <path d="M166.188408,134.25166 C151.261717,145.578048 143.061518,158.000645 138.590497,167.452549 C124.731661,127.5883 83.3314677,116.417567 51.6118336,88.1115329 C30.9732798,69.6978731 30.3079493,30.4926743 73.0254974,24.0876351 C99.5256134,20.1035285 134.668373,33.4666791 152.283,60.4214951 C152.283,60.4214951 152.97827,61.7727134 153.550454,60.9381374 C199.039104,-1.92662715 249.304827,71.1914991 166.188408,134.25166 M195.838864,29.1845096 C167.731975,27.7902379 156.481235,49.0255593 152.715464,59.1961257 C100.26413,-47.4209518 -81.0184855,45.6905673 81.2922296,120.176471 C113.417715,134.917334 129.04633,156.480525 136.554585,172.168565 C143.214544,184.534861 141.534584,177.033613 139.618432,170.615327 C143.786728,163.637344 150.190535,154.794814 159.162517,147.296877 C177.163036,132.234768 205.675776,111.843958 219.86395,91.4001596 C234.048798,70.9729197 232.68487,31.0093166 195.838864,29.1845096" id="Fill-4" fill="#3FACD2"></path>
            </g>
            <path d="M166.803407,105.549442 C161.883287,104.837403 156.936554,104.327384 151.993148,103.996203 C152.611906,101.254025 153.34377,97.1904352 154.371705,91.0602762 C157.718318,91.1960603 161.18469,91.3450918 164.690982,91.5272413 C168.589819,91.7391971 171.177955,91.8484868 173.047534,91.8882285 C170.772103,96.3492356 168.686292,100.902973 166.803407,105.549442 L166.803407,105.549442 Z M132.475677,103.744506 C132.585456,103.065585 132.681929,102.346922 132.785055,101.545464 C133.29736,97.8826034 133.613392,94.2363013 133.733151,90.6794181 C137.635315,90.6727945 141.940004,90.7059126 146.391065,90.8152023 C146.045093,94.1270116 145.845494,97.6209704 145.812228,101.217595 C145.805574,102.115096 145.805574,102.923177 145.808901,103.694829 C141.364493,103.552421 136.923411,103.572292 132.475677,103.744506 L132.475677,103.744506 Z M124.179005,64.6221023 L124.395237,65.1089383 C125.353313,67.3146033 125.985377,73.2328066 126.301409,82.6449687 C118.347382,82.6979576 112.213035,83.1185574 107.931633,83.8935208 C105.596322,75.9882319 102.272996,67.3212269 97.4693097,59.5020451 C104.046102,61.0751546 113.557002,62.9695095 124.179005,64.6221023 L124.179005,64.6221023 Z M152.721685,67.9438471 C151.454231,70.1428885 149.125574,74.9847537 147.512147,83.2377825 C142.7384,82.969526 138.091067,82.7807529 133.646658,82.7045812 C133.194234,74.527724 131.74714,68.7121869 130.759124,65.582527 C137.924734,66.572758 145.409703,67.4139576 152.721685,67.9438471 L152.721685,67.9438471 Z M111.82049,100.75063 C111.391351,98.183978 110.799207,95.1338016 110.020771,91.8054333 C113.437243,91.4146398 118.749907,90.9874164 126.477722,90.7820842 C126.517642,92.5605258 126.524295,94.276043 126.534275,95.8657115 C126.574195,99.46896 126.614115,102.101848 126.690628,104.06244 C121.940167,104.383685 117.219647,104.890392 112.4958,105.58256 L111.82049,100.75063 L111.82049,100.75063 Z M168.233867,68.5565318 C174.022243,68.5499082 183.057432,67.3410978 188.852461,66.3906085 C184.161881,72.7029171 179.880479,79.3066649 176.068135,86.1786692 C172.605089,85.3076634 165.798757,84.4962701 155.582607,83.7444894 L155.592587,83.6782532 C156.520723,78.0051238 157.92457,69.4474085 158.340402,68.2982107 C161.723608,68.4704248 165.036954,68.5565318 168.233867,68.5565318 L168.233867,68.5565318 Z M202.049293,55.3689071 C202.022679,55.335789 201.9628,55.3225418 201.916227,55.2828 C201.909573,55.2563056 201.926206,55.2132521 201.906247,55.1735103 C201.626808,54.7926523 201.094543,54.6369972 200.319433,54.6369972 C200.289493,54.6303736 200.26288,54.6369972 200.24292,54.6369972 C199.763882,54.5906319 199.314784,54.6303736 198.865686,54.7727814 C198.316788,54.8622003 197.890977,54.9681782 197.861037,54.9748018 L197.701357,55.0377262 C197.598231,55.0907151 187.268974,60.2902557 160.808778,60.3101266 L160.805452,60.3101266 C145.093671,60.3167502 126.950106,58.5184378 106.873757,54.9350601 C100.113999,53.7461205 95.5797709,53.0175225 92.675603,52.6465998 C88.8898722,47.9504542 84.6783298,44.1981742 80.164062,41.5122969 L79.6317975,41.1910514 L79.6118376,41.2009868 C78.9365271,40.8532468 78.1680703,40.5816785 77.3297538,40.4193998 C73.8467484,39.7537261 70.6165686,41.267223 70.0942841,43.8173162 C69.5753262,46.3640975 71.9938028,48.9572442 75.4535217,49.6361652 C77.1800545,49.9673461 78.8433808,49.7520785 80.154082,49.1460174 C81.9604545,50.5038592 84.3090713,52.6167935 86.9005338,55.8524313 L86.9703935,56.047828 L87.090153,56.1769886 C87.1367262,56.203483 87.1699927,56.2366011 87.2265458,56.2664074 C92.6290299,63.1615944 100.140612,76.4353262 105.516483,100.763877 C105.825861,102.095225 106.138567,103.323906 106.481212,104.383685 C106.907024,105.705097 106.89039,106.996703 106.777284,108.116094 C106.571032,108.642672 106.457925,109.205679 106.554398,109.798493 C106.863777,111.560376 108.497164,112.722821 110.197083,112.451253 C129.707902,109.248733 149.591305,109.22555 169.098797,112.411511 C170.81535,112.679767 172.418796,111.514011 172.731502,109.745504 C172.814668,109.281851 175.695549,91.9445292 202.485084,59.7603663 C203.56292,58.4555134 203.41322,56.5313522 202.049293,55.3689071 L202.049293,55.3689071 Z" id="Fill-6" fill="#4A4D4C"></path>
            <g id="Group-11" transform="translate(0.037589, 0.000000)">
                <path d="M239.117188,40.3763463 C231.093302,26.1057599 217.646971,19.6808498 197.766894,18.8131558 C180.365174,19.0085525 164.922852,29.3712039 154.267583,38.2004876 C138.775361,16.4783302 115.275886,3.42648968 79.6308014,1.10822316 C36.3277624,-1.70350296 8.37057255,21.6546882 1.97009263,47.2582861 C-2.29467621,64.3472222 2.12644531,96.4684608 76.3706817,127.698823 C109.317851,141.562057 125.382257,167.334557 129.653679,175.186857 C133.911795,183.039156 134.746784,196.157233 137.840572,195.941966 C140.934359,195.733322 143.209789,184.797727 146.360129,180.091646 C153.801851,168.957343 169.513632,150.626479 182.331226,142.297278 C199.992425,130.818547 216.945048,115.166936 229.459915,99.2868105 C242.091216,83.2543416 248.322036,56.7830497 239.117188,40.3763463" id="Fill-7" fill="#FFFFFF"></path>
                <path d="M153.45588,116.640691 C149.334157,116.38237 145.807905,119.31001 145.185821,123.294116 C141.526503,123.522631 136.955682,123.64848 131.317005,123.562373 C130.884541,119.873017 127.867267,116.915572 124.015003,116.65725 C119.667067,116.38237 115.911276,119.667685 115.635164,124.002843 C115.365705,128.328066 118.669072,132.057164 122.997047,132.341979 C126.619772,132.557247 129.786745,130.31184 130.917807,127.056332 C135.352235,127.284847 140.521854,127.288158 145.448626,126.841064 C146.400049,129.841563 149.104618,132.110153 152.434597,132.308861 C156.792512,132.590365 160.54165,129.301738 160.821089,124.973204 C161.100528,120.644669 157.790508,116.915572 153.45588,116.640691" id="Fill-9" fill="#4A4D4C"></path>
                <path d="M166.948783,135.150394 C152.002132,146.496652 143.791953,158.935808 139.317605,168.400959 C125.442137,128.483722 83.9853899,117.303053 52.2191826,88.9473418 C31.5540157,70.5138111 30.8953384,31.2523116 73.6627864,24.8439606 C100.196169,20.8565421 135.388828,34.2362518 153.026741,61.2274978 C153.026741,61.2274978 153.718685,62.5820278 154.300849,61.74414 C199.842726,-1.20341975 250.174982,72.0074371 166.948783,135.150394 M196.642486,29.9474587 C168.49235,28.553187 157.228304,49.811691 153.45588,59.9988165 C100.938012,-46.7540452 -80.5841224,46.4733873 81.9394984,121.065269 C114.108231,135.819379 129.753479,157.409064 137.275041,173.120288 C143.941653,185.503143 142.261693,177.991959 140.338888,171.567049 C144.513837,164.579131 150.934277,155.723353 159.909586,148.222105 C177.936717,133.133502 206.486051,112.719509 220.694185,92.2459039 C234.902319,71.7954813 233.538392,31.7788893 196.642486,29.9474587" id="Fill-10" fill="#2BADD8"></path>
            </g>
            <path d="M165.605812,105.440152 C160.682366,104.728113 155.72898,104.214783 150.775594,103.883602 C151.397678,101.1348 152.132868,97.0645865 153.160804,90.9311156 C156.51407,91.063588 159.980442,91.2126194 163.493387,91.3947689 C167.398877,91.6133483 169.993667,91.7193262 171.853265,91.7590679 C169.584488,96.2266987 167.492024,100.78706 165.605812,105.440152 L165.605812,105.440152 Z M131.234835,103.625281 C131.341288,102.952983 131.441088,102.234321 131.547541,101.429551 C132.056518,97.7600664 132.37255,94.1104525 132.49231,90.5535693 C136.40778,90.5436339 140.712469,90.576752 145.166857,90.6794181 C144.817558,94.0011628 144.624613,97.5017453 144.591346,101.101682 C144.581366,102.002494 144.581366,102.810576 144.588019,103.578915 C140.140285,103.436508 135.685897,103.45969 131.234835,103.625281 L131.234835,103.625281 Z M122.93151,64.4532001 L123.141089,64.9466597 C124.105818,67.1523247 124.734556,73.0738397 125.057241,82.5025609 C117.086581,82.5555498 110.942253,82.9761496 106.654198,83.751113 C104.318888,75.8392005 100.992235,67.1589483 96.1818951,59.3265192 C102.768668,60.9095641 112.289548,62.8006072 122.93151,64.4532001 L122.93151,64.4532001 Z M151.507457,67.7815684 C150.236676,69.9839216 147.908019,74.8324105 146.291266,83.0986865 C141.504212,82.83043 136.860205,82.6416569 132.409144,82.5621734 C131.960046,74.372069 130.502972,68.5499082 129.518282,65.4169366 C136.693872,66.4104794 144.192148,67.2549907 151.507457,67.7815684 L151.507457,67.7815684 Z M110.553035,100.634717 C110.123897,98.0647529 109.531753,95.0112647 108.753316,91.6762727 C112.166462,91.2788556 117.492433,90.854944 125.2269,90.6496118 C125.26682,92.4313652 125.280127,94.1501943 125.28678,95.7398627 C125.3267,99.3431113 125.36662,101.989247 125.443133,103.949838 C120.689346,104.274395 115.955519,104.781102 111.225019,105.47327 L110.553035,100.634717 L110.553035,100.634717 Z M167.039599,68.4008768 C172.834628,68.3876295 181.879797,67.1788191 187.684806,66.2316417 C182.987572,72.547262 178.70617,79.1576335 174.887173,86.042885 C171.420801,85.1718792 164.607816,84.3538623 154.375032,83.6053934 L154.385012,83.5391572 C155.313148,77.8527806 156.716995,69.2851299 157.132827,68.135932 C160.522686,68.3081461 163.839359,68.4008768 167.039599,68.4008768 L167.039599,68.4008768 Z M200.898271,55.1867576 C200.871658,55.1569513 200.815104,55.1470159 200.768531,55.110586 C200.761878,55.0840915 200.775185,55.0311025 200.758551,54.9979844 C200.472459,54.6171264 199.946848,54.4515359 199.168411,54.4515359 C199.141798,54.4482241 199.115185,54.4515359 199.088572,54.4614713 C198.61286,54.4117942 198.163762,54.4482241 197.711337,54.5906319 C197.165766,54.6899862 196.729975,54.7926523 196.703362,54.7992759 L196.550336,54.8588885 C196.443883,54.9118774 186.101319,60.1213535 159.607857,60.1412243 L159.60453,60.1412243 C143.872789,60.1478479 125.699285,58.3495355 105.596322,54.7595342 C98.8299107,53.5705946 94.285703,52.8386848 91.3815351,52.4677621 C87.589151,47.7649929 83.3776086,44.0027775 78.8533608,41.3169001 L78.3210964,40.9956546 L78.3044631,41.0089019 C77.6191726,40.6578501 76.8606958,40.3796581 76.0190526,40.2240031 C72.5327205,39.5550176 69.2925608,41.0718262 68.7669496,43.628543 C68.2546451,46.1753244 70.6731217,48.7684711 74.1394938,49.4507038 C75.8660266,49.7818848 77.529353,49.569929 78.8433808,48.9605561 C80.6564066,50.3217097 83.0016968,52.434644 85.6031393,55.6702817 L85.6663457,55.8723021 L85.7927585,56.0014627 C85.836005,56.0279571 85.8725981,56.064387 85.9291512,56.0908815 C91.334962,62.9893803 98.8565239,76.2862948 104.242375,100.647964 C104.548427,101.982623 104.867785,103.214616 105.207104,104.274395 C105.632916,105.595807 105.616282,106.887413 105.499849,108.006804 C105.296924,108.533382 105.183817,109.103013 105.276964,109.695827 C105.589669,111.45771 107.223056,112.626778 108.926302,112.35521 C128.463733,109.139443 148.377077,109.119572 167.907855,112.312157 C169.624408,112.580413 171.234508,111.408033 171.543887,109.639526 C171.627053,109.172561 174.511261,91.8186805 201.337389,59.5848404 C202.415224,58.2866111 202.265525,56.3558263 200.898271,55.1867576 L200.898271,55.1867576 Z" id="Fill-12" fill="#4A4D4C"></path>
        </g>
    </g>
</svg>
