<?xml version="1.0" encoding="UTF-8" standalone="no"?>
<svg width="39px" height="40px" viewBox="0 0 39 40" version="1.1" xmlns="http://www.w3.org/2000/svg" xmlns:xlink="http://www.w3.org/1999/xlink">
    <!-- Generator: Sketch 42 (36781) - http://www.bohemiancoding.com/sketch -->
    <title>html5</title>
    <desc>Created with Sketch.</desc>
    <defs>
        <ellipse id="path-1" cx="18.5" cy="18.8815974" rx="18.5" ry="18.5"></ellipse>
        <filter x="-50%" y="-50%" width="200%" height="200%" filterUnits="objectBoundingBox" id="filter-2">
            <feMorphology radius="1" operator="dilate" in="SourceAlpha" result="shadowSpreadOuter1"></feMorphology>
            <feOffset dx="0" dy="0" in="shadowSpreadOuter1" result="shadowOffsetOuter1"></feOffset>
            <feComposite in="shadowOffsetOuter1" in2="SourceAlpha" operator="out" result="shadowOffsetOuter1"></feComposite>
            <feColorMatrix values="0 0 0 0 0.937254902   0 0 0 0 0.396078431   0 0 0 0 0.164705882  0 0 0 1 0" type="matrix" in="shadowOffsetOuter1"></feColorMatrix>
        </filter>
        <mask id="mask-3" maskContentUnits="userSpaceOnUse" maskUnits="objectBoundingBox" x="-1" y="-1" width="39" height="39">
            <rect x="-1" y="-0.618402636" width="39" height="39" fill="white"></rect>
            <use xlink:href="#path-1" fill="black"></use>
        </mask>
    </defs>
    <g id="Page-1" stroke="none" stroke-width="1" fill="none" fill-rule="evenodd">
        <g id="take-two" transform="translate(-170.000000, -1925.000000)">
            <g id="experience-and-skills" transform="translate(132.000000, 786.000000)">
                <g id="technical-skills" transform="translate(37.000000, 601.000000)">
                    <g id="skills-list" transform="translate(0.000000, 284.000000)">
                        <g id="frontend-dev" transform="translate(1.000000, 212.000000)">
                            <g id="sub-templating" transform="translate(1.000000, 41.000000)">
                                <g id="html5" transform="translate(0.000000, 2.000000)">
                                    <g id="Oval-2-Copy-3">
                                        <use fill="black" fill-opacity="1" filter="url(#filter-2)" xlink:href="#path-1"></use>
                                        <use fill="#FFFFFF" fill-rule="evenodd" xlink:href="#path-1"></use>
                                        <use stroke-opacity="0.163043478" stroke="#979797" mask="url(#mask-3)" stroke-width="2" xlink:href="#path-1"></use>
                                    </g>
                                    <g id="HTML5_Badge" transform="translate(9.000000, 9.000000)">
                                        <g id="HTML5-Logo-Badge">
                                            <polyline id="Shape" fill="#E34F26" points="1.72727273 19.765625 0 0 19 0 17.2727273 19.765625 9.4789357 22"></polyline>
                                            <polyline id="Shape" fill="#EF652A" points="9.5210643 20.28125 15.7982262 18.5195312 17.2727273 1.58984375 9.5210643 1.58984375"></polyline>
                                            <path d="M9.5210643,8.9375 L6.36141907,8.9375 L6.15077605,6.4453125 L9.5210643,6.4453125 L9.5210643,4.0390625 L9.4789357,4.0390625 L3.53880266,4.0390625 L3.58093126,4.68359375 L4.17073171,11.3867188 L9.5210643,11.3867188 L9.5210643,8.9375 Z M9.5210643,15.2539062 L9.4789357,15.2539062 L6.8248337,14.5234375 L6.65631929,12.5898438 L5.3924612,12.5898438 L4.29711752,12.5898438 L4.59201774,16.4140625 L9.4789357,17.7890625 L9.5210643,17.7890625 L9.5210643,15.2539062 Z" id="Shape" fill="#EBEBEB"></path>
                                            <path d="M9.4789357,8.9375 L9.4789357,11.3867188 L12.4279379,11.3867188 L12.1330377,14.5234375 L9.4789357,15.2539062 L9.4789357,17.7890625 L14.3658537,16.4140625 L14.4079823,15.984375 L14.9556541,9.58203125 L15.0399113,8.9375 L14.3658537,8.9375 L9.4789357,8.9375 Z M9.4789357,4.0390625 L9.4789357,5.54296875 L9.4789357,6.4453125 L9.4789357,6.4453125 L15.2505543,6.4453125 L15.2505543,6.4453125 L15.2505543,6.4453125 L15.2926829,5.9296875 L15.4190687,4.68359375 L15.4611973,4.0390625 L9.4789357,4.0390625 Z" id="Shape" fill="#FFFFFF"></path>
                                        </g>
                                    </g>
                                </g>
                            </g>
                        </g>
                    </g>
                </g>
            </g>
        </g>
    </g>
</svg>