<?xml version="1.0" encoding="UTF-8" standalone="no"?>
<svg width="39px" height="39px" viewBox="0 0 39 39" version="1.1" xmlns="http://www.w3.org/2000/svg" xmlns:xlink="http://www.w3.org/1999/xlink">
    <!-- Generator: Sketch 42 (36781) - http://www.bohemiancoding.com/sketch -->
    <title>ide</title>
    <desc>Created with Sketch.</desc>
    <defs>
        <circle id="path-1" cx="18.5" cy="18.5" r="18.5"></circle>
        <filter x="-50%" y="-50%" width="200%" height="200%" filterUnits="objectBoundingBox" id="filter-2">
            <feMorphology radius="0.5" operator="dilate" in="SourceAlpha" result="shadowSpreadOuter1"></feMorphology>
            <feOffset dx="0" dy="0" in="shadowSpreadOuter1" result="shadowOffsetOuter1"></feOffset>
            <feComposite in="shadowOffsetOuter1" in2="SourceAlpha" operator="out" result="shadowOffsetOuter1"></feComposite>
            <feColorMatrix values="0 0 0 0 0.0431372549   0 0 0 0 0.48627451   0 0 0 0 0.968627451  0 0 0 1 0" type="matrix" in="shadowOffsetOuter1"></feColorMatrix>
        </filter>
        <linearGradient x1="0%" y1="50%" x2="99.799%" y2="50%" id="linearGradient-3">
            <stop stop-color="#F97A12" offset="26%"></stop>
            <stop stop-color="#B07B58" offset="46%"></stop>
            <stop stop-color="#577BAE" offset="72%"></stop>
            <stop stop-color="#1E7CE5" offset="91%"></stop>
            <stop stop-color="#087CFA" offset="100%"></stop>
        </linearGradient>
        <linearGradient x1="0.345%" y1="43.5793284%" x2="121.182%" y2="61.4704094%" id="linearGradient-4">
            <stop stop-color="#F97A12" offset="0%"></stop>
            <stop stop-color="#CB7A3E" offset="7%"></stop>
            <stop stop-color="#9E7B6A" offset="15%"></stop>
            <stop stop-color="#757B91" offset="24%"></stop>
            <stop stop-color="#537BB1" offset="33%"></stop>
            <stop stop-color="#387CCC" offset="43%"></stop>
            <stop stop-color="#237CE0" offset="54%"></stop>
            <stop stop-color="#147CEF" offset="66%"></stop>
            <stop stop-color="#0B7CF7" offset="79%"></stop>
            <stop stop-color="#087CFA" offset="100%"></stop>
        </linearGradient>
        <linearGradient x1="78.169%" y1="75.1911182%" x2="30.106%" y2="20.1266649%" id="linearGradient-5">
            <stop stop-color="#FE315D" offset="0%"></stop>
            <stop stop-color="#CB417E" offset="8%"></stop>
            <stop stop-color="#9E4E9B" offset="16%"></stop>
            <stop stop-color="#755BB4" offset="25%"></stop>
            <stop stop-color="#5365CA" offset="34%"></stop>
            <stop stop-color="#386DDB" offset="44%"></stop>
            <stop stop-color="#2374E9" offset="54%"></stop>
            <stop stop-color="#1478F3" offset="66%"></stop>
            <stop stop-color="#0B7BF8" offset="79%"></stop>
            <stop stop-color="#087CFA" offset="100%"></stop>
        </linearGradient>
        <linearGradient x1="20%" y1="33.9560426%" x2="103.422%" y2="101.188601%" id="linearGradient-6">
            <stop stop-color="#FE315D" offset="0%"></stop>
            <stop stop-color="#F63462" offset="4%"></stop>
            <stop stop-color="#DF3A71" offset="10%"></stop>
            <stop stop-color="#C24383" offset="17%"></stop>
            <stop stop-color="#AD4A91" offset="29%"></stop>
            <stop stop-color="#755BB4" offset="55%"></stop>
            <stop stop-color="#1D76ED" offset="92%"></stop>
            <stop stop-color="#087CFA" offset="100%"></stop>
        </linearGradient>
    </defs>
    <g id="Page-1" stroke="none" stroke-width="1" fill="none" fill-rule="evenodd">
        <g id="take-two" transform="translate(-636.000000, -2147.000000)">
            <g id="experience-and-skills" transform="translate(132.000000, 786.000000)">
                <g id="technical-skills" transform="translate(37.000000, 601.000000)">
                    <g id="skills-list" transform="translate(0.000000, 284.000000)">
                        <g id="ides-text-editing" transform="translate(468.000000, 442.000000)">
                            <g id="ide" transform="translate(0.000000, 35.000000)">
                                <g id="Oval-2">
                                    <use fill="black" fill-opacity="1" filter="url(#filter-2)" xlink:href="#path-1"></use>
                                    <use stroke-opacity="0.167855525" stroke="#979797" stroke-width="1" fill="#FFFFFF" fill-rule="evenodd" xlink:href="#path-1"></use>
                                </g>
                                <g id="intellij-idea-1" transform="translate(8.000000, 8.000000)">
                                    <g id="Group">
                                        <polygon id="Shape" fill="url(#linearGradient-3)" points="5.315625 16.3734375 0.2296875 12.3703125 2.75625 7.678125 10.0078125 10.5"></polygon>
                                        <polygon id="Shape" fill="url(#linearGradient-4)" points="21 5.6109375 20.60625 17.7515625 12.534375 21 7.678125 17.85 14.765625 10.5 11.68125 3.675 14.4703125 0.328125"></polygon>
                                        <polygon id="Shape" fill="url(#linearGradient-5)" points="21 5.6109375 14.6015625 13.1578125 11.68125 3.675 14.4703125 0.328125"></polygon>
                                        <polygon id="Shape" fill="url(#linearGradient-6)" points="10.10625 17.4234375 1.70625 20.475 3.0515625 15.75 4.790625 9.909375 0 8.3015625 3.0515625 0 9.6140625 0.7875 16.1109375 8.203125"></polygon>
                                        <polygon id="Shape" fill="#000000" points="3.9375 3.9375 17.0625 3.9375 17.0625 17.0625 3.9375 17.0625"></polygon>
                                        <path d="M5.184375,14.6015625 L10.10625,14.6015625 L10.10625,15.421875 L5.184375,15.421875 L5.184375,14.6015625 L5.184375,14.6015625 Z M8.6953125,6.628125 L8.6953125,5.64375 L6.0046875,5.64375 L6.0046875,6.628125 L6.759375,6.628125 L6.759375,10.0734375 L6.0046875,10.0734375 L6.0046875,11.090625 L8.6953125,11.090625 L8.6953125,10.0734375 L7.940625,10.0734375 L7.940625,6.628125 L8.6953125,6.628125 L8.6953125,6.628125 Z M11.3203125,11.15625 C10.9457046,11.1731471 10.5729884,11.0940861 10.2375,10.9265625 C9.96302062,10.7751348 9.71840645,10.574996 9.515625,10.3359375 L10.2703125,9.4828125 C10.4065887,9.63253019 10.560889,9.76478752 10.7296875,9.8765625 C10.8885107,9.96967811 11.0707303,10.015233 11.2546875,10.0078125 C11.456987,10.0232737 11.6537443,9.93719237 11.7796875,9.778125 C11.9316641,9.58239367 12.002194,9.33553901 11.9765625,9.0890625 L11.9765625,5.578125 L13.190625,5.578125 L13.190625,9.121875 C13.2030764,9.41209627 13.1584848,9.701942 13.059375,9.975 C12.9727975,10.2520221 12.8142813,10.501119 12.6,10.696875 C12.2281317,10.9729566 11.7828673,11.1327951 11.3203125,11.15625 L11.3203125,11.15625 Z" id="Shape" fill="#FFFFFF"></path>
                                    </g>
                                </g>
                            </g>
                        </g>
                    </g>
                </g>
            </g>
        </g>
    </g>
</svg>