<?xml version="1.0" encoding="UTF-8" standalone="no"?>
<svg width="39px" height="39px" viewBox="0 0 39 39" version="1.1" xmlns="http://www.w3.org/2000/svg" xmlns:xlink="http://www.w3.org/1999/xlink">
    <!-- Generator: Sketch 43.2 (39069) - http://www.bohemiancoding.com/sketch -->
    <title>misc</title>
    <desc>Created with Sketch.</desc>
    <defs>
        <circle id="path-1" cx="18.5" cy="18.5" r="18.5"></circle>
        <filter x="-1.4%" y="-1.4%" width="102.7%" height="102.7%" filterUnits="objectBoundingBox" id="filter-2">
            <feMorphology radius="0.5" operator="dilate" in="SourceAlpha" result="shadowSpreadOuter1"></feMorphology>
            <feOffset dx="0" dy="0" in="shadowSpreadOuter1" result="shadowOffsetOuter1"></feOffset>
            <feComposite in="shadowOffsetOuter1" in2="SourceAlpha" operator="out" result="shadowOffsetOuter1"></feComposite>
            <feColorMatrix values="0 0 0 0 0.541176471   0 0 0 0 0.254901961   0 0 0 0 0.509803922  0 0 0 0.121999547 0" type="matrix" in="shadowOffsetOuter1"></feColorMatrix>
        </filter>
    </defs>
    <g id="Page-1" stroke="none" stroke-width="1" fill="none" fill-rule="evenodd">
        <g id="take-two" transform="translate(-635.000000, -2406.000000)">
            <g id="misc" transform="translate(636.000000, 2407.000000)">
                <g id="Oval-2">
                    <use fill="black" fill-opacity="1" filter="url(#filter-2)" xlink:href="#path-1"></use>
                    <use stroke-opacity="0.167855525" stroke="#979797" stroke-width="1" fill="#FFFFFF" fill-rule="evenodd" xlink:href="#path-1"></use>
                </g>
                <g id="jasmine-1" transform="translate(6.000000, 5.000000)" fill-rule="nonzero" fill="#8A4182">
                    <g id="Group">
                        <path d="M11.987415,10.6598231 L13.9938367,10.6598231 L14.4920816,9.9737415 L14.4920816,4.59863946 L11.4891701,4.59863946 L11.4891701,9.97427211 L11.987415,10.6598231 L11.987415,10.6598231 Z M10.6941361,13.057483 L11.314068,11.1494014 L10.8154694,10.4631429 L5.70355102,8.80214966 L4.7755102,11.6582585 L9.88831293,13.3196054 L10.6941361,13.057483 L10.6941361,13.057483 Z M12.574449,15.0283537 L10.9513061,13.8486259 L10.1445986,14.111102 L6.98515646,18.4598231 L9.41447619,20.2248163 L12.5742721,15.8759184 L12.5742721,15.0283537 L12.574449,15.0283537 Z M15.0301224,13.8486259 L13.4066259,15.028 L13.4069796,15.8760952 L16.5662449,20.2248163 L18.9959184,18.4598231 L15.8359456,14.1107483 L15.0301224,13.8486259 L15.0301224,13.8486259 Z M14.6666531,11.1488707 L15.2869388,13.0573061 L16.0936463,13.318898 L21.2057415,11.6580816 L20.2778776,8.80197279 L15.1654286,10.4633197 L14.6666531,11.1488707 L14.6666531,11.1488707 Z" id="Shape"></path>
                        <path d="M12.9529524,0 C5.81073469,0 0,5.80967347 0,12.9510068 C0,20.0946395 5.81091156,25.9062585 12.9529524,25.9062585 C20.0944626,25.9062585 25.9044898,20.0948163 25.9044898,12.9510068 C25.9043129,5.80967347 20.0944626,2.51348451e-15 12.9529524,2.51348451e-15 L12.9529524,0 Z M12.9529524,2.62228571 C18.6563265,2.62228571 23.2818503,7.24586395 23.2818503,12.9508299 C23.2818503,18.6577415 18.6563265,23.2832653 12.9529524,23.2832653 C7.24710204,23.2832653 2.62246259,18.6577415 2.62246259,12.9508299 C2.62246259,7.24586395 7.24710204,2.62228571 12.9529524,2.62228571 L12.9529524,2.62228571 Z" id="Shape"></path>
                        <path d="M20.916381,15.7243401 L17.0301769,14.461483 L17.2873469,13.6696327 L21.1731973,14.9326667 L20.916381,15.7243401 L20.916381,15.7243401 Z M15.9602857,9.48540136 L15.2867619,8.99617687 L17.6883129,5.69028571 L18.3618367,6.17933333 L15.9602857,9.48540136 L15.9602857,9.48540136 Z M10.2231293,9.45497959 L7.82193197,6.14926531 L8.49545578,5.65986395 L10.8966531,8.96593197 L10.2231293,9.45497959 L10.2231293,9.45497959 Z M5.20937415,15.6746395 L4.95238095,14.882966 L8.83823129,13.6208163 L9.09522449,14.4123129 L5.20937415,15.6746395 L5.20937415,15.6746395 Z M12.629102,21.1031565 L13.4612789,21.1031565 L13.4612789,17.0170884 L12.629102,17.0170884 L12.629102,21.1031565 Z" id="Shape"></path>
                    </g>
                </g>
            </g>
        </g>
    </g>
</svg>