<?xml version="1.0" encoding="UTF-8" standalone="no"?>
<svg width="39px" height="40px" viewBox="0 0 39 40" version="1.1" xmlns="http://www.w3.org/2000/svg" xmlns:xlink="http://www.w3.org/1999/xlink">
    <!-- Generator: Sketch 42 (36781) - http://www.bohemiancoding.com/sketch -->
    <title>java</title>
    <desc>Created with Sketch.</desc>
    <defs>
        <ellipse id="path-1" cx="18.5067819" cy="19.0075198" rx="18.5" ry="18.5"></ellipse>
        <filter x="-50%" y="-50%" width="200%" height="200%" filterUnits="objectBoundingBox" id="filter-2">
            <feMorphology radius="1" operator="dilate" in="SourceAlpha" result="shadowSpreadOuter1"></feMorphology>
            <feOffset dx="0" dy="0" in="shadowSpreadOuter1" result="shadowOffsetOuter1"></feOffset>
            <feComposite in="shadowOffsetOuter1" in2="SourceAlpha" operator="out" result="shadowOffsetOuter1"></feComposite>
            <feColorMatrix values="0 0 0 0 0.91372549   0 0 0 0 0.137254902   0 0 0 0 0.180392157  0 0 0 1 0" type="matrix" in="shadowOffsetOuter1"></feColorMatrix>
        </filter>
        <mask id="mask-3" maskContentUnits="userSpaceOnUse" maskUnits="objectBoundingBox" x="-1" y="-1" width="39" height="39">
            <rect x="-0.993218139" y="-0.492480151" width="39" height="39" fill="white"></rect>
            <use xlink:href="#path-1" fill="black"></use>
        </mask>
    </defs>
    <g id="Page-1" stroke="none" stroke-width="1" fill="none" fill-rule="evenodd">
        <g id="take-two" transform="translate(-168.000000, -1807.000000)">
            <g id="experience-and-skills" transform="translate(132.000000, 786.000000)">
                <g id="technical-skills" transform="translate(37.000000, 601.000000)">
                    <g id="skills-list" transform="translate(0.000000, 284.000000)">
                        <g id="programming-languages" transform="translate(0.000000, 106.000000)">
                            <g id="java" transform="translate(0.000000, 31.000000)">
                                <g id="Oval-2-Copy-2">
                                    <use fill="black" fill-opacity="1" filter="url(#filter-2)" xlink:href="#path-1"></use>
                                    <use fill="#FFFFFF" fill-rule="evenodd" xlink:href="#path-1"></use>
                                    <use stroke-opacity="0.163043478" stroke="#979797" mask="url(#mask-3)" stroke-width="2" xlink:href="#path-1"></use>
                                </g>
                                <g id="Java_programming_language_logo" transform="translate(9.000000, 4.000000)">
                                    <g id="svg2">
                                        <g id="g10" transform="translate(9.595399, 13.975710) scale(1, -1) translate(-9.595399, -13.975710) translate(0.095399, 0.975710)">
                                            <path d="M11.9293171,25.4933339 C12.4980996,24.833658 12.6859155,23.8900082 12.5225768,23.0390455 C12.3466858,22.0832506 11.8260733,21.2383604 11.2146126,20.5106075 C10.7242829,19.9247616 10.1609922,19.406833 9.57385179,18.9258193 C8.88958691,18.3645834 8.21740376,17.7603599 7.7876396,16.9709222 C7.42424646,16.3296239 7.33951749,15.540346 7.58774199,14.8434355 C7.99334271,13.6471337 8.93807071,12.7590962 9.45272075,11.6305518 C8.8834676,12.1424079 8.32645308,12.6728014 7.80568373,13.2338774 C7.26075093,13.8259557 6.7461009,14.454949 6.40702812,15.1950069 C6.17700465,15.7130954 6.07407465,16.3173189 6.2496519,16.86609 C6.42522915,17.4273259 6.81874814,17.8774971 7.21242404,18.296826 C8.30825204,19.4130654 9.65842386,20.2331857 10.7300884,21.3678026 C11.3238188,21.9907233 11.8141485,22.7368538 11.9836064,23.594049 C12.1229385,24.2230423 12.0562537,24.870573 11.9293171,25.4933339" id="path156" fill="#E9232E"></path>
                                            <path d="M11.9293171,25.4933339 C12.4980996,24.833658 12.6859155,23.8900082 12.5225768,23.0390455 C12.3466858,22.0832506 11.8260733,21.2383604 11.2146126,20.5106075 C10.7242829,19.9247616 10.1609922,19.406833 9.57385179,18.9258193 C8.88958691,18.3645834 8.21740376,17.7603599 7.7876396,16.9709222 C7.42424646,16.3296239 7.33951749,15.540346 7.58774199,14.8434355 C7.99334271,13.6471337 8.93807071,12.7590962 9.45272075,11.6305518 C8.8834676,12.1424079 8.32645308,12.6728014 7.80568373,13.2338774 C7.26075093,13.8259557 6.7461009,14.454949 6.40702812,15.1950069 C6.17700465,15.7130954 6.07407465,16.3173189 6.2496519,16.86609 C6.42522915,17.4273259 6.81874814,17.8774971 7.21242404,18.296826 C8.30825204,19.4130654 9.65842386,20.2331857 10.7300884,21.3678026 C11.3238188,21.9907233 11.8141485,22.7368538 11.9836064,23.594049 C12.1229385,24.2230423 12.0562537,24.870573 11.9293171,25.4933339 L11.9293171,25.4933339 Z" id="path158" stroke="#E9232E" stroke-width="0.5"></path>
                                            <path d="M11.0333867,18.469895 C12.2079813,19.35186 13.5824735,19.912936 14.9750098,20.3199599 C13.8733763,19.6046718 12.7229451,18.9510685 11.7722547,18.0321886 C11.4269057,17.6930819 11.1002285,17.3044357 10.9488147,16.8296544 C10.833646,16.4780829 10.8819729,16.0895965 11.0214619,15.7565624 C11.2758057,15.1646439 11.705413,14.6836303 12.032404,14.1409318 C12.3110682,13.6784555 12.3593951,13.0863772 12.1477296,12.5868262 C11.826544,11.8530007 11.1970392,11.3165346 10.5430571,10.8911331 C10.4581712,10.8417533 10.3855239,10.7492261 10.2825939,10.7369211 C10.7186343,11.1377126 11.0575502,11.705021 11.0456254,12.3156367 C11.0333867,12.7718806 10.7851622,13.1726721 10.4945733,13.4996335 C9.89519425,14.2272266 9.39262594,15.1523389 9.49555595,16.1327439 C9.59848596,17.1133086 10.2887132,17.9025866 11.0333867,18.469895" id="path160" fill="#E9232E"></path>
                                            <path d="M11.0333867,18.469895 C12.2079813,19.35186 13.5824735,19.912936 14.9750098,20.3199599 C13.8733763,19.6046718 12.7229451,18.9510685 11.7722547,18.0321886 C11.4269057,17.6930819 11.1002285,17.3044357 10.9488147,16.8296544 C10.833646,16.4780829 10.8819729,16.0895965 11.0214619,15.7565624 C11.2758057,15.1646439 11.705413,14.6836303 12.032404,14.1409318 C12.3110682,13.6784555 12.3593951,13.0863772 12.1477296,12.5868262 C11.826544,11.8530007 11.1970392,11.3165346 10.5430571,10.8911331 C10.4581712,10.8417533 10.3855239,10.7492261 10.2825939,10.7369211 C10.7186343,11.1377126 11.0575502,11.705021 11.0456254,12.3156367 C11.0333867,12.7718806 10.7851622,13.1726721 10.4945733,13.4996335 C9.89519425,14.2272266 9.39262594,15.1523389 9.49555595,16.1327439 C9.59848596,17.1133086 10.2887132,17.9025866 11.0333867,18.469895 L11.0333867,18.469895 Z" id="path162" stroke="#E9232E" stroke-width="0.5"></path>
                                            <path d="M15.1992277,11.3409848 C15.4532577,11.6554814 15.8590153,11.7357036 16.228214,11.7850834 C16.8702713,11.8713783 17.5543793,11.7048612 18.0387465,11.25469 C18.4383848,10.8909733 18.6624459,10.323505 18.57756,9.77473395 C18.4868686,9.13950825 18.0688724,8.60911477 17.5969007,8.20832332 C16.7431778,7.51157262 15.6895574,7.10454875 14.635937,6.83319951 C14.6966594,6.90111673 14.7631873,6.96264173 14.841797,7.01202154 C15.6410736,7.44988781 16.4342309,7.96158408 17.0216851,8.67703199 C17.3786451,9.12097085 17.6573093,9.70074414 17.5422975,10.28659 C17.4213234,10.9648033 16.7734606,11.4582818 16.1133592,11.4951968 C15.7982929,11.5260392 15.5018984,11.4026696 15.1992277,11.3409848" id="path164" fill="#3471C0"></path>
                                            <path d="M15.1992277,11.3409848 C15.4532577,11.6554814 15.8590153,11.7357036 16.228214,11.7850834 C16.8702713,11.8713783 17.5543793,11.7048612 18.0387465,11.25469 C18.4383848,10.8909733 18.6624459,10.323505 18.57756,9.77473395 C18.4868686,9.13950825 18.0688724,8.60911477 17.5969007,8.20832332 C16.7431778,7.51157262 15.6895574,7.10454875 14.635937,6.83319951 C14.6966594,6.90111673 14.7631873,6.96264173 14.841797,7.01202154 C15.6410736,7.44988781 16.4342309,7.96158408 17.0216851,8.67703199 C17.3786451,9.12097085 17.6573093,9.70074414 17.5422975,10.28659 C17.4213234,10.9648033 16.7734606,11.4582818 16.1133592,11.4951968 C15.7982929,11.5260392 15.5018984,11.4026696 15.1992277,11.3409848 L15.1992277,11.3409848 Z" id="path166" stroke="#3471C0" stroke-width="0.5"></path>
                                            <path d="M3.0280682,10.7800685 C4.14209724,11.2671548 5.35309388,11.5816514 6.57005293,11.5632738 C5.8616246,11.3536094 5.13515214,11.1747874 4.4690883,10.8540583 C4.31171209,10.7677635 4.13001552,10.6875413 4.03916724,10.5210243 C3.99084034,10.391582 4.12389621,10.3052872 4.2207069,10.2621398 C4.63242693,10.0893904 5.08666835,10.0646206 5.52867113,10.0214732 C7.07858365,9.91664097 8.63477238,9.97832578 10.1790363,10.0770854 C11.7044716,10.1756852 13.2184527,10.3853496 14.7258438,10.6320889 C14.3930473,10.4716445 14.0538176,10.3113598 13.7451845,10.1079278 C13.5876514,9.99686318 13.39403,9.96602078 13.2184527,9.92287337 C11.3655557,9.50354451 9.46417485,9.37394249 7.57518955,9.34325989 C6.84244087,9.33702749 6.11612532,9.34933249 5.38949596,9.3987123 C4.57813762,9.4541647 3.76065998,9.51584951 2.96750268,9.73174635 C2.73732232,9.79950376 2.49521713,9.87349357 2.31352056,10.0400106 C2.22267228,10.1140004 2.22267228,10.2621398 2.30143884,10.3482748 C2.50117954,10.5580991 2.77984371,10.6566989 3.0280682,10.7800685" id="path168" fill="#3471C0"></path>
                                            <path d="M3.0280682,10.7800685 C4.14209724,11.2671548 5.35309388,11.5816514 6.57005293,11.5632738 C5.8616246,11.3536094 5.13515214,11.1747874 4.4690883,10.8540583 C4.31171209,10.7677635 4.13001552,10.6875413 4.03916724,10.5210243 C3.99084034,10.391582 4.12389621,10.3052872 4.2207069,10.2621398 C4.63242693,10.0893904 5.08666835,10.0646206 5.52867113,10.0214732 C7.07858365,9.91664097 8.63477238,9.97832578 10.1790363,10.0770854 C11.7044716,10.1756852 13.2184527,10.3853496 14.7258438,10.6320889 C14.3930473,10.4716445 14.0538176,10.3113598 13.7451845,10.1079278 C13.5876514,9.99686318 13.39403,9.96602078 13.2184527,9.92287337 C11.3655557,9.50354451 9.46417485,9.37394249 7.57518955,9.34325989 C6.84244087,9.33702749 6.11612532,9.34933249 5.38949596,9.3987123 C4.57813762,9.4541647 3.76065998,9.51584951 2.96750268,9.73174635 C2.73732232,9.79950376 2.49521713,9.87349357 2.31352056,10.0400106 C2.22267228,10.1140004 2.22267228,10.2621398 2.30143884,10.3482748 C2.50117954,10.5580991 2.77984371,10.6566989 3.0280682,10.7800685 L3.0280682,10.7800685 Z" id="path170" stroke="#3471C0" stroke-width="0.5"></path>
                                            <path d="M4.4574773,8.1464787 C4.77238663,8.39929054 5.14786149,8.54119756 5.52317944,8.67687218 C5.4022053,8.52889256 5.23259046,8.38698554 5.22050874,8.18355351 C5.21454633,8.05411129 5.31747633,7.95535167 5.42024944,7.89366686 C5.61999013,7.78883465 5.84405119,7.75175984 6.06826914,7.72107724 C7.23062508,7.59770762 8.40521964,7.52979041 9.57997111,7.61001262 C10.6514788,7.66546503 11.7173378,7.84444686 12.7770775,8.03557389 C13.0676665,7.75799224 13.4127017,7.56686522 13.7760949,7.40034819 C12.4982565,7.01809414 11.1844867,6.7959649 9.86459768,6.69113269 C8.61735587,6.60483787 7.35191303,6.61091047 6.11047672,6.81466211 C5.61999013,6.90702952 5.11757873,7.01186173 4.66961353,7.24613617 C4.48791696,7.34489578 4.28205695,7.474338 4.22745384,7.69023484 C4.19120866,7.87512946 4.32442143,8.04164648 4.4574773,8.1464787" id="path172" fill="#3471C0"></path>
                                            <path d="M4.4574773,8.1464787 C4.77238663,8.39929054 5.14786149,8.54119756 5.52317944,8.67687218 C5.4022053,8.52889256 5.23259046,8.38698554 5.22050874,8.18355351 C5.21454633,8.05411129 5.31747633,7.95535167 5.42024944,7.89366686 C5.61999013,7.78883465 5.84405119,7.75175984 6.06826914,7.72107724 C7.23062508,7.59770762 8.40521964,7.52979041 9.57997111,7.61001262 C10.6514788,7.66546503 11.7173378,7.84444686 12.7770775,8.03557389 C13.0676665,7.75799224 13.4127017,7.56686522 13.7760949,7.40034819 C12.4982565,7.01809414 11.1844867,6.7959649 9.86459768,6.69113269 C8.61735587,6.60483787 7.35191303,6.61091047 6.11047672,6.81466211 C5.61999013,6.90702952 5.11757873,7.01186173 4.66961353,7.24613617 C4.48791696,7.34489578 4.28205695,7.474338 4.22745384,7.69023484 C4.19120866,7.87512946 4.32442143,8.04164648 4.4574773,8.1464787 L4.4574773,8.1464787 Z" id="path174" stroke="#3471C0" stroke-width="0.5"></path>
                                            <path d="M5.16041393,5.45855513 C5.43892119,5.68675696 5.78395638,5.80405398 6.12318607,5.9026538 C6.01413675,5.79798139 5.82035846,5.66837936 5.90524433,5.48955734 C6.06873986,5.2735007 6.37141057,5.2488907 6.61367266,5.19327849 C7.63685341,5.06399607 8.6722728,4.97770126 9.69561046,5.05792348 C10.4705667,5.10714348 11.2332843,5.2488907 11.9903534,5.38472512 C12.4260799,5.12552108 12.8803214,4.90371145 13.3463307,4.70619222 C12.6320969,4.37955038 11.863103,4.16988594 11.0942661,4.02174652 C9.79854047,3.78747209 8.46029347,3.75662968 7.15844855,3.96629411 C6.58323299,4.07112633 5.99593571,4.20664114 5.47532327,4.49668759 C5.27542566,4.613665 5.06360324,4.74949943 4.97887427,4.97770126 C4.91218943,5.15652329 5.02108185,5.34749051 5.16041393,5.45855513" id="path176" fill="#3471C0"></path>
                                            <path d="M5.16041393,5.45855513 C5.43892119,5.68675696 5.78395638,5.80405398 6.12318607,5.9026538 C6.01413675,5.79798139 5.82035846,5.66837936 5.90524433,5.48955734 C6.06873986,5.2735007 6.37141057,5.2488907 6.61367266,5.19327849 C7.63685341,5.06399607 8.6722728,4.97770126 9.69561046,5.05792348 C10.4705667,5.10714348 11.2332843,5.2488907 11.9903534,5.38472512 C12.4260799,5.12552108 12.8803214,4.90371145 13.3463307,4.70619222 C12.6320969,4.37955038 11.863103,4.16988594 11.0942661,4.02174652 C9.79854047,3.78747209 8.46029347,3.75662968 7.15844855,3.96629411 C6.58323299,4.07112633 5.99593571,4.20664114 5.47532327,4.49668759 C5.27542566,4.613665 5.06360324,4.74949943 4.97887427,4.97770126 C4.91218943,5.15652329 5.02108185,5.34749051 5.16041393,5.45855513 L5.16041393,5.45855513 Z" id="path178" stroke="#3471C0" stroke-width="0.5"></path>
                                            <path d="M1.79949815,3.71348228 C2.35666958,3.9046093 2.93188513,4.05882133 3.51918241,4.07719892 C3.75532519,4.08343133 3.99743037,4.07112633 4.20329039,3.94775671 C3.50098138,3.9046093 2.79851546,3.72578728 2.16885369,3.39898563 C2.02967852,3.31876342 1.8721454,3.2262362 1.81769919,3.05971918 C1.81769919,2.86859215 2.02967852,2.80690734 2.16885369,2.74538233 C3.04689686,2.41234828 3.98534865,2.30751607 4.90575631,2.20875645 C7.64846442,1.97448202 10.4093736,2.03600702 13.1522386,2.28897867 C14.187658,2.40611588 15.2290398,2.5232531 16.2341764,2.81313974 C16.5550481,2.92420436 16.9182844,3.03494937 17.1302637,3.32499582 C17.2575141,3.49758544 17.172942,3.71348228 17.0456916,3.8614619 C17.2513947,3.74416487 17.5421406,3.59618525 17.4999331,3.31253101 C17.4211665,3.01657177 17.1241444,2.86235975 16.8820392,2.72061253 C16.1070829,2.31966126 15.2533601,2.11606943 14.4055997,1.93740721 C11.9413989,1.44408854 9.41647558,1.33302392 6.90975333,1.40701373 C5.02061113,1.47509075 3.13162583,1.65998537 1.26664708,1.98662721 C0.933693609,2.06684943 0.558375657,2.13492645 0.316113567,2.39988348 C0.158737352,2.58493791 0.297912529,2.84398215 0.44916943,2.97949696 C0.830763602,3.33714101 1.32125019,3.53450044 1.79949815,3.71348228" id="path180" fill="#3471C0"></path>
                                            <path d="M1.79949815,3.71348228 C2.35666958,3.9046093 2.93188513,4.05882133 3.51918241,4.07719892 C3.75532519,4.08343133 3.99743037,4.07112633 4.20329039,3.94775671 C3.50098138,3.9046093 2.79851546,3.72578728 2.16885369,3.39898563 C2.02967852,3.31876342 1.8721454,3.2262362 1.81769919,3.05971918 C1.81769919,2.86859215 2.02967852,2.80690734 2.16885369,2.74538233 C3.04689686,2.41234828 3.98534865,2.30751607 4.90575631,2.20875645 C7.64846442,1.97448202 10.4093736,2.03600702 13.1522386,2.28897867 C14.187658,2.40611588 15.2290398,2.5232531 16.2341764,2.81313974 C16.5550481,2.92420436 16.9182844,3.03494937 17.1302637,3.32499582 C17.2575141,3.49758544 17.172942,3.71348228 17.0456916,3.8614619 C17.2513947,3.74416487 17.5421406,3.59618525 17.4999331,3.31253101 C17.4211665,3.01657177 17.1241444,2.86235975 16.8820392,2.72061253 C16.1070829,2.31966126 15.2533601,2.11606943 14.4055997,1.93740721 C11.9413989,1.44408854 9.41647558,1.33302392 6.90975333,1.40701373 C5.02061113,1.47509075 3.13162583,1.65998537 1.26664708,1.98662721 C0.933693609,2.06684943 0.558375657,2.13492645 0.316113567,2.39988348 C0.158737352,2.58493791 0.297912529,2.84398215 0.44916943,2.97949696 C0.830763602,3.33714101 1.32125019,3.53450044 1.79949815,3.71348228 L1.79949815,3.71348228 Z" id="path182" stroke="#3471C0" stroke-width="0.5"></path>
                                            <path d="M16.8890999,1.60405355 C17.5008745,1.81995038 18.1545428,2.04815222 18.6086273,2.54147089 C18.5298607,2.00500481 18.0757762,1.63489596 17.6276541,1.39454893 C16.7681258,0.93798545 15.8051968,0.728480825 14.8488577,0.555891202 C12.826189,0.22892975 10.773865,0.148867341 8.72107041,0.185622539 C7.32241479,0.22892975 5.91167746,0.284382156 4.53718529,0.580501204 C4.21019423,0.672868613 3.85903972,0.734713228 3.57457006,0.931912853 C4.79749151,0.722248422 6.03892782,0.635793805 7.28020721,0.586573802 C9.32060632,0.524888992 11.3671247,0.6049514 13.395599,0.864155445 C14.5701936,1.03051266 15.7507506,1.2341045 16.8890999,1.60405355" id="path184" fill="#3471C0"></path>
                                            <path d="M16.8890999,1.60405355 C17.5008745,1.81995038 18.1545428,2.04815222 18.6086273,2.54147089 C18.5298607,2.00500481 18.0757762,1.63489596 17.6276541,1.39454893 C16.7681258,0.93798545 15.8051968,0.728480825 14.8488577,0.555891202 C12.826189,0.22892975 10.773865,0.148867341 8.72107041,0.185622539 C7.32241479,0.22892975 5.91167746,0.284382156 4.53718529,0.580501204 C4.21019423,0.672868613 3.85903972,0.734713228 3.57457006,0.931912853 C4.79749151,0.722248422 6.03892782,0.635793805 7.28020721,0.586573802 C9.32060632,0.524888992 11.3671247,0.6049514 13.395599,0.864155445 C14.5701936,1.03051266 15.7507506,1.2341045 16.8890999,1.60405355 L16.8890999,1.60405355 Z" id="path186" stroke="#3471C0" stroke-width="0.5"></path>
                                        </g>
                                    </g>
                                </g>
                            </g>
                        </g>
                    </g>
                </g>
            </g>
        </g>
    </g>
</svg>