<?xml version="1.0" encoding="UTF-8" standalone="no"?>
<svg width="40px" height="40px" viewBox="0 0 40 40" version="1.1" xmlns="http://www.w3.org/2000/svg" xmlns:xlink="http://www.w3.org/1999/xlink">
    <!-- Generator: Sketch 42 (36781) - http://www.bohemiancoding.com/sketch -->
    <title>taskmanagers</title>
    <desc>Created with Sketch.</desc>
    <defs>
        <ellipse id="path-1" cx="18.6436151" cy="18.6530499" rx="18.5" ry="18.5"></ellipse>
        <filter x="-50%" y="-50%" width="200%" height="200%" filterUnits="objectBoundingBox" id="filter-2">
            <feMorphology radius="1" operator="dilate" in="SourceAlpha" result="shadowSpreadOuter1"></feMorphology>
            <feOffset dx="0" dy="0" in="shadowSpreadOuter1" result="shadowOffsetOuter1"></feOffset>
            <feComposite in="shadowOffsetOuter1" in2="SourceAlpha" operator="out" result="shadowOffsetOuter1"></feComposite>
            <feColorMatrix values="0 0 0 0 0.933333333   0 0 0 0 0.635294118   0 0 0 0 0.180392157  0 0 0 1 0" type="matrix" in="shadowOffsetOuter1"></feColorMatrix>
        </filter>
        <mask id="mask-3" maskContentUnits="userSpaceOnUse" maskUnits="objectBoundingBox" x="-1" y="-1" width="39" height="39">
            <rect x="-0.856384874" y="-0.846950071" width="39" height="39" fill="white"></rect>
            <use xlink:href="#path-1" fill="black"></use>
        </mask>
        <polygon id="path-4" points="0.000980645161 14.0896973 14.6596645 14.0896973 14.6596645 0.0108649733 0.000980645161 0.0108649733"></polygon>
    </defs>
    <g id="Page-1" stroke="none" stroke-width="1" fill="none" fill-rule="evenodd">
        <g id="take-two" transform="translate(-174.000000, -2178.000000)">
            <g id="experience-and-skills" transform="translate(132.000000, 786.000000)">
                <g id="technical-skills" transform="translate(37.000000, 601.000000)">
                    <g id="skills-list" transform="translate(0.000000, 284.000000)">
                        <g id="frontend-dev" transform="translate(1.000000, 212.000000)">
                            <g id="sub-task-managers" transform="translate(5.000000, 296.000000)">
                                <g id="taskmanagers">
                                    <g id="Oval-2-Copy-5">
                                        <use fill="black" fill-opacity="1" filter="url(#filter-2)" xlink:href="#path-1"></use>
                                        <use fill="#FFFFFF" fill-rule="evenodd" xlink:href="#path-1"></use>
                                        <use stroke-opacity="0.163043478" stroke="#979797" mask="url(#mask-3)" stroke-width="2" xlink:href="#path-1"></use>
                                    </g>
                                    <g id="grunt-logo" transform="translate(8.000000, 8.000000)">
                                        <path d="M4.1502129,5.11696781 C4.1502129,5.11696781 4.50183548,6.49073503 4.55197097,6.94867813 C4.60229032,7.40655914 3.64787742,8.4241415 3.64787742,8.93299476 C3.64787742,9.44184802 3.84854194,10.3576721 4.95372903,10.8156773 C6.05885484,11.2736204 6.20944516,12.4438091 6.20944516,13.156303 C6.20944516,13.8686106 5.8076871,15.2422537 5.8076871,15.2422537 C5.8076871,15.2422537 5.55664194,18.6512477 6.91275161,19.2617971 C8.2688,19.8722844 7.96755806,19.8722844 8.2688,19.8722844 C8.57010323,19.8722844 10.7802935,20.7883569 12.0861452,20.432172 C13.3921194,20.0759251 13.7434968,19.6690163 13.7434968,19.6690163 C13.7434968,19.6690163 15.0495935,19.7705883 15.4514129,18.6002755 C15.8533548,17.4301489 16.1044,14.9879512 15.9536871,13.8684865 C15.8029742,12.7489596 15.6021258,11.2736825 16.5061581,10.7647672 C17.4104355,10.2559139 18.3647258,9.64555075 18.2140129,9.13669749 C18.0633,8.62784422 17.2597839,7.91541241 17.2597839,7.91541241 C17.2597839,7.91541241 17.0588129,6.64352759 17.2094032,6.3381908 C17.3599935,6.03285401 18.2642097,5.26951203 17.7618742,4.70993487 C17.2597839,4.1503577 16.3554452,4.1503577 16.3554452,4.1503577 L15.2003065,4.25199176 C15.2003065,4.25199176 13.2414065,2.47125369 10.6797161,2.57301193 C8.11814839,2.67477016 6.51062581,4.25199176 6.51062581,4.25199176 C6.51062581,4.25199176 5.65685161,3.94665497 4.90334839,4.25199176 C4.14984516,4.55732856 3.99962258,4.25186759 4.1502129,5.11696781" id="Fill-1" fill="#EEA32E"></path>
                                        <path d="M8.73981613,12.6924618 C8.73981613,12.6924618 7.74513548,14.233115 7.01553548,15.3263796 C6.90263871,15.4955007 7.74513548,15.5072349 7.74513548,15.5072349 L8.73981613,12.6924618" id="Fill-2" fill="#DA7F2E"></path>
                                        <path d="M9.21340645,9.4982838 C9.21340645,9.4982838 8.91363548,10.2560381 8.74931613,10.6577317 C8.57102258,11.0944415 7.8913129,11.3116789 7.8913129,11.3116789 C7.8913129,11.3116789 8.24360968,10.9373029 8.24360968,9.98894599 C8.24360968,9.59097754 8.75072581,9.43284561 8.75072581,9.43284561 L9.21340645,9.4982838" id="Fill-3" fill="#DA7F2E"></path>
                                        <path d="M8.91050968,9.92673626 C8.91050968,9.92673626 8.29619677,10.6674791 7.15558387,10.2526234 C6.01466452,9.83789182 5.89772258,8.35621989 5.89772258,7.94136417 C5.89772258,7.52657053 8.0623129,8.35621989 8.3549129,8.53403294 C8.6475129,8.71184599 9.2029871,9.42291193 8.91050968,9.92673626" id="Fill-4" fill="#DA7F2E"></path>
                                        <path d="M4.60186129,2.01138594 C4.60186129,2.01138594 5.65482903,1.8038339 6.3567871,2.36688786 C7.05905161,2.92981765 7.26357742,3.37435027 7.26357742,3.37435027 L6.08036774,4.3245077 C6.08036774,4.3245077 5.50859032,4.05598765 5.33311613,3.28550583 C5.15758065,2.5150861 5.27464516,2.15958417 4.60186129,2.01138594" id="Fill-5" fill="#DA7F2E"></path>
                                        <path d="M8.60338387,7.78708155 C8.15001935,7.13518316 7.40289032,6.85083128 6.80635161,6.80364626 C5.78917742,6.7230592 5.30627097,7.08737727 5.30627097,7.08737727 C5.30627097,7.08737727 6.97214194,7.15883775 7.45229032,7.7976361 C8.34620968,8.98663668 9.65022258,9.08317973 9.85867097,8.82210995 C9.61755484,8.83427872 9.35229032,8.71327396 9.06839355,8.44127711 C8.89101935,8.27116267 8.74723226,7.99401273 8.60338387,7.78708155" id="Fill-6" fill="#DA7F2E"></path>
                                        <path d="M5.7912,10.0921322 C5.7912,10.0921322 3.94286774,9.44849118 4.29418387,8.79671695 C4.64513226,8.14469439 4.36577097,7.78956497 4.36577097,7.78956497 C4.36577097,7.78956497 3.33370323,8.56998048 3.5967,9.39956775 C3.75832258,9.90879353 4.02947097,10.2774576 5.51839677,10.9843017 C6.23255161,12.3280195 5.6658,14.7466867 5.69981613,14.7580484 C5.7563871,14.7771087 6.70252581,14.2843356 6.63792581,12.0215031 C6.61825161,11.3266415 6.56339677,10.3780362 5.7912,10.0921322" id="Fill-7" fill="#DA7F2E"></path>
                                        <path d="M8.21327097,3.1708338 C7.43825484,3.56967144 6.37652258,4.12508888 6.37652258,4.12508888 L6.7944,4.33686273 C6.7545,4.40230091 6.73525484,4.44129064 6.73525484,4.44129064 L7.16416452,4.6388469 C7.16416452,4.6388469 8.2111871,5.40721781 8.8527129,5.90110845 C8.63880968,5.23399909 8.01095161,4.18580856 8.01095161,4.18580856 C8.01095161,4.18580856 7.8330871,3.70427294 8.21327097,3.1708338" id="Fill-8" fill="#DA7F2E"></path>
                                        <path d="M10.7879548,19.4285589 C8.40584516,19.4285589 7.59895806,18.2034866 7.59895806,18.2034866 L7.97123548,19.1217942 C8.11195806,19.5191418 9.61308065,20.7553274 10.7843387,20.7553274" id="Fill-9" fill="#DA7F2E"></path>
                                        <path d="M7.85999355,17.375824 C7.85999355,17.375824 8.07910645,18.7326419 8.95666129,18.7326419 C9.70238065,18.7326419 9.92216774,17.5865424 9.92216774,17.3496239 L7.85999355,17.375824" id="Fill-10" fill="#DA7F2E"></path>
                                        <path d="M6.39962903,15.329546 C6.47759032,15.1121224 6.75057742,14.233115 6.83822258,13.4331425 C6.94339677,12.4750381 6.90509032,11.0737049 6.90509032,11.0737049 C6.90509032,11.0737049 6.67096129,11.9922608 6.46619032,12.1407074 C6.26154194,12.2887814 5.88117419,13.2961197 5.88117419,13.2961197 C5.88117419,13.2961197 5.67738387,14.7958585 5.58042258,15.2999933 C5.84875161,15.3544423 6.07466774,15.1941995 6.39962903,15.329546" id="Fill-11" fill="#DA7F2E"></path>
                                        <path d="M4.28039355,9.38485348 C4.28039355,9.38485348 4.77751935,9.20691626 4.92388065,8.11073358 C5.07011935,7.01430257 4.74828387,6.06613187 4.74828387,6.06613187 C4.74828387,6.06613187 4.77751935,7.57729444 4.60210645,7.87369091 C4.42644839,8.16996321 4.28039355,8.25880765 4.0755,8.64417273 C3.87060645,9.02953781 4.16320645,9.26633214 4.28039355,9.38485348" id="Fill-12" fill="#DA7F2E"></path>
                                        <path d="M4.9679586,2.51240775 L4.82157606,2.20558957 C4.38994205,2.25414231 4.9679586,2.51240775 4.9679586,2.51240775" id="Fill-13" fill="#F6BC68"></path>
                                        <path d="M8.61790968,2.84625048 C8.61790968,2.84625048 8.15001935,2.76727765 7.91589032,2.41177572 C7.68176129,2.05614963 7.01890645,1.34489743 5.96201613,1.33695048 C4.90524839,1.32894144 3.85969677,1.62142652 3.85969677,1.62142652 L4.77237097,2.20558957 C4.86890323,2.20248529 5.03769677,2.20372701 5.3168129,2.21316401 C6.46226774,2.25171914 6.6386,3.39937075 6.6386,3.39937075 L10.6753032,2.83637888" id="Fill-14" fill="#EEA32E"></path>
                                        <path d="M9.00808387,9.18493797 C9.00808387,9.18493797 8.4619871,9.73812032 7.62329032,9.5601831 C6.78465484,9.38255631 6.27753871,9.00718701 6.23855806,8.35516444 C6.19957742,7.70326604 6.41421613,7.44648016 6.41421613,7.44648016 C6.41421613,7.44648016 7.35024194,7.7430008 7.79894839,8.13811332 C8.24747097,8.53310166 8.57892903,9.16525684 9.00808387,9.18493797" id="Fill-15" fill="#FFFFFF"></path>
                                        <path d="M8.34712903,8.98731963 C8.34712903,8.98731963 7.87353871,9.20648166 7.34417419,9.02798567 C6.65122581,8.79386102 6.60507419,8.06385898 6.60507419,8.06385898 C6.60507419,8.06385898 6.18002581,9.32748642 7.37181613,9.57079973 C8.32776129,9.76587257 8.89310323,9.20474326 8.89310323,9.20474326 L8.34712903,8.98731963" id="Fill-16" fill="#C4C3BF"></path>
                                        <path d="M8.68367419,2.57816503 C8.63274194,1.49439947 9.50980645,0.631223904 9.81368387,0.594469251 C9.83047742,0.778118342 9.79670645,1.49439947 10.1005839,1.71474112 C10.1890871,1.12964679 10.4881839,0.484577807 11.6692484,0.0619613904 C11.4163032,0.741549947 11.6354774,1.31081246 11.7398548,1.5746761 C12.5463742,0.83312615 13.0897742,0.955683048 13.0897742,0.955683048 C13.0897742,0.955683048 12.5294581,1.93520695 12.748571,2.57797877 C11.1294645,2.44933749 8.69158065,2.75219086 8.68367419,2.57816503" id="Fill-17" fill="#3A2D1D"></path>
                                        <path d="M5.25129355,4.22895802 C4.86498065,3.90437471 5.15292258,3.60307348 5.1224,3.23416107 C5.10585161,3.03790861 5.09052903,2.85270738 5.02660323,2.75057663 C4.67111935,2.18193497 3.83242258,2.0093992 3.8240871,2.00759872 L3.43048065,1.92949508 L3.69102581,1.62074358 C3.72479677,1.58076048 4.79480323,0.546601283 6.45068387,1.08811155 C7.60894839,1.46658513 8.4664,2.74976952 8.49827097,2.80161096 L7.91754516,3.07820214 C7.91068065,3.06727508 7.23280968,1.86120096 6.23917097,1.53661765 C5.43583871,1.27405781 4.69557419,1.52382802 4.37839677,1.68748556 C4.71555484,1.82382545 5.15629355,2.0721677 5.42180323,2.49683294 C5.54714194,2.69743139 5.5682871,2.94999545 5.58869677,3.19455048 C5.61560323,3.51832668 5.64079355,3.8239739 5.87602581,4.02190267 L5.25129355,4.22895802" id="Fill-18" fill="#3A2D1D"></path>
                                        <path d="M4.21959355,8.96813519 C4.21959355,8.96813519 4.7063,8.35684075 4.85045484,7.16715722 C4.9070871,6.69865957 4.80650968,5.7744539 4.64556129,5.41882781 C4.67479677,6.29293043 4.45543871,7.16715722 4.45543871,7.16715722 C4.45543871,7.16715722 4.30754516,8.79032214 4.21959355,8.96813519" id="Fill-19" fill="#3A2D1D"></path>
                                        <path d="M6.78594194,3.61151711 C6.78569677,3.61021332 6.62977419,2.92000813 6.19749355,2.57158396 C5.58771613,2.08023882 4.84316129,2.34161904 4.83599032,2.3439162 L4.72787419,2.00561198 C4.7639129,1.99375364 5.61486774,1.7221293 6.39913871,2.28058893 C7.18812903,2.84221492 7.28282258,3.35131652 7.29103548,3.40762813 L6.78594194,3.61151711" id="Fill-20" fill="#3A2D1D"></path>
                                        <path d="M5.74817419,8.52968695 C5.74817419,8.52968695 5.49283871,8.15934658 5.53880645,7.75218947 C5.56166774,7.55109433 5.65366452,7.34459775 5.81792258,7.27139888 C6.12314839,7.13555567 6.25841613,7.48602866 6.25841613,7.48602866 C6.25841613,7.48602866 5.82883226,7.59343668 5.74817419,8.52968695" id="Fill-21" fill="#3A2D1D"></path>
                                        <path d="M8.55177742,9.09404471 C8.56244194,9.11422251 8.56789677,9.12552209 8.56789677,9.12552209 C8.56789677,9.12552209 7.77149032,9.73098048 6.9552871,9.11658176 C6.51840968,8.78740412 6.55971935,7.97308989 6.69357742,7.62783209 C7.04164516,7.7077362 7.33688065,7.85183679 7.58363548,8.02002658 C7.27179032,7.73809604 6.99880323,7.53054401 6.99953871,7.52570134 L6.64509677,7.42406727 L5.95619355,7.18478952 C5.94736774,7.23805893 5.69607742,8.43109508 6.42144839,9.24410551 C6.74291613,9.60451219 8.24998387,10.4117487 8.96560968,9.03152455 L8.55177742,9.09404471" id="Fill-22" fill="#3A2D1D"></path>
                                        <path d="M8.4771871,9.18276497 C8.9255871,9.8740877 10.0569452,9.47903727 10.0374548,8.74816604 C10.0374548,8.74816604 9.2815,9.17072037 8.61361935,8.39266412 C8.22369032,7.93832198 6.97422581,6.68580786 5.27979355,7.10209155 C6.44994839,7.36272674 7.99906129,8.44568519 8.4771871,9.18276497" id="Fill-23" fill="#3A2D1D"></path>
                                        <path d="M5.12148065,11.1339279 C5.22935161,11.1970068 5.60978065,11.5960928 5.61002581,12.1929834 C5.61002581,12.4922979 5.58054516,13.9959481 5.43436774,14.9146282 C5.65433871,15.0594117 5.80756452,15.0902061 6.02661613,15.2377835 C6.13626452,14.1738853 6.2149,12.6319283 6.17824839,12.0094585 C6.1363871,11.2998205 5.76129032,10.8236243 5.41346774,10.6206045 C5.30455484,10.557153 5.19073871,10.4947571 5.07612581,10.4319265 C4.48038387,10.1058531 3.86435484,9.76854225 3.86435484,9.19263658 C3.86435484,8.74201957 4.03725484,8.60114743 4.22026774,8.45176957 L4.24000323,8.43556524 C4.36148065,8.33616626 4.49895484,8.22341888 4.58040968,8.03821765 C4.80264839,7.53203406 4.83899355,6.24264112 4.58040968,5.91532604 C4.45151613,5.75222727 4.10614516,5.20376342 4.20543548,4.83522353 C4.24325161,4.69453765 4.3307129,4.59035807 4.47309032,4.51641417 C4.62374194,4.43824845 4.8272871,4.39863786 5.07784194,4.39863786 C5.57000323,4.39863786 6.11585484,4.55037497 6.39748387,4.64077155 C7.40380968,4.96380273 8.61815484,5.89539658 8.96622258,6.17322947 C8.97615161,6.18092807 8.98209677,6.18552241 8.98313871,6.18626743 L9.20586774,6.34315765 L9.06655484,6.10704626 C9.05797419,6.09233198 8.17576129,4.62289091 6.59833226,4.08405032 C6.29145161,3.97924989 5.68853871,3.80342358 5.09604516,3.80342358 C4.74325806,3.80342358 4.44397742,3.86581957 4.20696774,3.98874898 C3.91804516,4.13843727 3.72246774,4.37728043 3.64113548,4.67920251 C3.44194194,5.41932449 4.0907,6.24338615 4.11282581,6.26964834 C4.18851935,6.40648492 4.2205129,7.39997807 4.04577419,7.7976361 C4.02180968,7.85258182 3.95586129,7.90647209 3.87250645,7.97464203 C3.84639677,7.99606155 3.81716129,8.0182261 3.78614839,8.04206695 C3.53963871,8.23055872 3.16687097,8.51534519 3.16687097,9.17183791 C3.16687097,10.0700297 4.06550968,10.5570289 4.78769355,10.9486025 C4.90616774,11.0131094 5.01930968,11.0742016 5.12148065,11.1339279" id="Fill-24" fill="#3A2D1D"></path>
                                        <path d="M5.25129355,4.22895802 C4.86498065,3.90437471 5.15292258,3.60307348 5.1224,3.23416107 C5.10585161,3.03790861 5.09052903,2.85270738 5.02660323,2.75057663 C4.67111935,2.18193497 3.83242258,2.0093992 3.8240871,2.00759872 L3.43048065,1.92949508 L3.69102581,1.62074358 C3.72479677,1.58076048 4.79480323,0.546601283 6.45068387,1.08811155 C7.60894839,1.46658513 8.4664,2.74976952 8.49827097,2.80161096 L7.91754516,3.07820214 C7.91068065,3.06727508 7.23280968,1.86120096 6.23917097,1.53661765 C5.43583871,1.27405781 4.69557419,1.52382802 4.37839677,1.68748556 C4.71555484,1.82382545 5.15629355,2.0721677 5.42180323,2.49683294 C5.54714194,2.69743139 5.5682871,2.94999545 5.58869677,3.19455048 C5.61560323,3.51832668 5.64079355,3.8239739 5.87602581,4.02190267 L5.25129355,4.22895802" id="Fill-25" fill="#3A2D1D"></path>
                                        <path d="M5.23879032,4.29551374 L5.21384516,4.27459091 C4.92737419,4.03376102 4.97818387,3.79647 5.0274,3.56700176 C5.04977097,3.4610838 5.07330645,3.35156487 5.06380645,3.23919 C5.04817742,3.05032572 5.03322258,2.87220225 4.97708065,2.78217818 C4.6385129,2.24079209 3.82047097,2.06732503 3.81238065,2.0657108 L3.32070968,1.96798813 L3.64659032,1.58206428 C3.65253548,1.57492444 4.33953871,0.872364225 5.50307419,0.872364225 C5.82025161,0.872364225 6.1452129,0.925881979 6.46851935,1.03161369 C7.67740968,1.42647786 8.53982581,2.75690936 8.54797742,2.7700715 L8.58285161,2.82656936 L7.89584839,3.15388444 L7.86820645,3.10961743 C7.79429032,2.98196952 7.14289677,1.8937338 6.22139677,1.59261882 C5.99505161,1.51861283 5.75663226,1.48123733 5.51294194,1.48123733 C5.07146774,1.48123733 4.71347097,1.60311128 4.52298065,1.68494005 C4.84132258,1.83015818 5.22739032,2.07458904 5.47169355,2.46485888 C5.60457097,2.67750193 5.62602258,2.93733 5.64716774,3.18834193 C5.67303226,3.50044604 5.6974871,3.79398658 5.91359677,3.97583519 L5.99517419,4.04431556 L5.23879032,4.29551374" id="Fill-26" fill="#3A2D1D"></path>
                                        <path d="M6.78594194,3.61151711 C6.78569677,3.61021332 6.62977419,2.92000813 6.19749355,2.57158396 C5.58771613,2.08023882 4.84316129,2.34161904 4.83599032,2.3439162 L4.72787419,2.00561198 C4.7639129,1.99375364 5.61486774,1.7221293 6.39913871,2.28058893 C7.18812903,2.84221492 7.28282258,3.35131652 7.29103548,3.40762813 L6.78594194,3.61151711" id="Fill-27" fill="#3A2D1D"></path>
                                        <path d="M5.31693548,2.2132261 C5.66334839,2.2132261 5.98070968,2.3211308 6.2339,2.52514396 C6.60102903,2.82129209 6.77362258,3.34417668 6.82584194,3.53161299 L7.22373871,3.37093556 C7.1877,3.22863545 7.02908065,2.80161096 6.36573548,2.32913984 C6.0483129,2.1031484 5.68320645,1.98866262 5.28016129,1.98866262 C5.05902581,1.98866262 4.88722903,2.02429973 4.80234194,2.04602968 L4.8741129,2.27071733 C4.95734516,2.2480561 5.11755806,2.2132261 5.31693548,2.2132261 L5.31693548,2.2132261 Z M6.74408065,3.69222834 L6.72888065,3.62430674 C6.72722581,3.61766358 6.57430645,2.95105091 6.16096452,2.61814813 C5.92536452,2.42810422 5.64122258,2.33162326 5.31693548,2.33162326 C5.06380645,2.33162326 4.87576774,2.39283963 4.85523548,2.39997947 L4.79933871,2.41885348 L4.65426452,1.96755353 L4.70985484,1.94936246 C4.7348,1.94135342 4.96065484,1.87001711 5.28016129,1.87001711 C5.70165484,1.87001711 6.10016452,1.99530578 6.43309355,2.23210011 C7.24188065,2.80781952 7.34061935,3.34014112 7.34907742,3.39893615 L7.35612581,3.44531406 L6.74408065,3.69222834 L6.74408065,3.69222834 Z" id="Fill-28" fill="#3A2D1D"></path>
                                        <path d="M8.92000968,18.4071273 L8.92000968,18.4071273 C8.74717097,18.4071273 8.57077742,18.3436137 8.44850323,18.236392 C8.3549129,18.1546874 8.03840968,17.8602776 7.89885161,17.4994364 C7.84675484,17.3645865 7.85846129,17.2566197 7.93403226,17.1789507 C7.98606774,17.1257434 8.09418387,17.0621057 8.31372581,17.0621057 L8.46989355,17.0619194 C8.65597097,17.0617332 8.9692871,17.0617332 9.23706452,17.0617332 L9.49380968,17.0617332 C9.66076452,17.0617332 9.78046452,17.0982395 9.84929355,17.1695758 C9.93767419,17.2615866 9.90935806,17.3786179 9.88465806,17.4402067 C9.84163226,17.5481735 9.66352258,17.8992674 9.36209677,18.2257753 C9.25422581,18.3426204 9.09713871,18.4071273 8.92000968,18.4071273" id="Fill-29" fill="#3A2D1D"></path>
                                        <path d="M9.10124516,9.22343102 L8.4771871,9.18276497 C8.4771871,9.18276497 8.63672581,9.46761353 8.74006129,9.83602925 C8.85675806,10.2527475 8.63335484,10.8617448 8.63335484,10.8617448 C8.63335484,10.8617448 9.46537097,9.90748973 9.10124516,9.22343102" id="Fill-30" fill="#3A2D1D"></path>
                                        <path d="M8.32218387,20.0762976 C6.10108387,19.9033893 5.31963226,17.7773934 5.31963226,17.3345992 L5.89968387,17.3348475 L5.60965806,17.3345992 L5.89968387,17.3345992 C5.90262581,17.526009 6.4929129,19.3446193 8.36661935,19.4905824 L8.32218387,20.0762976" id="Fill-31" fill="#3A2D1D"></path>
                                        <path d="M7.69806452,16.2672863 C7.66337419,16.0640182 7.65975806,15.8713667 7.70210968,15.6820057 C7.53331613,15.5534886 7.23035806,15.5057448 7.00309355,15.431118 C6.81726129,15.3119758 5.86628065,15.5532403 5.17633548,14.7074487 C4.31189677,13.6483311 4.49386774,13.0159896 4.49386774,13.0159896 C4.27224194,13.2654494 4.05741935,13.1703964 3.71952581,14.3335073 C3.38126452,15.4968666 3.87839032,16.3078903 4.80491613,17.1220803 C5.24259032,17.5067625 5.86143871,17.6651427 6.39368387,17.7258003 C6.21539032,17.5444484 6.69823548,17.5263194 7.03104194,17.4001616 C7.00450323,17.1279784 7.04893871,16.8637423 7.24929677,16.650913 C7.3701,16.5226442 7.52553226,16.4460306 7.6867871,16.3848764 C7.69579677,16.3637673 7.70339677,16.3442724 7.71197742,16.3240325 C7.70664516,16.3055931 7.70137419,16.2869053 7.69806452,16.2672863" id="Fill-32" fill="#FFFFFF"></path>
                                        <path d="M7.02656774,17.3930838 C7.00732258,17.3360272 6.99279677,17.2777288 6.97851613,17.2191821 C6.96307097,17.1551098 6.88651935,16.97382 6.98096774,17.1808753 C6.95669677,17.1278543 6.94082258,17.0731569 6.92911613,17.018087 C5.42854516,17.0161624 4.12318387,15.9726282 4.37539355,13.7785866 C4.17901935,13.5144125 3.9038871,14.3112807 3.9038871,14.3112807 C3.9038871,14.3112807 3.1527129,16.5207817 5.09279677,17.3771278 C5.7392871,17.6626593 6.3105129,17.8674175 6.44535161,17.7847816 C6.72606129,17.8425833 6.97955806,17.644282 7.07455806,17.5139023 C7.05672258,17.473795 7.04048065,17.4336878 7.02656774,17.3930838" id="Fill-33" fill="#C4C3BF"></path>
                                        <path d="M7.67103548,15.9491599 C7.67330323,15.7638966 7.71069032,15.5845935 7.79907097,15.4058491 C7.80526129,15.3934941 7.81243226,15.3817599 7.81905161,15.3697774 C7.24163548,15.3647485 6.57663548,15.3086852 6.01037419,15.0791549 C5.38797097,14.8269013 4.6094,13.9641603 4.47560323,12.9504273 C4.47560323,12.9504273 3.30342581,13.866686 3.64787742,15.8278447 C3.97118387,17.6694266 5.49247097,18.269794 7.22747742,18.3713039 C7.22839677,18.3593835 7.03232903,17.9491842 7.09429355,17.6980481 C6.1091129,17.770564 5.00741935,17.3850127 4.47560323,16.4984929 C3.9887129,15.6871588 4.12526774,14.3019679 4.32538065,14.0990102 C4.81349677,15.6592203 6.56977097,15.9763534 7.67103548,15.9491599" id="Fill-34" fill="#3A2D1D"></path>
                                        <path d="M7.85282258,14.8322406 C7.54060968,15.7604198 6.90288387,16.5114688 6.90288387,16.5114688 C6.90288387,16.5114688 7.78013226,16.4710511 7.82855161,16.3138505 C7.86440645,16.1979367 8.62066774,14.4045953 8.91093871,12.3038061 C8.63789032,12.7581483 7.87948387,14.7527711 7.85282258,14.8322406" id="Fill-35" fill="#3A2D1D"></path>
                                        <path d="M12.8228548,12.6924618 C12.8228548,12.6924618 13.817229,14.233115 14.5471355,15.3263796 C14.659971,15.4955007 13.817229,15.5072349 13.817229,15.5072349 L12.8228548,12.6924618" id="Fill-36" fill="#DA7F2E"></path>
                                        <path d="M12.3491419,9.4982838 C12.3491419,9.4982838 12.6490355,10.2560381 12.8131097,10.6577317 C12.9914032,11.0944415 13.6711129,11.3116789 13.6711129,11.3116789 C13.6711129,11.3116789 13.3188161,10.9373029 13.3188161,9.98894599 C13.3188161,9.59097754 12.8117,9.43284561 12.8117,9.43284561 L12.3491419,9.4982838" id="Fill-37" fill="#DA7F2E"></path>
                                        <path d="M12.6520387,9.92673626 C12.6520387,9.92673626 13.2663516,10.6674791 14.4072097,10.2526234 C15.548129,9.83782973 15.665071,8.35621989 15.665071,7.94136417 C15.665071,7.52657053 13.5004806,8.35621989 13.2078806,8.53403294 C12.9152806,8.71184599 12.3595613,9.42291193 12.6520387,9.92673626" id="Fill-38" fill="#DA7F2E"></path>
                                        <path d="M16.9608097,2.01138594 C16.9608097,2.01138594 15.9078419,1.8038339 15.2056387,2.36688786 C14.5036806,2.92981765 14.2988484,3.37435027 14.2988484,3.37435027 L15.4821194,4.32438353 C15.4821194,4.32438353 16.0540806,4.05586348 16.2296161,3.28538166 C16.4049677,2.5150861 16.2880258,2.15958417 16.9608097,2.01138594" id="Fill-39" fill="#DA7F2E"></path>
                                        <path d="M12.9592258,7.78708155 C13.4126516,7.13518316 14.1594742,6.85083128 14.7563194,6.80364626 C15.7734935,6.7230592 16.2561548,7.08737727 16.2561548,7.08737727 C16.2561548,7.08737727 14.5903452,7.15883775 14.1101355,7.7976361 C13.2162161,8.98663668 11.912571,9.08317973 11.7041226,8.82210995 C11.9451774,8.83427872 12.2105645,8.71327396 12.4942774,8.44127711 C12.671529,8.27116267 12.8154387,7.99401273 12.9592258,7.78708155" id="Fill-40" fill="#DA7F2E"></path>
                                        <path d="M15.7714097,10.0921322 C15.7714097,10.0921322 17.6195581,9.44849118 17.2684871,8.79671695 C16.9175387,8.14469439 17.1966548,7.78956497 17.1966548,7.78956497 C17.1966548,7.78956497 18.2289677,8.56998048 17.9657258,9.39956775 C17.8041032,9.90879353 17.5329548,10.2774576 16.044029,10.9843017 C15.3298742,12.3280195 15.8965645,14.7466867 15.8627935,14.7580484 C15.8062226,14.7771087 14.8601452,14.2843356 14.9248065,12.0215031 C14.9443581,11.3266415 14.9992742,10.3780362 15.7714097,10.0921322" id="Fill-41" fill="#DA7F2E"></path>
                                        <path d="M13.3494613,3.1708338 C14.124171,3.56967144 15.1860871,4.12508888 15.1860871,4.12508888 L14.768271,4.33686273 C14.808171,4.40230091 14.8274774,4.44129064 14.8274774,4.44129064 L14.3985677,4.6388469 C14.3985677,4.6388469 13.3514839,5.40721781 12.7099581,5.90110845 C12.9236161,5.23399909 13.5515355,4.18580856 13.5515355,4.18580856 C13.5515355,4.18580856 13.7297677,3.70427294 13.3494613,3.1708338" id="Fill-42" fill="#DA7F2E"></path>
                                        <path d="M10.7748387,19.4285589 C13.1565806,19.4285589 13.9634677,18.2034866 13.9634677,18.2034866 L13.5914355,19.1217942 C13.4507129,19.5191418 11.9494677,20.7553274 10.7783935,20.7553274" id="Fill-43" fill="#DA7F2E"></path>
                                        <path d="M13.7026774,17.375824 C13.7026774,17.375824 13.4832581,18.7326419 12.6060097,18.7326419 C11.8604129,18.7326419 11.6406258,17.5865424 11.6406258,17.3496239 L13.7026774,17.375824" id="Fill-44" fill="#DA7F2E"></path>
                                        <path d="M15.1630419,15.329546 C15.0850806,15.1121224 14.8121548,14.233115 14.7241419,13.4331425 C14.619029,12.4750381 14.6575806,11.0737049 14.6575806,11.0737049 C14.6575806,11.0737049 14.8917097,11.9922608 15.0962355,12.1407074 C15.301129,12.2887814 15.6813129,13.2961197 15.6813129,13.2961197 C15.6813129,13.2961197 15.8850419,14.7958585 15.9820032,15.2999933 C15.7136742,15.3544423 15.4880032,15.1941995 15.1630419,15.329546" id="Fill-45" fill="#DA7F2E"></path>
                                        <path d="M17.2824613,9.38485348 C17.2824613,9.38485348 16.785029,9.20691626 16.6389129,8.11073358 C16.4927355,7.01430257 16.8145097,6.06613187 16.8145097,6.06613187 C16.8145097,6.06613187 16.785029,7.57729444 16.9606871,7.87369091 C17.1363452,8.17008738 17.2824613,8.25880765 17.4872323,8.64417273 C17.6918194,9.02941364 17.3993419,9.26633214 17.2824613,9.38485348" id="Fill-46" fill="#DA7F2E"></path>
                                        <path d="M16.6885581,2.51240775 L16.8350837,2.20558957 C17.2664468,2.25414231 16.6885581,2.51240775 16.6885581,2.51240775" id="Fill-47" fill="#F6BC68"></path>
                                        <path d="M12.9445161,2.84625048 C12.9445161,2.84625048 13.4126516,2.76727765 13.6465355,2.41177572 C13.8806645,2.05614963 14.5437645,1.34489743 15.6006548,1.33695048 C16.6574226,1.32894144 17.7029742,1.62142652 17.7029742,1.62142652 L16.7902387,2.20558957 C16.6937065,2.20248529 16.5249129,2.20372701 16.2456129,2.21316401 C15.1004032,2.25171914 14.924071,3.39937075 14.924071,3.39937075 L10.8874903,2.83637888" id="Fill-48" fill="#EEA32E"></path>
                                        <path d="M12.5545871,9.18493797 C12.5545871,9.18493797 13.1006839,9.73812032 13.9391355,9.5601831 C14.777771,9.38255631 15.2848871,9.00718701 15.3238677,8.35516444 C15.3627871,7.70326604 15.1483935,7.44648016 15.1483935,7.44648016 C15.1483935,7.44648016 14.2121839,7.7430008 13.7636613,8.13811332 C13.3152,8.53322583 12.9837419,9.16525684 12.5545871,9.18493797" id="Fill-49" fill="#FFFFFF"></path>
                                        <path d="M13.2152968,8.98731963 C13.2152968,8.98731963 13.6891323,9.20648166 14.2182516,9.02798567 C14.9113839,8.79386102 14.9575968,8.06385898 14.9575968,8.06385898 C14.9575968,8.06385898 15.3824613,9.32748642 14.1906097,9.57079973 C13.2349097,9.76587257 12.6693839,9.20474326 12.6693839,9.20474326 L13.2152968,8.98731963" id="Fill-50" fill="#C4C3BF"></path>
                                        <path d="M16.3112548,4.22895802 C16.6975677,3.90437471 16.409871,3.60307348 16.4403935,3.23416107 C16.4566968,3.03790861 16.4720194,2.85270738 16.5359452,2.75057663 C16.8914903,2.18193497 17.7300645,2.0093992 17.7387065,2.00759872 L18.1323742,1.92949508 L17.8717677,1.62074358 C17.8379968,1.58076048 16.7679903,0.546601283 15.1119258,1.08811155 C13.9538452,1.46658513 13.0963935,2.74976952 13.0644613,2.80161096 L13.6450032,3.07820214 C13.6520516,3.06727508 14.3299839,1.86120096 15.3236839,1.53661765 C16.1268935,1.27405781 16.8671581,1.52382802 17.1841516,1.68748556 C16.8472387,1.82382545 16.4063161,2.0721677 16.1407452,2.49683294 C16.0154677,2.69743139 15.9945065,2.94999545 15.9741581,3.19455048 C15.9471903,3.51832668 15.9217548,3.8239739 15.6865226,4.02190267 L16.3112548,4.22895802" id="Fill-51" fill="#3A2D1D"></path>
                                        <path d="M17.3428323,8.96813519 C17.3428323,8.96813519 16.856371,8.35684075 16.7122161,7.16715722 C16.6555839,6.69865957 16.7559774,5.7744539 16.9168645,5.41882781 C16.887629,6.29293043 17.107171,7.16715722 17.107171,7.16715722 C17.107171,7.16715722 17.2551258,8.79032214 17.3428323,8.96813519" id="Fill-52" fill="#3A2D1D"></path>
                                        <path d="M14.776729,3.61151711 C14.7769742,3.61021332 14.9328968,2.92000813 15.3651774,2.57158396 C15.9749548,2.08023882 16.7195097,2.34161904 16.7264355,2.3439162 L16.8348581,2.00561198 C16.7986968,1.99375364 15.9478032,1.7221293 15.1632258,2.28058893 C14.3742355,2.84221492 14.2797871,3.35131652 14.2713903,3.40762813 L14.776729,3.61151711" id="Fill-53" fill="#3A2D1D"></path>
                                        <path d="M15.8144355,8.52968695 C15.8144355,8.52968695 16.069771,8.15934658 16.0236194,7.75218947 C16.0010032,7.55109433 15.9090065,7.34459775 15.7448097,7.27139888 C15.4395226,7.13555567 15.3042548,7.48602866 15.3042548,7.48602866 C15.3042548,7.48602866 15.7338387,7.59343668 15.8144355,8.52968695" id="Fill-54" fill="#3A2D1D"></path>
                                        <path d="M13.0108935,9.09404471 C13.000229,9.11422251 12.9947742,9.12552209 12.9947742,9.12552209 C12.9947742,9.12552209 13.7909355,9.73098048 14.6070774,9.11658176 C15.0442613,8.78740412 15.0029516,7.97308989 14.8689097,7.62783209 C14.5210258,7.7077362 14.2257903,7.85183679 13.9789742,8.02002658 C14.2908806,7.73809604 14.5638677,7.53054401 14.5628871,7.52570134 L14.9176355,7.42406727 L15.6064774,7.18491369 C15.6152419,7.2381831 15.8665323,8.43121925 15.1409774,9.24422968 C14.819571,9.60463636 13.3124419,10.4118728 12.5970613,9.03158663 L13.0108935,9.09404471" id="Fill-55" fill="#3A2D1D"></path>
                                        <path d="M13.0852387,9.18276497 C12.6368387,9.8740877 11.5058484,9.47903727 11.5253387,8.74816604 C11.5253387,8.74816604 12.2810484,9.17072037 12.9488677,8.39266412 C13.3388581,7.93832198 14.5885065,6.68580786 16.2829387,7.10209155 C15.1128452,7.36272674 13.5636097,8.44568519 13.0852387,9.18276497" id="Fill-56" fill="#3A2D1D"></path>
                                        <path d="M16.4413129,11.1339279 C16.3333806,11.1970068 15.9527677,11.5960928 15.9527677,12.1929834 C15.9525226,12.4922979 15.9820032,13.9959481 16.1284258,14.9146282 C15.9084548,15.0594117 15.755229,15.0902061 15.5361161,15.2377835 C15.4264677,14.1738853 15.3475871,12.6319283 15.3845452,12.0094585 C15.4263452,11.2998205 15.8013194,10.8236243 16.1490194,10.6206045 C16.2579935,10.557153 16.3718097,10.4947571 16.4866677,10.4319265 C17.0824097,10.1058531 17.6984387,9.76854225 17.6984387,9.19263658 C17.6984387,8.74201957 17.5252935,8.60114743 17.3422806,8.45176957 L17.3227903,8.43556524 C17.2012516,8.33616626 17.0635935,8.22341888 16.9823839,8.03821765 C16.7600839,7.53203406 16.7236161,6.24264112 16.9821387,5.91532604 C17.1110323,5.75222727 17.4566484,5.20376342 17.3573581,4.83522353 C17.3192968,4.69453765 17.2317742,4.59035807 17.0894581,4.51641417 C16.9387452,4.43824845 16.7355065,4.39863786 16.4847065,4.39863786 C15.9928516,4.39863786 15.4466935,4.55037497 15.1653097,4.64077155 C14.1589839,4.96380273 12.9446387,5.89539658 12.5963871,6.17322947 C12.5863968,6.18092807 12.5806968,6.18552241 12.5795323,6.18626743 L12.3566806,6.34315765 L12.4960548,6.10704626 C12.5048194,6.09233198 13.3869097,4.62289091 14.9642774,4.08405032 C15.2712194,3.97924989 15.874071,3.80342358 16.4666258,3.80342358 C16.8194129,3.80342358 17.1184484,3.86581957 17.3557032,3.98874898 C17.6446258,4.13843727 17.8401419,4.37728043 17.9215355,4.67920251 C18.120729,5.41932449 17.4719097,6.24338615 17.4497839,6.26964834 C17.3741516,6.40648492 17.3421581,7.39997807 17.5166516,7.7976361 C17.5406161,7.85258182 17.6065645,7.90647209 17.6901645,7.97464203 C17.7162742,7.99606155 17.7452645,8.0182261 17.7764613,8.04206695 C18.0230935,8.23055872 18.3956161,8.51534519 18.3956161,9.17183791 C18.3956161,10.0700297 17.4969774,10.5570289 16.7749774,10.9486025 C16.6565032,11.0131094 16.5432387,11.0742016 16.4413129,11.1339279" id="Fill-57" fill="#3A2D1D"></path>
                                        <path d="M15.3693452,4.1232884 C15.2264161,3.87805043 14.8608806,3.40452385 14.0183839,2.98842642 C13.0781903,2.52421267 11.9900419,2.28859797 10.7836645,2.2880392 L10.7836645,2.28779086 L10.7813355,2.28779086 L10.7790065,2.28779086 L10.7790065,2.28791503 C9.57250645,2.2884738 8.4841129,2.5240885 7.54416452,2.98830225 C6.70172903,3.40446176 6.33625484,3.87792626 6.19320323,4.12316422 L6.13185161,4.20542759 L6.8533,4.36809176 L6.87616129,4.33884947 L6.88823548,4.3120285 C6.89939032,4.26372594 6.99610645,4.00296658 7.80048065,3.60561898 C8.66038387,3.18076749 9.66333871,2.96539267 10.7812129,2.96502016 C11.899271,2.96539267 12.9017355,3.18076749 13.7615774,3.60561898 C14.5660129,4.00296658 14.6630355,4.26372594 14.6740677,4.3120285 L14.6860806,4.33884947 L14.7086968,4.36809176 L15.4304516,4.20542759 L15.3693452,4.1232884" id="Fill-58" fill="#3A2D1D"></path>
                                        <path d="M16.3112548,4.22895802 C16.6975677,3.90437471 16.409871,3.60307348 16.4403935,3.23416107 C16.4566968,3.03790861 16.4720194,2.85270738 16.5359452,2.75057663 C16.8914903,2.18193497 17.7300645,2.0093992 17.7387065,2.00759872 L18.1323742,1.92949508 L17.8717677,1.62074358 C17.8379968,1.58076048 16.7679903,0.546601283 15.1119258,1.08811155 C13.9538452,1.46658513 13.0963935,2.74976952 13.0644613,2.80161096 L13.6450032,3.07820214 C13.6520516,3.06727508 14.3299839,1.86120096 15.3236839,1.53661765 C16.1268935,1.27405781 16.8671581,1.52382802 17.1841516,1.68748556 C16.8472387,1.82382545 16.4063161,2.0721677 16.1407452,2.49683294 C16.0154677,2.69743139 15.9945065,2.94999545 15.9741581,3.19455048 C15.9471903,3.51832668 15.9217548,3.8239739 15.6865226,4.02190267 L16.3112548,4.22895802" id="Fill-59" fill="#3A2D1D"></path>
                                        <path d="M15.5677419,4.0445639 L15.6490129,3.97608353 C15.8653677,3.79423492 15.8896387,3.50069439 15.9157484,3.18852818 C15.9367097,2.93745417 15.9583452,2.6776261 16.0911613,2.46510722 C16.3352194,2.07496155 16.7215935,1.83046861 17.0399355,1.68512631 C16.8493226,1.60335963 16.4912645,1.48148567 16.049729,1.48148567 C15.8059161,1.48148567 15.5678645,1.51886118 15.3415194,1.59286717 C14.4197742,1.89398214 13.7684419,2.98221786 13.6946484,3.10980369 L13.6670065,3.15413278 L12.9800032,2.8268177 L13.015,2.77031984 C13.023029,2.7571577 13.8852613,1.4267262 15.0941516,1.03186203 C15.4175194,0.926068235 15.7424194,0.872612567 16.0598419,0.872612567 C17.2233774,0.872612567 17.9104419,1.57529695 17.9162645,1.58231262 L18.2422065,1.96823647 L17.7504742,2.06589706 C17.7423226,2.06757337 16.9244032,2.24091626 16.5855903,2.78242652 C16.5294484,2.87245059 16.5147387,3.05044989 16.4988032,3.23943834 C16.4895484,3.35181321 16.5129,3.46133214 16.5355161,3.56718802 C16.584671,3.79671834 16.6354194,4.03413353 16.3488258,4.27477717 L16.3239419,4.2957 L15.5677419,4.0445639" id="Fill-60" fill="#3A2D1D"></path>
                                        <path d="M14.776729,3.61151711 C14.7769742,3.61021332 14.9328968,2.92000813 15.3651774,2.57158396 C15.9749548,2.08023882 16.7195097,2.34161904 16.7264355,2.3439162 L16.8348581,2.00561198 C16.7986968,1.99375364 15.9478032,1.7221293 15.1632258,2.28058893 C14.3742355,2.84221492 14.2797871,3.35131652 14.2713903,3.40762813 L14.776729,3.61151711" id="Fill-61" fill="#3A2D1D"></path>
                                        <path d="M16.6885581,2.27071733 L16.7605742,2.04602968 C16.6756258,2.02417556 16.5036452,1.98866262 16.2825097,1.98866262 C15.8795871,1.98866262 15.5143581,2.10327257 15.1971194,2.32913984 C14.5334677,2.80167305 14.3748484,3.22863545 14.338871,3.37093556 L14.7370742,3.53161299 C14.789171,3.34405251 14.9616419,2.82123 15.3289548,2.52514396 C15.582329,2.3211308 15.8992613,2.2132261 16.2457355,2.2132261 C16.444929,2.2132261 16.6053871,2.2480561 16.6885581,2.27071733 L16.6885581,2.27071733 Z M14.2069129,3.44531406 L14.2137161,3.39893615 C14.2222968,3.34014112 14.3210968,2.80794369 15.1297613,2.23210011 C15.4623839,1.99530578 15.8610161,1.87001711 16.2825097,1.87001711 C16.6022,1.87001711 16.8280548,1.94122925 16.8530613,1.94936246 L16.9085903,1.96755353 L16.7636387,2.41885348 L16.7076806,2.39997947 C16.6867806,2.39283963 16.4986806,2.33162326 16.2457355,2.33162326 C15.9214484,2.33162326 15.6375516,2.42798005 15.4019516,2.61814813 C14.9884871,2.95117508 14.8354452,3.61772567 14.8340355,3.62430674 L14.8188355,3.69210417 L14.2069129,3.44531406 L14.2069129,3.44531406 Z" id="Fill-62" fill="#3A2D1D"></path>
                                        <path d="M12.2006968,18.2256512 C11.8993323,17.8992674 11.7210387,17.5480494 11.6779516,17.4400826 C11.6533129,17.3786179 11.6252419,17.2614624 11.7136226,17.1694516 C11.7825129,17.0981774 11.9019065,17.061609 12.0688613,17.061609 L12.3257903,17.061609 C12.593629,17.061609 12.9067,17.061609 13.0929,17.0617952 L13.2490677,17.0619815 C13.4684258,17.0619815 13.5764806,17.1256192 13.6285161,17.1788265 C13.7042097,17.2563714 13.7159774,17.3643382 13.6639419,17.4993122 C13.5243226,17.8601535 13.2077581,18.1546253 13.114229,18.2363299 C12.9916484,18.3434896 12.8156839,18.4070652 12.6427839,18.4070652 C12.4656548,18.4071273 12.308629,18.3426204 12.2006968,18.2256512" id="Fill-63" fill="#3A2D1D"></path>
                                        <path d="M12.4615484,9.22343102 L13.0852387,9.18276497 C13.0852387,9.18276497 12.9259452,9.46761353 12.8226097,9.83602925 C12.7059129,10.2527475 12.9293161,10.8617448 12.9293161,10.8617448 C12.9293161,10.8617448 12.0971774,9.90748973 12.4615484,9.22343102" id="Fill-64" fill="#3A2D1D"></path>
                                        <path d="M10.7814581,6.96655877 C10.3837452,6.96655877 9.86516774,6.95550754 9.47603548,6.67227321 C9.47603548,6.67227321 9.98548065,7.57698401 10.7807226,7.57698401 L10.7814581,7.46249824 L10.7821323,7.57698401 C11.5774355,7.57698401 12.0868194,6.67227321 12.0868194,6.67227321 C11.6976871,6.95550754 11.1788032,6.96655877 10.7814581,6.96655877" id="Fill-65" fill="#DA7F2E"></path>
                                        <path d="M11.876471,6.96221278 C11.4775935,7.20676781 11.1212516,7.2915146 10.7814581,7.29902695 C10.4415419,7.2915146 10.0853839,7.20676781 9.68638387,6.96221278 C9.68638387,6.96221278 10.2674161,7.68035647 10.7785161,7.68588209 L10.7785161,7.68637877 C10.7794355,7.68637877 10.7804161,7.68613043 10.7814581,7.68613043 C10.7823774,7.68613043 10.7832968,7.68637877 10.7843387,7.68637877 L10.7843387,7.68588209 C11.2952548,7.68035647 11.876471,6.96221278 11.876471,6.96221278" id="Fill-66" fill="#3A2D1D"></path>
                                        <path d="M13.2404871,20.0762976 L13.1960516,19.4905824 C15.0693903,19.3446193 15.6596774,17.526009 15.6627419,17.3345992 L16.2427935,17.3345992 C16.2430387,17.7772693 15.4613419,19.9033893 13.2404871,20.0762976" id="Fill-67" fill="#3A2D1D"></path>
                                        <path d="M13.8645452,16.2672863 C13.8994194,16.0640182 13.9027903,15.8713667 13.8605,15.6820057 C14.0294774,15.5534886 14.3321903,15.5057448 14.5594548,15.431118 C14.7452871,15.3119758 15.6965129,15.5532403 16.3863968,14.7074487 C17.2508355,13.6483311 17.0686806,13.0159896 17.0686806,13.0159896 C17.2904903,13.2654494 17.505129,13.1703964 17.8432065,14.3335073 C18.181529,15.4968666 17.6841581,16.3078903 16.7576323,17.1220803 C16.3199581,17.5067625 15.7011097,17.6651427 15.1688645,17.7258003 C15.3471581,17.5444484 14.8643129,17.5263194 14.5316903,17.4001616 C14.558229,17.1279784 14.5136097,16.8637423 14.3132516,16.650913 C14.1926935,16.5226442 14.0370161,16.4460306 13.8758839,16.3848764 C13.8668129,16.3637673 13.859029,16.3442724 13.8506935,16.3240325 C13.8561484,16.3055931 13.8611742,16.2869053 13.8645452,16.2672863" id="Fill-68" fill="#FFFFFF"></path>
                                        <path d="M14.5358581,17.3930838 C14.5553484,17.3360272 14.569629,17.2777288 14.5839097,17.2191821 C14.5995387,17.1551098 14.6761516,16.97382 14.5815806,17.1808753 C14.6058516,17.1278543 14.6217258,17.0731569 14.6334323,17.018087 C16.1339419,17.0161624 17.4393645,15.9726282 17.1869097,13.7785866 C17.3833452,13.5144125 17.6586,14.3112807 17.6586,14.3112807 C17.6586,14.3112807 18.4098355,16.5207817 16.4697516,17.3771278 C15.8233226,17.6626593 15.2520968,17.8674175 15.1171968,17.7847816 C14.8361806,17.8425833 14.5828065,17.644282 14.4879903,17.5139023 C14.5057032,17.473795 14.5223129,17.4336878 14.5358581,17.3930838" id="Fill-69" fill="#C4C3BF"></path>
                                        <path d="M13.8913903,15.9491599 C13.8893065,15.7638966 13.8517355,15.5845935 13.7636,15.4058491 C13.7574097,15.3934941 13.7502387,15.3817599 13.7436194,15.3697774 C14.3209742,15.3647485 14.9860355,15.3086852 15.5522968,15.0791549 C16.1746387,14.8269013 16.9532097,13.9641603 17.0870677,12.9504273 C17.0870677,12.9504273 18.2592452,13.866686 17.9147935,15.8278447 C17.5912419,17.6694266 16.0701387,18.269794 14.3351935,18.3713039 C14.3342742,18.3593835 14.5303419,17.9491842 14.4683774,17.6980481 C15.4533129,17.770564 16.5549452,17.3850127 17.0870677,16.4984929 C17.5737129,15.6871588 17.4371581,14.3019679 17.2370452,14.0990102 C16.7491742,15.6592203 14.9926548,15.9763534 13.8913903,15.9491599" id="Fill-70" fill="#3A2D1D"></path>
                                        <path d="M14.1852774,17.6681849 C13.9206871,18.435935 13.2095968,20.29428 10.7813355,20.2975084 C8.35270645,20.29428 7.64186129,18.435935 7.37727097,17.6681849 C7.23084839,17.2422159 7.24200323,16.9270696 7.41147097,16.7311896 C7.52724839,16.5973332 7.79324839,16.4376491 8.39947097,16.4376491 L9.03278387,16.4374007 C9.5,16.4369661 10.0866097,16.4364695 10.7813355,16.4362211 C11.4757548,16.4364695 12.0627323,16.4369661 12.5298258,16.4374007 L13.1628935,16.4376491 C13.7692387,16.4376491 14.0352387,16.5973332 14.1510774,16.7311896 C14.3204226,16.9271937 14.3317,17.2422159 14.1852774,17.6681849 L14.1852774,17.6681849 Z M14.592,16.4110765 C14.3847161,16.1840917 14.0036129,15.9135228 13.1249548,15.9135228 C13.1249548,15.9135228 11.4589613,15.9125915 10.7843387,15.9120948 L10.7814581,15.9120948 L10.7785161,15.9120948 C10.1040161,15.9125915 8.43765484,15.9135228 8.43765484,15.9135228 C7.55911935,15.9135228 7.17807742,16.1842158 6.97060968,16.4110765 C6.66850968,16.7414337 6.62119355,17.2009911 6.83013226,17.7754067 C7.38548387,19.3043257 8.16589355,20.8575823 10.7783935,20.8597553 L10.7783935,20.8600036 C10.7793742,20.8600036 10.7802935,20.8597553 10.7813355,20.8597553 C10.7822548,20.8597553 10.7831742,20.8600036 10.7842161,20.8600036 L10.7842161,20.8597553 C13.396471,20.8574581 14.1768806,19.3043257 14.7324161,17.7754067 C14.9414161,17.2009911 14.8939161,16.7414337 14.592,16.4110765 L14.592,16.4110765 Z" id="Fill-71" fill="#3A2D1D"></path>
                                        <g id="Group-77" transform="translate(0.000000, 12.292941)">
                                            <mask id="mask-5" fill="white">
                                                <use xlink:href="#path-4"></use>
                                            </mask>
                                            <g id="Clip-73"></g>
                                            <path d="M13.7097871,2.53929947 C14.0219387,3.46747861 14.6596645,4.21852765 14.6596645,4.21852765 C14.6596645,4.21852765 13.7824774,4.17810995 13.7339968,4.0209093 C13.6983871,3.90499556 12.9420645,2.11165412 12.6517935,0.0108649733 C12.9245968,0.465207112 13.6829419,2.45982995 13.7097871,2.53929947" id="Fill-72" fill="#3A2D1D" mask="url(#mask-5)"></path>
                                        </g>
                                    </g>
                                </g>
                            </g>
                        </g>
                    </g>
                </g>
            </g>
        </g>
    </g>
</svg>